<svg width="58" height="50" viewBox="0 0 58 50" fill="none" xmlns="http://www.w3.org/2000/svg">
<path d="M52.1506 17.8571C52.8812 17.8571 53.5743 17.9967 54.2299 18.2757C54.8855 18.5547 55.4569 18.936 55.9439 19.4196C56.4309 19.9033 56.8243 20.4706 57.124 21.1217C57.4238 21.7727 57.5643 22.4702 57.5455 23.2143C57.5455 23.8095 57.4519 24.3769 57.2645 24.9163L50.0713 46.3449C49.884 46.8843 49.6218 47.3772 49.2846 47.8237C48.9474 48.2701 48.554 48.6607 48.1045 48.9955C47.6549 49.3304 47.1678 49.5722 46.6433 49.721C46.1188 49.8698 45.5569 49.9628 44.9574 50H30.5711C27.218 50 23.9867 49.3583 20.8771 48.0748C19.5284 47.5353 18.1797 47.1261 16.8309 46.8471C15.4822 46.5681 14.0679 46.4286 12.5881 46.4286H0V21.4286H11.717C12.9346 21.4286 14.0773 21.2054 15.145 20.7589C16.2128 20.3125 17.1869 19.6615 18.0673 18.8058L35.5445 1.47879C36.0128 1.01376 36.4811 0.651042 36.9494 0.390625C37.4177 0.130208 37.989 0 38.6634 0C39.2816 0 39.8623 0.111607 40.4055 0.334821C40.9487 0.558036 41.4264 0.883557 41.8385 1.31138C42.2506 1.73921 42.5691 2.21354 42.7939 2.73438C43.0186 3.25521 43.1404 3.83185 43.1591 4.46429C43.1591 5.97098 42.9905 7.40327 42.6534 8.76116C42.3162 10.119 41.8198 11.4769 41.1642 12.8348C40.7895 13.6347 40.4711 14.4438 40.2088 15.2623C39.9466 16.0807 39.7686 16.9457 39.6749 17.8571H52.1506ZM44.9574 46.4286C45.3321 46.4286 45.6786 46.317 45.9971 46.0938C46.3155 45.8705 46.5403 45.5729 46.6714 45.2009C46.7651 44.9405 46.9337 44.4382 47.1772 43.6942C47.4207 42.9501 47.7298 42.0573 48.1045 41.0156C48.4791 39.974 48.8725 38.8207 49.2846 37.5558C49.6967 36.2909 50.1275 35.0167 50.5771 33.7333C51.0267 32.4498 51.4388 31.2035 51.8134 29.9944C52.1881 28.7853 52.5534 27.6879 52.9093 26.702C53.2652 25.7161 53.5181 24.9163 53.6679 24.3025C53.8178 23.6886 53.9115 23.3259 53.9489 23.2143C53.9489 22.7307 53.771 22.3121 53.4151 21.9587C53.0591 21.6053 52.6377 21.4286 52.1506 21.4286H35.966C35.966 20.4427 35.9847 19.5312 36.0221 18.6942C36.0596 17.8571 36.1533 17.0294 36.3031 16.2109C36.453 15.3925 36.659 14.5926 36.9213 13.8114C37.1835 13.0301 37.5301 12.1838 37.9609 11.2723C38.4854 10.1935 38.8788 9.09598 39.1411 7.97991C39.4033 6.86384 39.5438 5.69196 39.5625 4.46429C39.5625 4.20387 39.4782 3.98996 39.3097 3.82254C39.1411 3.65513 38.9256 3.57143 38.6634 3.57143C38.551 3.57143 38.4573 3.60863 38.3824 3.68304C38.3075 3.75744 38.2232 3.84115 38.1295 3.93415L20.6242 21.3449C20.0248 21.9401 19.3879 22.4609 18.7135 22.9074C18.0392 23.3538 17.3086 23.7351 16.5219 24.0513C15.0233 24.6838 13.4217 25 11.717 25H3.59659V42.8571H12.5881C15.9224 42.8571 19.1537 43.4989 22.282 44.7824C24.9795 45.8798 27.7425 46.4286 30.5711 46.4286H44.9574Z" fill="#0C1424"/>
</svg>
