<svg width="56" height="28" viewBox="0 0 56 28" fill="none" xmlns="http://www.w3.org/2000/svg">
<path d="M28.0469 0.000654996C30.7324 0.000654996 33.3464 0.349768 35.8887 1.04799C38.431 1.74622 40.8659 2.70404 43.1934 3.92146C45.5208 5.13888 47.723 6.59799 49.7998 8.2988C51.8766 9.9996 53.7923 11.8168 55.5469 13.7503C53.7923 15.7197 51.8856 17.5369 49.8267 19.2019C47.7677 20.8669 45.5656 22.317 43.2202 23.5523C40.8748 24.7877 38.431 25.7544 35.8887 26.4527C33.3464 27.1509 30.7324 27.5 28.0469 27.5C25.3613 27.5 22.7474 27.1509 20.2051 26.4527C17.6628 25.7544 15.2279 24.7966 12.9004 23.5792C10.5729 22.3618 8.36182 20.9116 6.26709 19.2287C4.17236 17.5458 2.26562 15.7197 0.546875 13.7503C2.28353 11.7989 4.19027 9.9817 6.26709 8.2988C8.34391 6.61589 10.5461 5.16573 12.8735 3.94831C15.201 2.7309 17.6449 1.76412 20.2051 1.04799C22.7653 0.331865 25.3792 -0.0172482 28.0469 0.000654996ZM28.0469 23.5792C29.4076 23.5792 30.6787 23.3196 31.8604 22.8004C33.042 22.2812 34.0804 21.583 34.9756 20.7057C35.8708 19.8285 36.578 18.7901 37.0972 17.5906C37.6164 16.3911 37.876 15.111 37.876 13.7503C37.876 12.3897 37.6164 11.1186 37.0972 9.93694C36.578 8.75533 35.8797 7.71694 35.0024 6.82178C34.1252 5.92662 33.0868 5.21944 31.8872 4.70025C30.6877 4.18106 29.4076 3.92146 28.0469 3.92146C26.6862 3.92146 25.415 4.18106 24.2334 4.70025C23.0518 5.21944 22.0133 5.91767 21.1182 6.79493C20.223 7.67218 19.5158 8.71057 18.9966 9.91009C18.4774 11.1096 18.2178 12.3897 18.2178 13.7503C18.2178 15.111 18.4774 16.3821 18.9966 17.5637C19.5158 18.7453 20.214 19.7837 21.0913 20.6789C21.9686 21.574 23.007 22.2812 24.2065 22.8004C25.4061 23.3196 26.6862 23.5792 28.0469 23.5792ZM17.9761 22.129C16.9914 20.9474 16.2394 19.6405 15.7202 18.2082C15.201 16.776 14.9414 15.29 14.9414 13.7503C14.9414 12.2107 15.201 10.7247 15.7202 9.29243C16.2394 7.86017 16.9914 6.55323 17.9761 5.37162C15.577 6.32049 13.3301 7.5021 11.2354 8.91646C9.14062 10.3308 7.16227 11.9421 5.30029 13.7503C7.14437 15.5406 9.11377 17.143 11.2085 18.5573C13.3032 19.9717 15.5591 21.1623 17.9761 22.129ZM50.7935 13.7503C48.9494 11.96 46.98 10.3577 44.8853 8.94331C42.7905 7.52896 40.5347 6.33839 38.1177 5.37162C39.1024 6.55323 39.8543 7.86017 40.3735 9.29243C40.8927 10.7247 41.1523 12.2107 41.1523 13.7503C41.1523 15.29 40.8927 16.776 40.3735 18.2082C39.8543 19.6405 39.1024 20.9474 38.1177 22.129C40.5168 21.1802 42.7637 19.9986 44.8584 18.5842C46.9531 17.1698 48.9315 15.5586 50.7935 13.7503ZM28.0469 9.15815C28.6735 9.15815 29.2643 9.27452 29.8193 9.50726C30.3743 9.74001 30.8577 10.0712 31.2695 10.5009C31.6813 10.9306 32.0125 11.4229 32.2632 11.9779C32.5138 12.5329 32.6392 13.1237 32.6392 13.7503C32.6392 14.3769 32.5228 14.9677 32.29 15.5227C32.0573 16.0777 31.7261 16.5701 31.2964 16.9998C30.8667 17.4294 30.3743 17.7517 29.8193 17.9665C29.2643 18.1814 28.6735 18.3067 28.0469 18.3425C27.4202 18.3425 26.8294 18.2261 26.2744 17.9934C25.7194 17.7606 25.2271 17.4294 24.7974 16.9998C24.3677 16.5701 24.0454 16.0867 23.8306 15.5496C23.6157 15.0125 23.4904 14.4127 23.4546 13.7503C23.4546 13.1237 23.571 12.5329 23.8037 11.9779C24.0365 11.4229 24.3677 10.9395 24.7974 10.5277C25.2271 10.116 25.7104 9.78476 26.2476 9.53412C26.7847 9.28347 27.3844 9.15815 28.0469 9.15815Z" fill="#0C1424"/>
</svg>
