<svg width="20" height="19" viewBox="0 0 20 19" fill="none" xmlns="http://www.w3.org/2000/svg">
<path d="M19.9992 3.80066V9.64884C19.869 9.25962 19.6997 8.89349 19.4914 8.55045C19.2831 8.20741 19.0357 7.88746 18.7493 7.5906V3.80066H11.8748C11.5103 3.80066 11.2173 3.83035 10.996 3.88972C10.7747 3.94909 10.5859 4.02825 10.4297 4.12721C10.2734 4.22616 10.14 4.32841 10.0293 4.43397C9.91863 4.53952 9.79819 4.64177 9.66799 4.74072C9.5378 4.83968 9.37505 4.91554 9.17975 4.96832C8.98446 5.02109 8.73708 5.05408 8.43763 5.06727H1.25071V13.9336H10V15.2002H1.25071C1.07494 15.2002 0.912198 15.1672 0.76247 15.1012C0.612743 15.0352 0.482545 14.9462 0.371877 14.834C0.261209 14.7219 0.170071 14.5866 0.098462 14.4283C0.0268533 14.27 -0.00569615 14.1051 0.000813736 13.9336V1.26744C0.000813736 1.08932 0.0333632 0.924396 0.098462 0.772666C0.163561 0.620937 0.251444 0.488998 0.362112 0.37685C0.47278 0.264702 0.606233 0.172345 0.76247 0.0997787C0.918708 0.0272124 1.08145 -0.00577232 1.25071 0.000824617H8.43763C8.67849 0.000824617 8.90308 0.0437047 9.1114 0.129465C9.31972 0.215225 9.5085 0.33397 9.67776 0.485699C9.84702 0.637429 10.0033 0.805651 10.1465 0.990365C10.2897 1.17508 10.4199 1.36969 10.5371 1.57419C10.6217 1.72592 10.7031 1.86116 10.7812 1.97991C10.8593 2.09865 10.9504 2.1976 11.0546 2.27677C11.1588 2.35593 11.2727 2.4186 11.3964 2.46478C11.5201 2.51096 11.6796 2.53405 11.8748 2.53405H18.7493C18.9251 2.53405 19.0878 2.56703 19.2375 2.633C19.3873 2.69897 19.5175 2.78803 19.6281 2.90018C19.7388 3.01233 19.8299 3.14756 19.9015 3.30589C19.9731 3.46422 20.0057 3.62914 19.9992 3.80066ZM8.43763 3.80066C8.61339 3.80066 8.75987 3.77097 8.87704 3.7116C8.99422 3.65223 9.10814 3.57966 9.21881 3.4939C9.32948 3.40814 9.44015 3.31578 9.55082 3.21683C9.66148 3.11788 9.78843 3.02552 9.93165 2.93976C9.834 2.82761 9.73309 2.67918 9.62894 2.49447C9.52478 2.30975 9.4076 2.12504 9.2774 1.94032C9.1472 1.75561 9.01701 1.59728 8.88681 1.46534C8.75661 1.33341 8.60688 1.26744 8.43763 1.26744H1.25071V3.80066H8.43763ZM17.226 14.458C17.6491 14.6757 18.0299 14.9429 18.3685 15.2595C18.707 15.5762 18.9999 15.9324 19.2473 16.3282C19.4947 16.7241 19.6802 17.1463 19.8039 17.5949C19.9276 18.0434 19.9927 18.5118 19.9992 19H18.7493C18.7493 18.4788 18.6516 17.9874 18.4563 17.5256C18.261 17.0638 17.9941 16.6614 17.6556 16.3183C17.3171 15.9753 16.9168 15.7015 16.4546 15.497C15.9924 15.2925 15.5074 15.1936 14.9996 15.2002C14.4788 15.2002 13.9938 15.2991 13.5446 15.497C13.0955 15.6949 12.6983 15.9654 12.3533 16.3085C12.0083 16.6515 11.7381 17.0572 11.5428 17.5256C11.3475 17.994 11.2499 18.4854 11.2499 19H10C10 18.5184 10.0651 18.0533 10.1953 17.6047C10.3255 17.1562 10.511 16.734 10.7519 16.3381C10.9928 15.9423 11.2824 15.5861 11.621 15.2694C11.9595 14.9528 12.3436 14.6823 12.7732 14.458C12.2915 14.0952 11.9172 13.6466 11.6503 13.1122C11.3834 12.5779 11.2499 12.0072 11.2499 11.4003C11.2499 10.8792 11.3475 10.3877 11.5428 9.92591C11.7381 9.46413 12.005 9.06172 12.3436 8.71868C12.6821 8.37563 13.0792 8.10186 13.5349 7.89736C13.9906 7.69285 14.4788 7.5939 14.9996 7.60049C15.5139 7.60049 15.9989 7.69945 16.4546 7.89736C16.9102 8.09526 17.3073 8.36574 17.6459 8.70878C17.9844 9.05182 18.2545 9.45753 18.4563 9.92591C18.6581 10.3943 18.7558 10.8858 18.7493 11.4003C18.7493 12.0072 18.6158 12.5779 18.3489 13.1122C18.082 13.6466 17.7077 14.0952 17.226 14.458ZM12.4998 11.4003C12.4998 11.75 12.5649 12.0765 12.6951 12.38C12.8253 12.6834 13.0043 12.9539 13.2322 13.1914C13.46 13.4289 13.7237 13.6103 14.0231 13.7356C14.3226 13.861 14.6481 13.927 14.9996 13.9336C15.3446 13.9336 15.6669 13.8676 15.9663 13.7356C16.2658 13.6037 16.5327 13.4223 16.767 13.1914C17.0014 12.9605 17.1804 12.6933 17.3041 12.3899C17.4278 12.0864 17.4929 11.7566 17.4994 11.4003C17.4994 11.0507 17.4343 10.7241 17.3041 10.4207C17.1739 10.1172 16.9949 9.84675 16.767 9.60926C16.5392 9.37177 16.2755 9.19036 15.9761 9.06501C15.6766 8.93967 15.3511 8.8737 14.9996 8.86711C14.6546 8.86711 14.3323 8.93308 14.0329 9.06501C13.7334 9.19695 13.4665 9.37837 13.2322 9.60926C12.9978 9.84015 12.8188 10.1073 12.6951 10.4108C12.5714 10.7142 12.5063 11.0441 12.4998 11.4003Z" fill="#54BBAB"/>
</svg>
