<svg width="22" height="21" viewBox="0 0 22 21" fill="none" xmlns="http://www.w3.org/2000/svg">
<path d="M21.9991 4.20073V14.0003H20.6242V4.20073H13.0623C12.6613 4.20073 12.3391 4.23354 12.0956 4.29916C11.8521 4.36478 11.6445 4.45228 11.4726 4.56165C11.3008 4.67102 11.154 4.78404 11.0322 4.9007C10.9105 5.01736 10.778 5.13038 10.6348 5.23975C10.4916 5.34912 10.3126 5.43297 10.0977 5.4913C9.8829 5.54963 9.61079 5.58609 9.28139 5.60067H1.37578V15.4002H11V16.8002H1.37578C1.18244 16.8002 1.00342 16.7637 0.838718 16.6908C0.674017 16.6179 0.5308 16.5195 0.409065 16.3955C0.28733 16.2716 0.187078 16.1221 0.108308 15.9471C0.0295386 15.7721 -0.00626577 15.5898 0.000895109 15.4002V1.40085C0.000895109 1.20398 0.0366995 1.0217 0.108308 0.853999C0.179917 0.686298 0.276589 0.540471 0.398324 0.416518C0.520059 0.292565 0.666857 0.190487 0.838718 0.110282C1.01058 0.0300768 1.1896 -0.00637993 1.37578 0.000911419H9.28139C9.54634 0.000911419 9.79339 0.0483052 10.0225 0.143093C10.2517 0.23788 10.4594 0.369125 10.6455 0.536826C10.8317 0.704527 11.0072 0.890456 11.1719 1.09461C11.3366 1.29877 11.4762 1.51387 11.5908 1.7399C11.6839 1.9076 11.7734 2.05707 11.8593 2.18832C11.9452 2.31956 12.0455 2.42893 12.1601 2.51643C12.2746 2.60392 12.4 2.67319 12.536 2.72423C12.6721 2.77527 12.8475 2.80079 13.0623 2.80079H20.6242C20.8176 2.80079 20.9966 2.83725 21.1613 2.91016C21.326 2.98307 21.4692 3.08151 21.5909 3.20546C21.7127 3.32941 21.8129 3.47889 21.8917 3.65388C21.9705 3.82887 22.0063 4.01115 21.9991 4.20073ZM9.28139 4.20073C9.47473 4.20073 9.63585 4.16792 9.76475 4.1023C9.89364 4.03667 10.019 3.95647 10.1407 3.86168C10.2624 3.76689 10.3842 3.66481 10.5059 3.55544C10.6276 3.44607 10.7673 3.344 10.9248 3.24921C10.8174 3.12525 10.7064 2.9612 10.5918 2.75704C10.4773 2.55288 10.3484 2.34873 10.2051 2.14457C10.0619 1.94041 9.91871 1.76542 9.77549 1.61959C9.63227 1.47376 9.46757 1.40085 9.28139 1.40085H1.37578V4.20073H9.28139ZM17.8744 11.2004V15.4002H21.9991V16.8002H17.8744V21H16.4996V16.8002H12.3749V15.4002H16.4996V11.2004H17.8744Z" fill="#54BBAB"/>
</svg>
