<svg width="22" height="23" viewBox="0 0 22 23" fill="none" xmlns="http://www.w3.org/2000/svg">
<path d="M17.2712 13.0365C17.5864 13.0365 17.8874 13.0938 18.174 13.2084C18.4606 13.3231 18.7185 13.495 18.9478 13.7243L21.3122 16.0887C21.5343 16.3108 21.7027 16.5652 21.8173 16.8518C21.9319 17.1384 21.9928 17.4429 22 17.7653C22 18.0805 21.9427 18.3815 21.828 18.6681C21.7134 18.9547 21.5414 19.2126 21.3122 19.4419L21.1617 19.5923C20.7748 19.9792 20.4201 20.3232 20.0977 20.6241C19.7753 20.925 19.4386 21.1758 19.0875 21.3764C18.7364 21.577 18.3459 21.7346 17.916 21.8493C17.4861 21.9639 16.9738 22.0176 16.3792 22.0105C15.4836 22.0105 14.5629 21.8708 13.6171 21.5913C12.6713 21.3119 11.7327 20.925 10.8013 20.4306C9.86988 19.9362 8.95277 19.3487 8.05 18.6681C7.14723 17.9874 6.29819 17.2458 5.50289 16.4434C4.70759 15.6409 3.96961 14.7883 3.28894 13.8855C2.60828 12.9827 2.02793 12.0656 1.54788 11.1342C1.06783 10.2028 0.688096 9.26776 0.408666 8.32916C0.129236 7.39056 -0.00689619 6.48779 0.000268683 5.62084C0.000268683 5.02616 0.0504228 4.51745 0.150731 4.09472C0.251039 3.672 0.405084 3.28509 0.612865 2.93401C0.820646 2.58294 1.07142 2.24977 1.36518 1.93451C1.65894 1.61926 2.00285 1.2646 2.39692 0.870532L2.56887 0.698575C2.79099 0.476464 3.04534 0.304507 3.33193 0.182704C3.61853 0.0609014 3.92303 0 4.24545 0C4.56071 0 4.86163 0.0609014 5.14823 0.182704C5.43482 0.304507 5.69276 0.476464 5.92203 0.698575L8.28644 3.06298C8.50855 3.28509 8.67693 3.53945 8.79156 3.82604C8.9062 4.11263 8.9671 4.41714 8.97427 4.73956C8.97427 5.05481 8.92053 5.33424 8.81306 5.57785C8.70559 5.82146 8.57304 6.04715 8.41541 6.25493C8.25778 6.46271 8.08582 6.64542 7.89954 6.80304C7.71325 6.96067 7.53771 7.12188 7.37292 7.28667C7.20813 7.45146 7.07558 7.60909 6.97527 7.75955C6.87496 7.91002 6.82122 8.08555 6.81406 8.28617C6.81406 8.55844 6.91079 8.79129 7.10424 8.98475L13.026 14.9065C13.2195 15.1 13.4523 15.1967 13.7246 15.1967C13.9109 15.1967 14.0828 15.143 14.2404 15.0355C14.3981 14.928 14.5593 14.7955 14.7241 14.6378C14.8889 14.4802 15.0501 14.3082 15.2077 14.122C15.3653 13.9357 15.548 13.7601 15.7558 13.5953C15.9636 13.4305 16.1857 13.298 16.4221 13.1977C16.6586 13.0974 16.9416 13.0436 17.2712 13.0365ZM16.3792 20.6348C16.895 20.6348 17.3249 20.5883 17.6688 20.4951C18.0128 20.402 18.328 20.2622 18.6146 20.076C18.9012 19.8897 19.1735 19.6604 19.4314 19.3881C19.6893 19.1159 19.9938 18.8078 20.3449 18.4639C20.5384 18.2704 20.6351 18.0376 20.6351 17.7653C20.6351 17.6363 20.5849 17.4859 20.4846 17.3139C20.3843 17.1419 20.2482 16.9557 20.0762 16.755C19.9043 16.5544 19.7216 16.3574 19.5281 16.1639C19.3347 15.9705 19.1341 15.777 18.9263 15.5836C18.7185 15.3901 18.5358 15.2218 18.3782 15.0785C18.2205 14.9352 18.088 14.8098 17.9805 14.7023C17.7871 14.5089 17.5506 14.4121 17.2712 14.4121C17.0849 14.4121 16.9129 14.4659 16.7553 14.5733C16.5977 14.6808 16.4401 14.8134 16.2824 14.971C16.1248 15.1286 15.9636 15.3006 15.7988 15.4869C15.634 15.6732 15.4477 15.8487 15.2399 16.0135C15.0322 16.1783 14.8101 16.3108 14.5736 16.4111C14.3372 16.5114 14.0542 16.5652 13.7246 16.5723C13.4093 16.5723 13.1084 16.515 12.8218 16.4004C12.5352 16.2857 12.2773 16.1138 12.048 15.8845L6.12623 9.96275C5.90412 9.74064 5.73575 9.48629 5.62111 9.19969C5.50647 8.9131 5.44557 8.60859 5.4384 8.28617C5.4384 7.97092 5.49214 7.69149 5.59961 7.44788C5.70709 7.20428 5.83964 6.97858 5.99726 6.7708C6.15489 6.56302 6.32685 6.38032 6.51314 6.22269C6.69942 6.06506 6.87496 5.90027 7.03975 5.72831C7.20455 5.55636 7.3371 5.39873 7.4374 5.25543C7.53771 5.11213 7.59145 4.94018 7.59861 4.73956C7.59861 4.46013 7.50189 4.22369 7.30844 4.03024C7.21529 3.9371 7.09349 3.80813 6.94303 3.64334C6.79257 3.47854 6.62419 3.29584 6.4379 3.09522C6.25162 2.89461 6.05817 2.69399 5.85755 2.49337C5.65693 2.29276 5.45632 2.10647 5.2557 1.93451C5.05508 1.76256 4.87238 1.63001 4.70759 1.53686C4.5428 1.44372 4.38875 1.38998 4.24545 1.37565C3.97319 1.37565 3.74033 1.47238 3.54688 1.66583L2.63336 2.57935C2.36826 2.84445 2.13898 3.11672 1.94553 3.39615C1.75208 3.67558 1.60878 3.98725 1.51564 4.33116C1.4225 4.67508 1.37234 5.10497 1.36518 5.62084C1.36518 6.42331 1.49414 7.25085 1.75208 8.10347C2.01001 8.95609 2.37184 9.80871 2.83756 10.6613C3.30327 11.5139 3.85139 12.3522 4.48189 13.1762C5.1124 14.0002 5.80023 14.7847 6.54538 15.5299C7.29052 16.275 8.07508 16.9557 8.89904 17.5718C9.723 18.188 10.5613 18.7254 11.4139 19.1839C12.2665 19.6425 13.112 19.9971 13.9503 20.2479C14.7886 20.4987 15.5982 20.6277 16.3792 20.6348Z" fill="#54BBAB"/>
</svg>
