<svg width="22" height="20" viewBox="0 0 22 20" fill="none" xmlns="http://www.w3.org/2000/svg">
<path d="M22 0V15.1724H7.5625L2.75 20V15.1724H0V0H22ZM11 12.4138H9.625V13.7931H11V12.4138ZM11.0859 10.5927C11.0859 10.3269 11.111 10.0754 11.1611 9.83836C11.2113 9.60129 11.3402 9.37859 11.5479 9.17026C11.8271 8.89009 12.1029 8.62428 12.375 8.37284C12.6471 8.12141 12.8906 7.85201 13.1055 7.56466C13.3203 7.2773 13.4958 6.97198 13.6318 6.64871C13.7679 6.32543 13.8359 5.94828 13.8359 5.51724C13.8359 5.02874 13.7428 4.57256 13.5566 4.14871C13.3704 3.72486 13.1198 3.35129 12.8047 3.02802C12.4896 2.70474 12.1172 2.44971 11.6875 2.26293C11.2578 2.07615 10.7995 1.98276 10.3125 1.98276C9.82552 1.98276 9.37077 2.07615 8.94824 2.26293C8.52572 2.44971 8.15332 2.70115 7.83105 3.01724C7.50879 3.33333 7.25456 3.7069 7.06836 4.13793C6.88216 4.56897 6.78906 5.02874 6.78906 5.51724H8.33594C8.33594 5.24425 8.38607 4.98922 8.48633 4.75216C8.58659 4.51509 8.72982 4.30316 8.91602 4.11638C9.10221 3.9296 9.3099 3.78951 9.53906 3.69612C9.76823 3.60273 10.026 3.54885 10.3125 3.53448C10.5846 3.53448 10.8389 3.58477 11.0752 3.68534C11.3115 3.78592 11.5228 3.9296 11.709 4.11638C11.8952 4.30316 12.0348 4.51149 12.1279 4.74138C12.221 4.97126 12.2747 5.22989 12.2891 5.51724C12.2891 5.81178 12.221 6.07399 12.085 6.30388C11.9489 6.53376 11.7806 6.75287 11.5801 6.96121C11.3796 7.16954 11.1576 7.38506 10.9141 7.60776C10.6706 7.83046 10.4521 8.06753 10.2588 8.31897C10.0654 8.5704 9.89355 8.86135 9.74316 9.19181C9.59277 9.52227 9.52474 9.90661 9.53906 10.3448V11.0345H11.0859V10.5927Z" fill="#54BBAB"/>
</svg>
