<svg width="28" height="28" viewBox="0 0 28 28" fill="none" xmlns="http://www.w3.org/2000/svg">
<path d="M14 0.00154134C15.2886 0.00154134 16.5283 0.167492 17.7193 0.499394C18.9102 0.831297 20.023 1.29986 21.0578 1.9051C22.0926 2.51033 23.0394 3.24247 23.8985 4.10151C24.7575 4.96055 25.4848 5.90257 26.0803 6.92756C26.6757 7.95255 27.1492 9.07028 27.5006 10.2807C27.852 11.4912 28.018 12.731 27.9985 14C27.9985 15.2886 27.8325 16.5283 27.5006 17.7193C27.1687 18.9102 26.7001 20.023 26.0949 21.0578C25.4897 22.0926 24.7575 23.0394 23.8985 23.8985C23.0394 24.7575 22.0974 25.4848 21.0724 26.0803C20.0475 26.6757 18.9297 27.1492 17.7193 27.5006C16.5088 27.852 15.269 28.018 14 27.9985C12.7114 27.9985 11.4717 27.8325 10.2807 27.5006C9.0898 27.1687 7.97695 26.7001 6.9422 26.0949C5.90745 25.4897 4.96055 24.7575 4.10151 23.8985C3.24247 23.0394 2.51521 22.0974 1.91974 21.0724C1.32427 20.0475 0.85082 18.9297 0.499394 17.7193C0.147969 16.5088 -0.0179823 15.269 0.00154134 14C0.00154134 12.7114 0.167492 11.4717 0.499394 10.2807C0.831297 9.0898 1.29986 7.97695 1.9051 6.9422C2.51033 5.90745 3.24247 4.96055 4.10151 4.10151C4.96055 3.24247 5.90257 2.51521 6.92756 1.91974C7.95255 1.32427 9.07028 0.85082 10.2807 0.499394C11.4912 0.147969 12.731 -0.0179823 14 0.00154134ZM14 26.2413C15.1226 26.2413 16.2062 26.0949 17.2507 25.802C18.2952 25.5092 19.2714 25.0992 20.1792 24.5721C21.0871 24.0449 21.912 23.4055 22.6539 22.6539C23.3958 21.9022 24.0303 21.0773 24.5574 20.1792C25.0846 19.2811 25.4994 18.305 25.802 17.2507C26.1047 16.1964 26.2511 15.1128 26.2413 14C26.2413 12.8774 26.0949 11.7938 25.802 10.7493C25.5092 9.7048 25.0992 8.72861 24.5721 7.82076C24.0449 6.91291 23.4055 6.08804 22.6539 5.34614C21.9022 4.60424 21.0773 3.96972 20.1792 3.44258C19.2811 2.91545 18.305 2.50057 17.2507 2.19795C16.1964 1.89534 15.1128 1.74891 14 1.75867C12.8774 1.75867 11.7938 1.9051 10.7493 2.19795C9.7048 2.49081 8.72861 2.9008 7.82076 3.42794C6.91291 3.95508 6.08804 4.59448 5.34614 5.34614C4.60424 6.0978 3.96972 6.92268 3.44258 7.82076C2.91545 8.71885 2.50057 9.69503 2.19795 10.7493C1.89534 11.8036 1.74891 12.8872 1.75867 14C1.75867 15.1226 1.9051 16.2062 2.19795 17.2507C2.49081 18.2952 2.9008 19.2714 3.42794 20.1792C3.95508 21.0871 4.59448 21.912 5.34614 22.6539C6.0978 23.3958 6.92268 24.0303 7.82076 24.5574C8.71885 25.0846 9.69503 25.4994 10.7493 25.802C11.8036 26.1047 12.8872 26.2511 14 26.2413ZM13.0629 20.5599H14.9371V22.4342H13.0629V20.5599ZM14 6.50292C14.6443 6.50292 15.2495 6.62494 15.8157 6.86899C16.3819 7.11303 16.8749 7.44981 17.2946 7.87933C17.7144 8.30886 18.0512 8.80671 18.305 9.37289C18.5588 9.93908 18.6857 10.5443 18.6857 11.1886C18.6857 11.7743 18.5929 12.2819 18.4075 12.7114C18.222 13.141 17.9926 13.5363 17.7193 13.8975C17.4459 14.2587 17.1433 14.5759 16.8114 14.8493C16.4795 15.1226 16.1818 15.4106 15.9182 15.7132C15.6546 16.0158 15.4203 16.3233 15.2153 16.6357C15.0103 16.9481 14.9176 17.319 14.9371 17.7485V18.6857H13.0629V17.7485C13.0629 17.1628 13.1556 16.6552 13.3411 16.2257C13.5266 15.7962 13.756 15.4008 14.0293 15.0396C14.3026 14.6784 14.6052 14.3612 14.9371 14.0879C15.269 13.8145 15.5668 13.5266 15.8303 13.2239C16.0939 12.9213 16.3282 12.6138 16.5332 12.3014C16.7382 11.9891 16.8309 11.6181 16.8114 11.1886C16.8114 10.7981 16.7382 10.4321 16.5918 10.0904C16.4453 9.74872 16.2452 9.45099 15.9914 9.19718C15.7376 8.94337 15.4399 8.74326 15.0982 8.59683C14.7565 8.4504 14.3905 8.37719 14 8.37719C13.6095 8.37719 13.2435 8.4504 12.9018 8.59683C12.5601 8.74326 12.2624 8.94337 12.0086 9.19718C11.7548 9.45099 11.5547 9.74872 11.4082 10.0904C11.2618 10.4321 11.1886 10.7981 11.1886 11.1886H9.31432C9.31432 10.5443 9.43635 9.93908 9.68039 9.37289C9.92444 8.80671 10.2563 8.31374 10.6761 7.89398C11.0959 7.47422 11.5937 7.13744 12.1697 6.88363C12.7456 6.62982 13.3557 6.50292 14 6.50292Z" fill="#54BBAB"/>
</svg>
