<svg width="24" height="12" viewBox="0 0 24 12" fill="none" xmlns="http://www.w3.org/2000/svg">
<path d="M12 0.000285816C13.1719 0.000285816 14.3125 0.152626 15.4219 0.457306C16.5312 0.761986 17.5938 1.17995 18.6094 1.71118C19.625 2.24242 20.5859 2.87912 21.4922 3.62129C22.3984 4.36346 23.2344 5.15641 24 6.00014C23.2344 6.8595 22.4023 7.65245 21.5039 8.37899C20.6055 9.10554 19.6445 9.73834 18.6211 10.2774C17.5977 10.8164 16.5312 11.2383 15.4219 11.543C14.3125 11.8477 13.1719 12 12 12C10.8281 12 9.6875 11.8477 8.57812 11.543C7.46875 11.2383 6.40625 10.8203 5.39062 10.2891C4.375 9.75787 3.41016 9.12507 2.49609 8.39071C1.58203 7.65635 0.75 6.8595 0 6.00014C0.757812 5.1486 1.58984 4.35565 2.49609 3.62129C3.40234 2.88694 4.36328 2.25414 5.37891 1.7229C6.39453 1.19166 7.46094 0.769799 8.57812 0.457306C9.69531 0.144814 10.8359 -0.0075265 12 0.000285816ZM12 10.2891C12.5938 10.2891 13.1484 10.1758 13.6641 9.94927C14.1797 9.72271 14.6328 9.41803 15.0234 9.03523C15.4141 8.65242 15.7227 8.19931 15.9492 7.67588C16.1758 7.15246 16.2891 6.59388 16.2891 6.00014C16.2891 5.40641 16.1758 4.85173 15.9492 4.33612C15.7227 3.82051 15.418 3.36739 15.0352 2.97678C14.6523 2.58616 14.1992 2.27758 13.6758 2.05102C13.1523 1.82446 12.5938 1.71118 12 1.71118C11.4062 1.71118 10.8516 1.82446 10.3359 2.05102C9.82031 2.27758 9.36719 2.58226 8.97656 2.96506C8.58594 3.34786 8.27734 3.80098 8.05078 4.3244C7.82422 4.84783 7.71094 5.40641 7.71094 6.00014C7.71094 6.59388 7.82422 7.14855 8.05078 7.66417C8.27734 8.17978 8.58203 8.63289 8.96484 9.02351C9.34766 9.41412 9.80078 9.72271 10.3242 9.94927C10.8477 10.1758 11.4062 10.2891 12 10.2891ZM7.60547 9.65631C7.17578 9.14069 6.84766 8.57039 6.62109 7.94541C6.39453 7.32042 6.28125 6.672 6.28125 6.00014C6.28125 5.32828 6.39453 4.67986 6.62109 4.05488C6.84766 3.42989 7.17578 2.85959 7.60547 2.34398C6.55859 2.75803 5.57812 3.27365 4.66406 3.89082C3.75 4.50799 2.88672 5.2111 2.07422 6.00014C2.87891 6.78137 3.73828 7.48058 4.65234 8.09775C5.56641 8.71492 6.55078 9.23444 7.60547 9.65631ZM21.9258 6.00014C21.1211 5.21891 20.2617 4.51971 19.3477 3.90254C18.4336 3.28536 17.4492 2.76584 16.3945 2.34398C16.8242 2.85959 17.1523 3.42989 17.3789 4.05488C17.6055 4.67986 17.7188 5.32828 17.7188 6.00014C17.7188 6.672 17.6055 7.32042 17.3789 7.94541C17.1523 8.57039 16.8242 9.14069 16.3945 9.65631C17.4414 9.24225 18.4219 8.72664 19.3359 8.10947C20.25 7.49229 21.1133 6.78919 21.9258 6.00014ZM12 3.99628C12.2734 3.99628 12.5312 4.04706 12.7734 4.14862C13.0156 4.25018 13.2266 4.39471 13.4062 4.58221C13.5859 4.7697 13.7305 4.98454 13.8398 5.22672C13.9492 5.46891 14.0039 5.72671 14.0039 6.00014C14.0039 6.27357 13.9531 6.53138 13.8516 6.77356C13.75 7.01574 13.6055 7.23058 13.418 7.41808C13.2305 7.60557 13.0156 7.7462 12.7734 7.83994C12.5312 7.93369 12.2734 7.98838 12 8.004C11.7266 8.004 11.4688 7.95322 11.2266 7.85166C10.9844 7.7501 10.7695 7.60557 10.582 7.41808C10.3945 7.23058 10.2539 7.01965 10.1602 6.78528C10.0664 6.55091 10.0117 6.2892 9.99609 6.00014C9.99609 5.72671 10.0469 5.46891 10.1484 5.22672C10.25 4.98454 10.3945 4.77361 10.582 4.59393C10.7695 4.41424 10.9805 4.26972 11.2148 4.16034C11.4492 4.05097 11.7109 3.99628 12 3.99628Z" fill="#54BBAB"/>
</svg>
