<svg width="24" height="18" viewBox="0 0 24 18" fill="none" xmlns="http://www.w3.org/2000/svg">
<path d="M23.999 4.50049V16.4992C23.999 16.7101 23.96 16.9054 23.8818 17.0851C23.8037 17.2647 23.6983 17.421 23.5655 17.5538C23.4327 17.6866 23.2725 17.7959 23.085 17.8818C22.8976 17.9678 22.7023 18.0068 22.4991 17.999H1.50085C1.28993 17.999 1.09464 17.96 0.914965 17.8818C0.735292 17.8037 0.579054 17.6983 0.446253 17.5655C0.313451 17.4327 0.204085 17.2725 0.118154 17.0851C0.0322239 16.8976 -0.00683538 16.7023 0.000976483 16.4992V1.50081C0.000976483 1.2899 0.0400358 1.09461 0.118154 0.91494C0.196273 0.735272 0.301733 0.579039 0.434535 0.446241C0.567337 0.313443 0.72748 0.204079 0.914965 0.118151C1.10245 0.0322231 1.29775 -0.0068352 1.50085 0.000976457H10.1252C10.4142 0.000976457 10.6837 0.0517522 10.9337 0.153304C11.1837 0.254855 11.4102 0.395465 11.6133 0.575133C11.8164 0.754801 12.0039 0.953998 12.1758 1.17272C12.3476 1.39145 12.5039 1.62189 12.6445 1.86406C12.746 2.04372 12.8437 2.20386 12.9374 2.34447C13.0312 2.48508 13.1405 2.60226 13.2655 2.696C13.3905 2.78974 13.5272 2.86395 13.6756 2.91863C13.8241 2.97331 14.0155 3.00065 14.2498 3.00065H22.4991C22.7101 3.00065 22.9054 3.03971 23.085 3.11783C23.2647 3.19594 23.4209 3.3014 23.5537 3.4342C23.6865 3.567 23.7959 3.72713 23.8818 3.91461C23.9678 4.10209 24.0068 4.29739 23.999 4.50049ZM10.1252 1.50081H1.50085V4.50049H10.1252C10.3361 4.50049 10.5118 4.46534 10.6525 4.39503C10.7931 4.32473 10.9298 4.2388 11.0626 4.13725C11.1954 4.0357 11.3282 3.92633 11.461 3.80916C11.5938 3.69198 11.7461 3.58262 11.918 3.48107C11.8008 3.34827 11.6797 3.17251 11.5547 2.95378C11.4297 2.73505 11.2891 2.51633 11.1329 2.2976C10.9766 2.07888 10.8204 1.8914 10.6642 1.73516C10.5079 1.57893 10.3283 1.50081 10.1252 1.50081ZM22.4991 16.4992V4.50049H14.2498C13.8124 4.50049 13.4608 4.53564 13.1952 4.60595C12.9296 4.67625 12.7031 4.76999 12.5156 4.88717C12.3281 5.00434 12.168 5.12542 12.0352 5.25041C11.9024 5.37539 11.7578 5.49647 11.6016 5.61365C11.4454 5.73082 11.2501 5.82066 11.0157 5.88315C10.7813 5.94564 10.4845 5.9847 10.1252 6.00033H1.50085V16.4992H22.4991Z" fill="#54BBAB"/>
</svg>
