<svg width="268" height="426" viewBox="0 0 268 426" fill="none" xmlns="http://www.w3.org/2000/svg">
<path d="M134.285 0H133.677C60.114 0 0.268005 59.826 0.268005 133.361C0.268005 181.563 22.22 245.178 65.514 322.442C97.612 379.723 130.16 423.594 130.486 424.03C131.392 425.247 132.82 425.964 134.333 425.964C134.376 425.964 134.42 425.964 134.463 425.962C136.024 425.919 137.465 425.12 138.331 423.819C138.652 423.333 170.968 374.532 202.848 314.843C245.878 234.28 267.696 173.219 267.696 133.361C267.693 59.825 207.846 0 134.285 0ZM195.865 136.62C195.865 170.744 168.104 198.504 133.98 198.504C99.857 198.504 72.096 170.743 72.096 136.62C72.096 102.497 99.857 74.736 133.98 74.736C168.104 74.736 195.865 102.497 195.865 136.62Z" fill="#E62336"/>
<circle cx="137" cy="137" r="72" fill="#E62336"/>
<path d="M117.302 247.477C118.155 254.615 115.905 256.296 111.691 256.814L107.245 257.357L85.9418 83.7323L90.647 83.1374C94.9645 82.6202 97.1879 83.6547 98.0669 90.8966L117.302 247.477ZM92.1724 65.2396L62.8033 68.8606L88.6564 278.358L118.025 274.763C134.52 272.72 140.931 264.185 138.708 247.037L119.034 86.6808C116.94 69.6882 108.925 63.4033 92.1982 65.3689" fill="#F9FFFF"/>
<path d="M198.135 207.201L200.132 219.221C197.975 219.58 194.986 219.105 186.545 213.615C183.646 211.737 180.897 209.927 177.744 208.184C175.255 206.385 172.428 205.107 169.434 204.428C166.44 203.749 163.34 203.683 160.32 204.233L159.376 204.39C151.151 205.757 146.827 210.315 148.563 220.759L148.825 222.335C150.463 232.194 156.613 234.179 163.4 233.051L171.85 231.647L170.212 221.788L162.706 223.035C159.334 223.595 157.634 222.814 157.148 219.888C156.662 216.962 158.003 215.582 161.374 215.022L162.453 214.843C166.531 214.166 170.711 215.135 174.078 217.537L183.396 222.465C193.546 227.949 198.782 229.16 206.064 227.95L210.558 227.203L205.382 196.051L186.143 199.248L187.797 209.197L198.135 207.201Z" fill="#F9FFFF"/>
<path d="M185.46 168.46C189.46 167.795 191.857 168.877 192.366 171.938C192.875 174.999 190.957 176.798 186.956 177.463L157.649 182.333C153.155 183.08 151.14 181.796 150.653 178.87C150.167 175.944 151.711 173.837 156.116 173.105L185.46 168.46ZM141.409 179.666L141.723 181.557C143.369 191.46 149.361 194.998 159.385 193.332L188.781 188.447C199.12 186.729 203.406 181.391 201.753 171.442L201.453 169.641C199.86 160.053 193.95 156.177 183.702 157.88L154.305 162.766C144.282 164.431 139.726 169.537 141.409 179.666" fill="#F9FFFF"/>
<path d="M160.473 127.601C159.3 126.047 157.677 124.894 155.825 124.299C153.973 123.704 151.983 123.697 150.128 124.278L145.229 125.092C136.868 126.481 133.279 130.455 134.977 140.674L135.134 141.619C136.855 151.973 142.443 153.635 149.77 152.418L155.523 151.461L153.974 142.143L148.94 142.979C145.839 143.495 144.288 142.781 143.817 139.945C143.346 137.109 144.747 135.812 147.668 135.326L153.692 134.326C156.748 133.818 157.789 134.524 158.26 137.36L159.218 143.122L168.208 141.628L167.16 135.326C166.689 132.489 167.543 131.515 170.375 131.044L180.578 129.349C183.77 128.818 185.68 129.75 186.151 132.586C186.622 135.422 185.154 137.146 181.962 137.677L173.917 139.014L175.532 148.738L184.522 147.244C192.074 145.989 197.131 142.234 195.358 131.565L195.089 129.944C195.035 128.057 194.55 126.208 193.673 124.537C192.795 122.866 191.547 121.419 190.024 120.305C188.501 119.192 186.745 118.442 184.888 118.114C183.032 117.785 181.126 117.886 179.315 118.41L167.898 120.307C166.007 120.42 164.222 121.215 162.872 122.545C161.522 123.875 160.699 125.65 160.555 127.541" fill="#F9FFFF"/>
<path d="M172.129 88.2384C176.129 87.5736 178.526 88.6556 179.035 91.7168C179.544 94.778 177.626 96.5771 173.625 97.2419L144.318 102.112C139.824 102.859 137.809 101.575 137.322 98.6486C136.836 95.7225 138.372 93.5705 142.777 92.8385L172.129 88.2384ZM128.086 99.4897L128.4 101.38C130.038 111.239 136.038 114.822 146.061 113.156L175.458 108.271C185.796 106.553 190.082 101.215 188.422 91.2209L188.122 89.4202C186.536 79.8765 180.619 75.9562 170.371 77.6593L140.974 82.5444C130.951 84.2102 126.44 89.5858 128.086 99.4897" fill="#F9FFFF"/>
</svg>
