<svg width="968" height="954" viewBox="0 0 968 954" fill="none" xmlns="http://www.w3.org/2000/svg">
<path fill-rule="evenodd" clip-rule="evenodd" d="M198.515 466.314C220.215 413.314 240.915 375.514 253.615 356.314C256.815 351.514 256.015 344.914 251.415 341.314L185.215 289.614C180.615 286.014 174.015 286.814 170.715 291.614C151.215 319.314 125.715 367.014 101.315 426.614C74.715 491.514 48.315 573.614 31.815 665.114C30.815 670.814 34.615 676.214 40.315 677.214L123.115 691.314C128.815 692.314 134.215 688.414 135.315 682.714C150.315 599.914 174.415 525.214 198.515 466.314Z" fill="#8D5A47" stroke="#0C1424" stroke-width="3.0006"/>
<path fill-rule="evenodd" clip-rule="evenodd" d="M199.515 466.014C220.115 412.114 242.015 374.314 254.415 355.314C257.415 350.814 256.615 344.714 252.515 341.214L195.515 292.014C190.815 287.914 183.715 288.814 180.315 294.014C162.515 322.114 139.015 369.814 116.415 428.914C91.615 494.214 66.415 576.614 50.015 668.114C49.015 673.814 52.815 679.214 58.615 680.214L123.615 691.314C129.115 692.214 134.515 688.614 135.715 683.114C167.615 535.214 176.415 526.414 199.515 466.014Z" fill="#CE947B"/>
<path d="M198.515 466.314C220.215 413.314 240.915 375.514 253.615 356.314C256.815 351.514 256.015 344.914 251.415 341.314L185.215 289.614C180.615 286.014 174.015 286.814 170.715 291.614C151.215 319.314 125.715 367.014 101.315 426.614C74.715 491.514 48.315 573.614 31.815 665.114C30.815 670.814 34.615 676.214 40.315 677.214L123.115 691.314C128.815 692.314 134.215 688.414 135.315 682.714C150.315 599.914 174.415 525.214 198.515 466.314Z" stroke="#0C1424" stroke-width="3.0006"/>
<path d="M476.515 223.215L159.115 44.5146C149.715 39.2146 137.815 42.5146 132.515 51.9146L41.6149 213.415C36.3149 222.815 39.6149 234.715 49.0149 240.015L366.515 418.715C375.915 424.015 387.815 420.715 393.115 411.315L484.015 249.815C489.315 240.315 485.915 228.415 476.515 223.215Z" fill="#686868" stroke="#0C1424" stroke-width="3.0006"/>
<path d="M334.015 228.414C334.015 228.414 329.215 211.414 299.315 204.814" stroke="#0C1424" stroke-width="15.003" stroke-miterlimit="10" stroke-linecap="round" stroke-linejoin="round"/>
<path d="M251.715 207.615C251.715 207.615 232.915 187.115 209.115 192.115" stroke="#0C1424" stroke-width="15.003" stroke-miterlimit="10" stroke-linecap="round" stroke-linejoin="round"/>
<path d="M476.515 223.215L159.115 44.5146C149.715 39.2146 137.815 42.5146 132.515 51.9146L41.6149 213.415C36.3149 222.815 39.6149 234.715 49.0149 240.015L366.515 418.715C375.915 424.015 387.815 420.715 393.115 411.315L484.015 249.815C489.315 240.315 485.915 228.415 476.515 223.215Z" stroke="#0C1424" stroke-width="3.0006"/>
<path d="M358.815 130.615L292.015 91.7147C287.015 88.8147 280.615 90.5147 277.615 95.5147L268.315 111.515C265.415 116.515 267.115 122.915 272.115 125.915L338.915 164.815C343.915 167.715 350.315 166.015 353.315 161.015L362.615 145.015C365.515 140.015 363.815 133.615 358.815 130.615Z" fill="#8D5A47" stroke="#0C1424" stroke-width="3.0006"/>
<path d="M358.815 130.615L302.115 97.7147C297.115 94.8147 290.715 96.5147 287.715 101.515L278.415 117.515C275.515 122.515 277.215 128.915 282.215 131.915L338.915 164.815C343.915 167.715 350.315 166.015 353.315 161.015L362.615 145.015C365.515 140.015 363.815 133.615 358.815 130.615Z" fill="#CE947B"/>
<path d="M358.815 130.615L292.015 91.7147C287.015 88.8147 280.615 90.5147 277.615 95.5147L268.315 111.515C265.415 116.515 267.115 122.915 272.115 125.915L338.915 164.815C343.915 167.715 350.315 166.015 353.315 161.015L362.615 145.015C365.515 140.015 363.815 133.615 358.815 130.615Z" stroke="#0C1424" stroke-width="3.0006"/>
<path d="M284.615 271.315C279.415 268.715 277.315 262.415 280.015 257.215C282.615 252.015 288.915 249.915 294.115 252.615C299.315 255.215 301.415 261.515 298.715 266.715C296.115 271.815 289.815 273.915 284.615 271.315Z" fill="#F9FFFF" stroke="#0C1424" stroke-width="3.0006" stroke-miterlimit="10" stroke-linecap="round" stroke-linejoin="round"/>
<path d="M217.115 237.215C211.915 234.615 209.815 228.315 212.515 223.115C215.115 217.915 221.415 215.815 226.615 218.515C231.815 221.115 233.915 227.415 231.215 232.615C228.615 237.715 222.315 239.815 217.115 237.215Z" fill="#F9FFFF" stroke="#0C1424" stroke-width="3.0006" stroke-miterlimit="10" stroke-linecap="round" stroke-linejoin="round"/>
<path d="M238.615 304.915C232.315 304.415 218.515 301.115 213.915 292.415" stroke="#0C1424" stroke-width="3.0006" stroke-linecap="round"/>
<path d="M258.815 281.615C258.815 281.615 234.115 281.815 221.615 260.015" stroke="#0C1424" stroke-width="3.3096" stroke-miterlimit="10" stroke-linecap="round" stroke-linejoin="round"/>
<g style="mix-blend-mode:multiply">
<path d="M159.115 44.5151C159.115 44.5151 142.315 35.4151 132.515 51.9151C122.715 68.4151 41.6149 213.415 41.6149 213.415C41.6149 213.415 33.7149 230.015 49.0149 240.015C64.3149 250.015 350.815 409.315 350.815 409.315C350.815 409.315 363.515 403.315 378.315 404.415C342.015 391.115 67.4149 233.615 67.4149 233.615C67.4149 233.615 53.2149 226.515 59.5149 211.615C65.8149 196.715 143.615 55.4151 143.615 55.4151C143.615 55.4151 151.515 44.7151 159.115 44.5151Z" fill="#C4C4C4"/>
</g>
<g clip-path="url(#clip0)">
<path d="M681.115 814.616L465.015 909.916C452.715 915.316 438.515 909.816 433.015 897.516L280.415 551.516C275.015 539.216 280.515 525.016 292.815 519.516L508.915 424.216C521.215 418.816 535.415 424.316 540.915 436.616L693.615 782.716C698.915 794.916 693.315 809.216 681.115 814.616Z" fill="#BEBDBB" stroke="#0C1424" stroke-width="3.1896" stroke-miterlimit="10"/>
<path d="M645.115 766.817L454.715 850.817C444.815 855.217 433.315 850.717 429.015 840.817L315.715 584.017C311.315 574.117 315.815 562.617 325.715 558.317L516.115 474.317C526.015 469.917 537.515 474.417 541.815 484.317L655.115 741.117C659.515 750.917 655.015 762.417 645.115 766.817Z" fill="#CBCCE7" stroke="#0C1424" stroke-width="3.1896" stroke-miterlimit="10"/>
<path d="M392.515 513.116L470.615 478.716" stroke="#0C1424" stroke-width="3.1896" stroke-miterlimit="10" stroke-linecap="round"/>
<path d="M567.315 847.316C575.215 843.816 578.715 834.716 575.315 826.816C571.815 818.916 562.715 815.416 554.815 818.916C546.915 822.416 543.415 831.516 546.815 839.416C550.315 847.216 559.515 850.816 567.315 847.316Z" stroke="#0C1424" stroke-width="3.1896" stroke-miterlimit="10"/>
<path d="M371.415 527.616C374.015 526.416 375.215 523.416 374.115 520.816C372.915 518.216 369.915 517.016 367.315 518.116C364.715 519.316 363.515 522.316 364.715 524.916C365.715 527.616 368.815 528.816 371.415 527.616Z" fill="#0C1424" stroke="#0C1424" stroke-width="3.1896" stroke-miterlimit="10"/>
<path d="M408.615 489.416C411.615 488.116 413.015 484.516 411.715 481.516C410.415 478.516 406.815 477.116 403.815 478.416C400.815 479.716 399.415 483.316 400.715 486.316C402.015 489.416 405.615 490.716 408.615 489.416Z" fill="#0C1424" stroke="#0C1424" stroke-width="3.1896" stroke-miterlimit="10"/>
<path fill-rule="evenodd" clip-rule="evenodd" d="M331.615 618.716L393.315 528.016L461.815 498.616L353.515 669.616L331.615 618.716Z" fill="#F9FFFF" stroke="#0C1424" stroke-width="3.1896"/>
<path fill-rule="evenodd" clip-rule="evenodd" d="M361.415 688.116L483.015 489.416L509.415 478.116L370.015 708.116L361.415 688.116Z" fill="#F9FFFF" stroke="#0C1424" stroke-width="3.1896"/>
<path d="M521.115 690.916C521.115 690.916 534.415 667.016 555.715 682.416" stroke="#0C1424" stroke-width="3.1896" stroke-miterlimit="10" stroke-linecap="round" stroke-linejoin="round"/>
<path d="M457.715 730.216C457.715 730.216 461.215 702.516 486.515 709.816" stroke="#0C1424" stroke-width="3.1896" stroke-miterlimit="10" stroke-linecap="round" stroke-linejoin="round"/>
<path d="M489.415 752.816C494.415 750.616 496.715 744.716 494.515 739.716C492.315 734.716 486.415 732.416 481.415 734.616C476.415 736.816 474.115 742.716 476.315 747.716C478.415 752.716 484.315 755.016 489.415 752.816Z" fill="#F9FFFF" stroke="#0C1424" stroke-width="3.1896" stroke-miterlimit="10" stroke-linecap="round" stroke-linejoin="round"/>
<path d="M555.015 723.816C560.015 721.616 562.315 715.716 560.115 710.716C557.915 705.716 552.015 703.416 547.015 705.616C542.015 707.816 539.715 713.716 541.915 718.716C544.115 723.816 550.015 726.116 555.015 723.816Z" fill="#F9FFFF" stroke="#0C1424" stroke-width="3.1896" stroke-miterlimit="10" stroke-linecap="round" stroke-linejoin="round"/>
<path d="M538.415 772.416C530.615 775.016 521.715 775.816 509.215 775.316C503.715 775.116 499.515 770.516 499.815 765.216C500.115 759.916 504.915 755.716 510.415 755.916C530.915 756.616 536.115 754.716 549.915 741.716C553.915 737.916 560.315 737.916 564.115 741.716C567.915 745.516 567.715 751.716 563.715 755.416C554.415 764.216 547.115 769.516 538.415 772.416Z" fill="#F9FFFF" stroke="#0C1424" stroke-width="2.5738" stroke-miterlimit="10" stroke-linecap="round" stroke-linejoin="round"/>
<path d="M513.215 756.517L513.715 776.017" stroke="#0C1424" stroke-width="2.5738"/>
<path d="M546.715 745.216L558.215 761.016" stroke="#0C1424" stroke-width="2.5738"/>
<path d="M526.615 756.116L529.515 774.816" stroke="#0C1424" stroke-width="2.5738"/>
<path d="M537.015 752.616L546.015 769.216" stroke="#0C1424" stroke-width="2.5738"/>
<path d="M558.015 490.914L522.915 397.814L622.415 396.814L992.815 650.314L928.415 744.414L558.015 490.914Z" fill="#FFED00" stroke="#0C1424" stroke-width="3.0006" stroke-linecap="round" stroke-linejoin="round"/>
<path d="M522.915 397.815L557.815 490.815C566.415 488.015 582.615 477.815 579.015 459.815C597.515 448.915 632.915 418.315 622.215 396.715L522.915 397.815Z" fill="#F2B782" stroke="#0C1424" stroke-width="3.0006" stroke-linecap="round" stroke-linejoin="round"/>
<path d="M523.015 397.715L533.215 424.815C551.215 426.915 558.115 422.315 561.115 397.515L523.015 397.715Z" fill="#0C1424" stroke="#0C1424" stroke-width="3.0006" stroke-linecap="round" stroke-linejoin="round"/>
<path d="M921.515 725.215L972.315 650.915C976.015 645.415 983.515 644.015 989.015 647.815L1037.92 681.315C1043.42 685.015 1044.82 692.515 1041.02 698.015L990.215 772.315C986.515 777.815 979.015 779.215 973.515 775.415L924.615 741.915C919.115 738.115 917.815 730.715 921.515 725.215Z" fill="#E62336" stroke="#0C1424" stroke-width="3.0006" stroke-linecap="round" stroke-linejoin="round"/>
<path d="M895.315 720.914L958.915 628.015C961.515 624.215 966.615 623.314 970.415 625.914C974.215 628.514 975.115 633.614 972.515 637.414L908.915 730.314C906.315 734.114 901.215 735.014 897.415 732.414C893.715 729.814 892.815 724.714 895.315 720.914Z" fill="#CAC7C6" stroke="#0C1424" stroke-width="3.0006" stroke-linecap="round" stroke-linejoin="round"/>
<path d="M908.515 730.914L972.915 636.814C975.215 633.414 979.915 632.514 983.315 634.814C986.715 637.114 987.615 641.814 985.315 645.214L920.915 739.314C918.615 742.714 913.915 743.614 910.515 741.314C907.115 738.914 906.215 734.314 908.515 730.914Z" fill="#CAC7C6" stroke="#0C1424" stroke-width="3.0006" stroke-linecap="round" stroke-linejoin="round"/>
<g style="mix-blend-mode:multiply">
<path d="M612.615 411.014L522.915 397.814L622.415 396.814L959.015 627.314L949.315 641.514L612.615 411.014Z" fill="#C4C4C4"/>
</g>
<path d="M656.115 522.415C659.015 518.115 657.915 512.315 653.715 509.415C649.415 506.515 643.615 507.615 640.715 511.815C637.815 516.115 638.915 521.915 643.115 524.815C647.415 527.815 653.215 526.715 656.115 522.415Z" fill="#F9FFFF" stroke="#0C1424" stroke-width="3.0006" stroke-miterlimit="10" stroke-linecap="round" stroke-linejoin="round"/>
<path d="M694.315 466.714C697.215 462.414 696.115 456.614 691.915 453.714C687.615 450.814 681.815 451.914 678.915 456.114C676.015 460.414 677.115 466.214 681.315 469.114C685.515 472.114 691.315 471.014 694.315 466.714Z" fill="#F9FFFF" stroke="#0C1424" stroke-width="3.0006" stroke-miterlimit="10" stroke-linecap="round" stroke-linejoin="round"/>
<path fill-rule="evenodd" clip-rule="evenodd" d="M654.315 543.515C652.615 545.015 652.715 547.815 654.615 549.015C671.715 560.415 695.015 559.315 711.015 544.915C727.015 530.515 730.615 507.415 721.015 489.215C719.915 487.215 717.215 486.815 715.515 488.415L654.315 543.515Z" fill="#0C1424"/>
<path d="M715.515 488.415L654.315 543.615C652.615 545.115 652.715 547.915 654.615 549.115C655.715 549.815 656.815 550.515 658.015 551.115C659.315 551.815 661.015 551.615 662.115 550.615L721.815 496.815C722.915 495.815 723.315 494.215 722.815 492.815C722.315 491.615 721.715 490.415 721.115 489.215C719.915 487.215 717.215 486.915 715.515 488.415Z" fill="#F9FFFF" stroke="#0C1424" stroke-width="3.0006"/>
<path d="M751.715 507.315C761.015 505.515 770.115 512.515 772.115 523.015C774.115 533.415 768.215 543.415 758.915 545.115C749.615 546.915 716.715 532.515 714.715 522.115C712.815 511.615 742.415 509.015 751.715 507.315Z" fill="#E62336" stroke="#0C1424" stroke-width="3.0006"/>
<path d="M716.015 521.115C723.815 524.015 742.015 529.415 752.615 527.415" stroke="#0C1424" stroke-width="3.0006" stroke-linecap="round"/>
<g style="mix-blend-mode:multiply">
<path d="M1037.91 681.315L989.015 647.815L985.315 645.315C987.615 641.915 986.815 637.215 983.315 634.915C979.915 632.615 975.215 633.415 972.915 636.915C975.015 633.215 973.915 628.515 970.415 626.115C966.815 623.715 962.115 624.415 959.415 627.715L959.115 627.515L622.415 396.815H622.315C622.315 396.815 622.315 396.715 622.215 396.715L534.115 397.715H523.015V397.815H522.915L534.115 427.715C527.315 422.115 517.615 420.415 508.915 424.215L292.815 519.615C280.515 525.015 275.015 539.315 280.415 551.615L433.015 897.615C438.415 909.915 452.715 915.415 465.015 910.015L681.115 814.615C693.315 809.215 698.915 794.915 693.615 782.815L567.815 497.615L895.015 721.615C892.915 725.315 894.015 730.015 897.515 732.415C901.115 734.815 905.815 734.115 908.515 730.815C906.215 734.215 907.015 738.915 910.515 741.215C913.915 743.515 918.615 742.715 920.915 739.215L924.515 741.715C924.515 741.715 924.515 741.715 924.615 741.815L973.515 775.315C979.015 779.015 986.415 777.615 990.215 772.215L1041.01 697.915C1044.81 692.515 1043.41 685.015 1037.91 681.315Z" fill="#C4C4C4"/>
</g>
<path d="M952.415 557.715L721.015 510.215C707.815 507.515 699.415 494.715 702.115 481.615L778.115 111.215C780.815 98.1149 793.615 89.6148 806.715 92.3148L1038.11 139.815C1051.32 142.515 1059.72 155.315 1057.02 168.415L981.015 539.015C978.415 552.015 965.515 560.415 952.415 557.715Z" fill="#BEBDBB" stroke="#0C1424" stroke-width="3.1896" stroke-miterlimit="10"/>
<path d="M950.815 498.015L746.915 456.215C736.315 454.015 717.015 443.415 719.215 432.815L788.115 158.115C790.315 147.515 800.615 140.715 811.215 142.915L1015.12 184.715C1025.72 186.915 1032.52 197.215 1030.32 207.715L973.915 482.715C971.715 493.415 961.415 500.115 950.815 498.015Z" fill="#CBCCE7" stroke="#0C1424" stroke-width="3.1896" stroke-miterlimit="10"/>
<path d="M891.815 144.814L975.415 161.914" stroke="#0C1424" stroke-width="3.1896" stroke-miterlimit="10" stroke-linecap="round"/>
<path d="M840.815 518.515C849.215 520.215 857.415 514.815 859.215 506.415C860.915 498.015 855.515 489.815 847.115 488.015C838.715 486.315 830.515 491.715 828.715 500.115C826.915 508.615 832.315 516.815 840.815 518.515Z" stroke="#0C1424" stroke-width="3.1896" stroke-miterlimit="10"/>
<path d="M866.215 144.415C869.015 145.015 871.715 143.215 872.315 140.415C872.915 137.615 871.115 134.915 868.315 134.315C865.515 133.715 862.815 135.515 862.215 138.315C861.615 141.115 863.415 143.915 866.215 144.415Z" fill="#0C1424" stroke="#0C1424" stroke-width="3.1896" stroke-miterlimit="10"/>
<path d="M918.615 134.814C921.815 135.514 925.015 133.414 925.715 130.114C926.415 126.914 924.315 123.714 921.015 123.014C917.815 122.314 914.615 124.414 913.915 127.714C913.315 131.014 915.415 134.214 918.615 134.814Z" fill="#0C1424" stroke="#0C1424" stroke-width="3.1896" stroke-miterlimit="10"/>
<path fill-rule="evenodd" clip-rule="evenodd" d="M981.315 444.715L878.815 483.915L805.815 468.915L992.415 390.415L981.315 444.715Z" fill="#F9FFFF" stroke="#0C1424" stroke-width="3.1896"/>
<path fill-rule="evenodd" clip-rule="evenodd" d="M996.415 370.715L783.115 464.315L755.015 458.515L1000.82 349.415L996.415 370.715Z" fill="#F9FFFF" stroke="#0C1424" stroke-width="3.1896"/>
<path d="M922.015 207.515C922.015 207.515 952.415 201.015 965.115 229.115" stroke="#0C1424" stroke-width="3.1896" stroke-miterlimit="10" stroke-linecap="round" stroke-linejoin="round"/>
<path d="M831.415 204.115C831.415 204.115 854.515 183.315 879.515 201.215" stroke="#0C1424" stroke-width="3.1896" stroke-miterlimit="10" stroke-linecap="round" stroke-linejoin="round"/>
<path d="M856.615 246.715C862.015 247.815 867.315 244.315 868.415 238.915C869.515 233.515 866.015 228.215 860.615 227.115C855.215 226.015 849.915 229.515 848.815 234.915C847.815 240.315 851.215 245.615 856.615 246.715Z" fill="#F9FFFF" stroke="#0C1424" stroke-width="3.1896" stroke-miterlimit="10" stroke-linecap="round" stroke-linejoin="round"/>
<path d="M926.915 261.115C932.315 262.215 937.615 258.715 938.715 253.315C939.815 247.915 936.315 242.615 930.915 241.515C925.515 240.415 920.215 243.915 919.115 249.315C918.115 254.715 921.515 260.015 926.915 261.115Z" fill="#F9FFFF" stroke="#0C1424" stroke-width="3.1896" stroke-miterlimit="10" stroke-linecap="round" stroke-linejoin="round"/>
<path d="M874.115 275.715C876.915 278.815 886.215 285.015 901.615 285.115" stroke="#0C1424" stroke-width="3.1896" stroke-linecap="round" stroke-linejoin="round"/>
<path d="M876.215 267.814C876.015 270.714 874.015 277.014 866.815 279.314" stroke="#0C1424" stroke-width="3.1896" stroke-linecap="round" stroke-linejoin="round"/>
<path d="M411.515 348.316C413.615 347.116 416.015 346.616 418.215 346.716L412.115 333.816C409.315 327.916 411.815 320.716 417.815 317.916C421.515 316.116 425.715 316.516 429.015 318.416L424.615 310.416C421.715 305.216 424.915 295.116 430.215 292.216C435.515 289.316 442.115 291.216 445.015 296.416L460.815 335.116L447.715 302.116C445.715 297.016 448.215 291.316 453.315 289.416C458.415 287.416 464.115 289.916 466.015 295.016L473.615 314.416C475.115 317.616 480.515 328.016 482.015 328.416L486.615 320.116C488.115 314.916 492.515 310.016 499.815 312.116C507.215 314.216 506.415 323.616 504.915 328.816L502.215 341.916C503.715 344.316 504.315 344.416 505.715 347.316L677.715 361.216C700.215 363.616 716.415 383.716 714.015 406.216C711.615 428.716 691.515 444.916 669.015 442.516L489.115 422.316C487.615 422.116 486.215 421.916 484.815 421.616C481.215 422.116 441.415 426.716 425.015 393.016C423.515 392.016 422.215 390.716 421.315 389.116L407.115 364.616C403.815 358.916 405.815 351.616 411.515 348.316Z" fill="#EEB9A6" stroke="#0C1424" stroke-width="3" stroke-miterlimit="10" stroke-linecap="round" stroke-linejoin="round"/>
<path d="M512.115 348.016L677.615 361.216C700.115 363.616 716.315 383.716 713.915 406.216C711.515 428.716 691.415 444.916 668.915 442.516L492.915 423.116C503.015 415.516 516.715 362.216 512.115 348.016Z" fill="#54BBAB" stroke="#0C1424" stroke-width="3" stroke-miterlimit="10" stroke-linecap="round" stroke-linejoin="round"/>
<path d="M632.115 387.816L639.015 558.216L857.315 537.716L774.315 362.616L722.515 339.516L632.115 387.816Z" fill="#54BBAB" stroke="#0C1424" stroke-width="3.0006" stroke-miterlimit="10" stroke-linecap="round" stroke-linejoin="round"/>
<path d="M194.515 950.216C192.115 949.616 189.815 948.916 187.515 948.016C161.815 937.816 152.515 914.616 162.715 889.016L198.015 786.316L200.315 707.416C201.115 680.616 222.915 659.216 249.715 658.916L339.215 657.916C350.915 657.816 362.315 661.716 371.415 669.216L442.715 727.416C462.015 743.216 466.815 770.816 453.815 792.116L385.615 869.016C371.215 892.616 356.515 895.316 332.915 880.916C309.315 866.516 298.415 855.016 312.815 831.416L356.715 765.316L316.815 734.616L293.415 734.916L297.615 798.016C297.415 803.816 296.215 809.616 294.115 815.016L252.315 920.016C243.115 943.316 218.215 955.816 194.515 950.216Z" fill="#54BBAB" stroke="#0C1424" stroke-width="3.0006" stroke-miterlimit="10" stroke-linecap="round" stroke-linejoin="round"/>
<path fill-rule="evenodd" clip-rule="evenodd" d="M749.515 807.416C740.015 751.016 728.115 709.516 719.915 687.916C717.815 682.516 720.115 676.216 725.315 673.716L801.315 637.816C806.515 635.316 812.815 637.516 815.015 642.916C827.915 674.116 842.315 726.416 853.015 789.916C864.715 859.016 872.515 944.916 868.515 1037.82C868.215 1043.62 863.315 1048.02 857.515 1047.72L773.615 1043.32C767.815 1043.02 763.415 1038.12 763.615 1032.32C767.215 948.316 760.015 870.216 749.515 807.416Z" fill="#8D5A47" stroke="#0C1424" stroke-width="3.0006"/>
<path fill-rule="evenodd" clip-rule="evenodd" d="M748.615 806.915C740.315 749.815 727.315 708.115 719.315 686.915C717.415 681.815 719.515 676.115 724.215 673.515L790.615 638.015C796.115 635.115 802.915 637.515 804.915 643.315C816.115 674.615 828.515 726.315 837.615 788.915C847.615 858.015 854.115 943.915 850.015 1036.82C849.715 1042.62 844.815 1047.12 839.015 1046.72L773.115 1043.22C767.515 1042.92 763.115 1038.12 763.115 1032.52C764.615 881.415 757.915 870.915 748.615 806.915Z" fill="#C48772"/>
<path d="M749.515 807.416C740.015 751.016 728.115 709.516 719.915 687.916C717.815 682.516 720.115 676.216 725.315 673.716L801.315 637.816C806.515 635.316 812.815 637.516 815.015 642.916C827.915 674.116 842.315 726.416 853.015 789.916C864.715 859.016 872.515 944.916 868.515 1037.82C868.215 1043.62 863.315 1048.02 857.515 1047.72L773.615 1043.32C767.815 1043.02 763.415 1038.12 763.615 1032.32C767.215 948.316 760.015 870.216 749.515 807.416Z" stroke="#0C1424" stroke-width="3.0006"/>
<path d="M531.615 509.115L880.515 404.515C890.815 401.415 901.715 407.315 904.815 417.615L958.015 595.115C961.115 605.415 955.215 616.315 944.915 619.415L596.015 724.016C585.715 727.116 574.815 721.215 571.715 710.915L518.515 533.415C515.415 523.115 521.315 512.215 531.615 509.115Z" fill="#686868" stroke="#0C1424" stroke-width="3.0006"/>
<path d="M637.815 581.715C637.815 581.715 646.315 566.115 676.815 566.315" stroke="#0C1424" stroke-width="15.003" stroke-miterlimit="10" stroke-linecap="round" stroke-linejoin="round"/>
<path d="M720.315 558.616C720.315 558.616 743.115 542.816 765.315 552.816" stroke="#0C1424" stroke-width="15.003" stroke-miterlimit="10" stroke-linecap="round" stroke-linejoin="round"/>
<path d="M531.615 509.115L880.515 404.515C890.815 401.415 901.715 407.315 904.815 417.615L958.015 595.115C961.115 605.415 955.215 616.315 944.915 619.415L596.015 724.016C585.715 727.116 574.815 721.215 571.715 710.915L518.515 533.415C515.415 523.115 521.315 512.215 531.615 509.115Z" stroke="#0C1424" stroke-width="3.0006"/>
<path d="M666.815 444.715L740.515 421.515C746.015 419.815 751.915 422.815 753.715 428.415L759.315 446.015C761.015 451.515 758.015 457.415 752.415 459.215L678.715 482.415C673.215 484.115 667.315 481.115 665.515 475.515L659.915 457.915C658.215 452.415 661.315 446.515 666.815 444.715Z" fill="#8D5A47" stroke="#0C1424" stroke-width="3.0006"/>
<path d="M666.815 444.715L729.315 425.015C734.815 423.315 740.715 426.315 742.515 431.915L748.115 449.515C749.815 455.015 746.815 460.915 741.215 462.715L678.715 482.415C673.215 484.115 667.315 481.115 665.515 475.515L659.915 457.915C658.215 452.415 661.315 446.515 666.815 444.715Z" fill="#C48772"/>
<path d="M666.815 444.715L740.515 421.515C746.015 419.815 751.915 422.815 753.715 428.415L759.315 446.015C761.015 451.515 758.015 457.415 752.415 459.215L678.715 482.415C673.215 484.115 667.315 481.115 665.515 475.515L659.915 457.915C658.215 452.415 661.315 446.515 666.815 444.715Z" stroke="#0C1424" stroke-width="3.0006"/>
<path d="M674.215 613.616C679.815 612.216 683.215 606.516 681.815 600.916C680.415 595.316 674.715 591.916 669.115 593.316C663.515 594.716 660.115 600.416 661.515 606.016C662.915 611.616 668.615 615.016 674.215 613.616Z" fill="#F9FFFF" stroke="#0C1424" stroke-width="3.0006" stroke-miterlimit="10" stroke-linecap="round" stroke-linejoin="round"/>
<path d="M747.515 595.116C753.115 593.716 756.515 588.016 755.115 582.416C753.715 576.816 748.015 573.416 742.415 574.816C736.815 576.216 733.415 581.916 734.815 587.516C736.215 593.116 741.915 596.516 747.515 595.116Z" fill="#F9FFFF" stroke="#0C1424" stroke-width="3.0006" stroke-miterlimit="10" stroke-linecap="round" stroke-linejoin="round"/>
<path d="M711.715 656.516C718.015 657.416 732.215 657.216 738.615 649.716" stroke="#0C1424" stroke-width="3.0006" stroke-linecap="round"/>
<path d="M688.015 638.416C688.015 638.416 700.815 631.216 694.715 619.516" stroke="#0C1424" stroke-width="3.3096" stroke-miterlimit="10" stroke-linecap="round" stroke-linejoin="round"/>
<path d="M736.415 603.815C736.415 603.815 731.515 621.815 751.715 618.415" stroke="#0C1424" stroke-width="3.3096" stroke-miterlimit="10" stroke-linecap="round" stroke-linejoin="round"/>
<path d="M707.715 630.715L709.015 636.315C709.715 638.715 712.615 639.915 715.615 639.115C718.615 638.315 720.415 635.715 719.815 633.315L718.715 629.115" fill="#F9FFFF"/>
<path d="M707.715 630.715L709.015 636.315C709.715 638.715 712.615 639.915 715.615 639.115C718.615 638.315 720.415 635.715 719.815 633.315L718.715 629.115" stroke="#0C1424" stroke-width="2.2681" stroke-miterlimit="10"/>
<path d="M718.515 628.915L719.715 633.215C720.415 635.615 723.315 636.815 726.315 636.015C729.315 635.215 731.115 632.615 730.515 630.215L729.215 624.615" fill="#F9FFFF"/>
<path d="M718.515 628.915L719.715 633.215C720.415 635.615 723.315 636.815 726.315 636.015C729.315 635.215 731.115 632.615 730.515 630.215L729.215 624.615" stroke="#0C1424" stroke-width="2.2681" stroke-miterlimit="10"/>
<path d="M697.115 629.315C697.115 629.315 721.115 634.915 738.115 616.415" stroke="#0C1424" stroke-width="3.3096" stroke-miterlimit="10" stroke-linecap="round" stroke-linejoin="round"/>
<g style="mix-blend-mode:multiply">
<path d="M958.115 595.115C958.115 595.115 909.915 434.115 904.915 417.615C899.915 401.115 880.615 404.515 880.615 404.515L841.115 416.715C841.115 416.715 843.415 424.415 847.215 436.615L805.115 378.915C801.615 374.215 797.515 370.015 792.615 366.715C783.615 360.515 768.415 352.815 752.215 356.415L774.015 436.315L788.715 475.815L752.315 487.715C708.115 461.415 667.215 511.315 667.215 511.315C663.815 514.515 663.715 519.915 666.915 523.415C669.715 526.415 673.915 527.015 677.315 525.215L674.115 527.815C670.415 531.315 670.115 537.215 673.615 541.015C677.115 544.715 682.915 544.915 686.715 541.415C686.715 541.415 696.415 532.315 701.615 527.415C695.815 532.915 684.615 543.615 684.615 543.615C680.515 547.515 679.415 553.215 684.015 558.015C690.015 564.215 695.415 561.015 710.315 547.115C704.515 552.615 696.615 560.015 696.615 560.015C692.515 563.915 692.315 570.315 696.015 574.415C699.815 578.515 706.215 578.715 710.315 574.915L723.215 562.815C741.915 570.015 756.915 563.415 766.715 555.715C768.915 555.415 771.115 555.015 773.315 554.215L856.015 527.215C862.215 525.215 867.515 521.515 871.515 516.915C884.315 558.715 896.815 599.415 899.415 607.015C905.015 623.515 887.815 628.115 887.815 628.115C887.815 628.115 601.015 716.015 594.015 718.115C587.015 720.215 582.415 718.115 571.815 711.015C577.715 728.515 596.115 724.115 596.115 724.115C596.115 724.115 928.215 625.315 945.015 619.515C961.915 613.615 958.115 595.115 958.115 595.115Z" fill="#C4C4C4"/>
</g>
<path d="M791.415 369.715L863.215 464.015C864.215 465.415 865.115 466.815 865.915 468.215C866.015 468.415 866.215 468.715 866.315 468.915C866.615 469.415 866.815 469.915 867.115 470.415C867.815 471.815 868.415 473.315 868.915 474.815C874.715 493.215 864.615 512.915 846.315 518.915L763.615 545.915C761.415 546.615 759.215 547.115 757.015 547.415C747.115 555.215 731.915 561.915 712.915 554.315C703.715 552.515 696.415 527.515 687.115 509.115L684.215 503.415L669.115 515.615C665.715 518.815 660.415 518.515 657.115 515.015C653.915 511.515 654.015 506.115 657.415 502.915C657.415 502.915 698.315 453.115 742.515 479.315L778.915 467.415L764.515 428.015" fill="#EEB9A6"/>
<path d="M791.415 369.715L863.215 464.015C864.215 465.415 865.115 466.815 865.915 468.215C866.015 468.415 866.215 468.715 866.315 468.915C866.615 469.415 866.815 469.915 867.115 470.415C867.815 471.815 868.415 473.315 868.915 474.815C874.715 493.215 864.615 512.915 846.315 518.915L763.615 545.915C761.415 546.615 759.215 547.115 757.015 547.415C747.115 555.215 731.915 561.915 712.915 554.315C703.715 552.515 696.415 527.515 687.115 509.115L684.215 503.415L669.115 515.615C665.715 518.815 660.415 518.515 657.115 515.015C653.915 511.515 654.015 506.115 657.415 502.915C657.415 502.915 698.315 453.115 742.515 479.315L778.915 467.415L764.515 428.015" stroke="#0C1424" stroke-width="3.0006" stroke-miterlimit="10" stroke-linecap="round" stroke-linejoin="round"/>
<path d="M764.215 428.115L778.915 467.615L742.515 479.515C761.915 493.815 768.715 520.315 756.915 547.515C759.115 547.215 761.315 546.815 763.515 546.015L846.215 519.015C864.515 513.015 874.615 493.315 868.815 474.915C868.315 473.415 867.715 471.915 867.015 470.515C866.815 470.015 866.515 469.515 866.215 469.015C866.115 468.815 865.915 468.515 865.815 468.315C865.015 466.815 864.215 465.415 863.115 464.115L795.115 370.915C791.615 366.215 787.515 362.015 782.615 358.715C773.615 352.515 758.415 344.815 742.215 348.415" fill="#54BBAB"/>
<path d="M764.215 428.115L778.915 467.615L742.515 479.515C761.915 493.815 768.715 520.315 756.915 547.515C759.115 547.215 761.315 546.815 763.515 546.015L846.215 519.015C864.515 513.015 874.615 493.315 868.815 474.915C868.315 473.415 867.715 471.915 867.015 470.515C866.815 470.015 866.515 469.515 866.215 469.015C866.115 468.815 865.915 468.515 865.815 468.315C865.015 466.815 864.215 465.415 863.115 464.115L795.115 370.915C791.615 366.215 787.515 362.015 782.615 358.715C773.615 352.515 758.415 344.815 742.215 348.415" stroke="#0C1424" stroke-width="3.0006" stroke-miterlimit="10" stroke-linecap="round" stroke-linejoin="round"/>
<path d="M825.315 452.515L742.615 479.515" stroke="#0C1424" stroke-width="3.0006" stroke-miterlimit="10" stroke-linecap="round" stroke-linejoin="round"/>
<path d="M685.815 502.015L664.215 519.615C660.515 523.115 660.215 529.015 663.715 532.815C667.215 536.515 673.015 536.715 676.815 533.215C676.815 533.215 691.815 519.115 694.515 516.615C691.315 519.615 674.715 535.515 674.715 535.515C670.615 539.415 669.515 545.115 674.115 549.915C680.915 556.815 686.815 551.915 706.415 533.315C705.715 534.015 686.715 551.915 686.715 551.915C682.615 555.815 682.415 562.215 686.115 566.315C689.915 570.415 696.315 570.615 700.415 566.815L718.015 550.215" fill="#EEB9A6"/>
<path d="M685.815 502.015L664.215 519.615C660.515 523.115 660.215 529.015 663.715 532.815C667.215 536.515 673.015 536.715 676.815 533.215C676.815 533.215 691.815 519.115 694.515 516.615C691.315 519.615 674.715 535.515 674.715 535.515C670.615 539.415 669.515 545.115 674.115 549.915C680.915 556.815 686.815 551.915 706.415 533.315C705.715 534.015 686.715 551.915 686.715 551.915C682.615 555.815 682.415 562.215 686.115 566.315C689.915 570.415 696.315 570.615 700.415 566.815L718.015 550.215" stroke="#0C1424" stroke-width="3.0006" stroke-miterlimit="10" stroke-linecap="round" stroke-linejoin="round"/>
<path d="M822.715 190.915C791.515 127.115 744.015 144.615 724.215 161.315C677.515 223.215 779.015 279.315 806.815 308.215C834.615 337.115 886.915 320.915 870.315 305.715C834.515 296.515 832.815 220.615 822.715 190.915Z" fill="#CE947B" stroke="#0C1424" stroke-width="3" stroke-miterlimit="10" stroke-linecap="round" stroke-linejoin="round"/>
<path d="M565.715 329.715C558.515 311.615 563.315 292.615 576.515 287.415C589.715 282.115 606.215 292.615 613.415 310.715C620.615 328.815 615.815 347.815 602.615 353.015C589.515 358.315 573.015 347.915 565.715 329.715Z" fill="#EEB9A6" stroke="#0C1424" stroke-width="3" stroke-miterlimit="10" stroke-linecap="round" stroke-linejoin="round"/>
<path d="M663.515 393.414C606.215 395.014 581.415 362.314 572.415 305.614C563.415 248.914 549.915 215.214 658.615 186.614C715.315 177.614 768.515 216.314 777.515 273.014C773.215 337.214 706.815 392.114 663.515 393.414Z" fill="#EEB9A6" stroke="#0C1424" stroke-width="3" stroke-miterlimit="10" stroke-linecap="round" stroke-linejoin="round"/>
<path d="M672.415 302.115C667.315 302.915 662.515 299.415 661.715 294.315C660.915 289.215 664.415 284.415 669.515 283.615C674.615 282.815 679.415 286.315 680.215 291.415C681.015 296.515 677.515 301.315 672.415 302.115Z" fill="#F9FFFF" stroke="#0C1424" stroke-width="3" stroke-miterlimit="10" stroke-linecap="round" stroke-linejoin="round"/>
<path d="M611.515 312.115C606.415 312.915 601.615 309.415 600.815 304.315C600.015 299.215 603.515 294.415 608.615 293.615C613.715 292.815 618.515 296.315 619.315 301.415C620.115 306.415 616.615 311.215 611.515 312.115Z" fill="#F9FFFF" stroke="#0C1424" stroke-width="3" stroke-miterlimit="10" stroke-linecap="round" stroke-linejoin="round"/>
<path d="M696.315 267.915C696.315 267.915 673.315 249.215 655.215 266.215" stroke="#0C1424" stroke-width="3" stroke-miterlimit="10" stroke-linecap="round" stroke-linejoin="round"/>
<path d="M620.915 271.614C620.915 271.614 599.815 260.614 586.715 286.414" stroke="#0C1424" stroke-width="3" stroke-miterlimit="10" stroke-linecap="round" stroke-linejoin="round"/>
<path d="M581.215 195.415C615.615 168.815 724.315 128.615 756.015 197.115C783.115 197.315 780.615 280.515 779.215 292.015C777.115 297.215 752.915 294.215 742.315 294.615C731.715 295.015 726.515 289.115 726.515 285.415C725.315 235.915 721.215 223.115 700.715 218.115C698.715 227.315 716.215 235.515 706.315 237.115C695.615 238.815 677.715 239.015 659.315 227.115L658.215 227.315C642.715 239.915 564.815 272.715 579.915 239.415C561.415 244.615 566.815 272.615 575.515 312.515C577.815 319.515 575.415 322.615 568.215 314.115C563.115 303.415 544.215 219.815 581.215 195.415Z" fill="#CE947B" stroke="#0C1424" stroke-width="3" stroke-miterlimit="10" stroke-linecap="round" stroke-linejoin="round"/>
<path d="M754.915 332.914C740.715 332.014 740.015 313.914 741.315 294.514C742.515 275.014 755.015 260.014 769.215 260.914C783.415 261.814 793.815 278.314 792.615 297.814C791.415 317.214 769.115 333.814 754.915 332.914Z" fill="#EEB9A6"/>
<path d="M741.315 294.415C742.515 274.915 755.015 259.915 769.215 260.815C783.415 261.715 793.815 278.215 792.615 297.715C791.415 317.215 766.615 334.415 752.515 333.515" stroke="#0C1424" stroke-width="3" stroke-miterlimit="10" stroke-linecap="round" stroke-linejoin="round"/>
<path d="M638.215 313.114L636.815 319.714C636.015 322.814 630.115 331.114 643.015 328.714L649.515 327.714" stroke="#0C1424" stroke-width="3" stroke-miterlimit="10" stroke-linecap="round" stroke-linejoin="round"/>
<path d="M680.415 287.415L687.715 283.515" stroke="#0C1424" stroke-width="3" stroke-linecap="round"/>
<path d="M680.215 293.915L687.515 290.015" stroke="#0C1424" stroke-width="3" stroke-linecap="round"/>
<path d="M594.015 307.515L602.315 307.815" stroke="#0C1424" stroke-width="3" stroke-linecap="round"/>
<path d="M591.115 301.715L599.415 302.015" stroke="#0C1424" stroke-width="3" stroke-linecap="round"/>
<path d="M667.415 347.814C664.715 350.614 655.715 356.114 641.215 355.614" stroke="#0C1424" stroke-width="3" stroke-linecap="round" stroke-linejoin="round"/>
<path d="M768.515 338.415C773.541 338.415 777.615 334.341 777.615 329.315C777.615 324.289 773.541 320.215 768.515 320.215C763.489 320.215 759.415 324.289 759.415 329.315C759.415 334.341 763.489 338.415 768.515 338.415Z" fill="#FFED00" stroke="#0C1424" stroke-width="3" stroke-linecap="round" stroke-linejoin="round"/>
<path d="M550.015 93.3161C534.015 36.8161 474.115 4.51609 417.615 23.4161C367.215 40.1161 337.615 93.0161 349.515 144.516C355.715 171.616 371.915 193.216 393.115 207.416C415.915 222.616 429.315 230.716 436.615 256.916L436.015 255.016C437.115 258.716 441.115 261.216 444.915 260.116L527.715 236.816C531.515 235.716 534.415 233.916 533.315 230.116L532.715 227.616C525.415 201.616 531.915 190.116 543.715 165.716C554.215 143.616 557.115 118.216 550.015 93.3161Z" fill="#FFED00" stroke="#0C1424" stroke-width="3.0006" stroke-linecap="round" stroke-linejoin="round"/>
<g style="mix-blend-mode:multiply">
<path d="M536.715 99.1162C522.815 49.9162 470.715 21.8162 421.415 38.3162C377.515 52.9162 351.715 98.9162 362.115 143.716C367.515 167.316 381.615 186.116 400.115 198.416C420.015 211.616 431.615 218.616 438.015 241.516L437.515 239.816C438.415 243.116 442.015 245.216 445.215 244.216L517.315 224.016C520.615 223.116 523.115 221.516 522.215 218.216L521.715 216.016C515.315 193.416 521.015 183.416 531.215 162.116C540.315 142.916 542.815 120.816 536.715 99.1162Z" fill="#FFED00"/>
</g>
<path fill-rule="evenodd" clip-rule="evenodd" d="M483.415 74.716C484.015 75.516 483.815 76.616 483.015 77.216L468.215 88.016C467.915 88.216 467.515 88.416 467.115 88.316L440.115 87.016L424.615 100.616C424.315 100.916 423.915 101.016 423.515 101.016L398.415 102.116L466.415 247.816C466.815 248.716 466.415 249.816 465.515 250.216C464.615 250.616 463.515 250.216 463.115 249.316L394.015 101.216C393.715 100.716 393.815 100.016 394.115 99.516C394.415 99.016 395.015 98.716 395.615 98.616L422.715 97.416L438.315 83.716C438.615 83.416 439.115 83.216 439.615 83.316L466.715 84.616L481.015 74.216C481.715 73.716 482.815 73.916 483.415 74.716Z" fill="#0C1424"/>
<path fill-rule="evenodd" clip-rule="evenodd" d="M483.415 73.7165C484.415 73.6165 485.315 74.3165 485.415 75.3165L503.715 238.017C503.815 239.017 503.115 239.917 502.115 240.017C501.115 240.117 500.215 239.417 500.115 238.417L481.815 75.6165C481.715 74.7165 482.415 73.8165 483.415 73.7165Z" fill="#0C1424"/>
<path d="M417.815 254.317C416.715 250.017 419.315 245.517 423.715 244.417L533.015 216.517C537.315 215.417 541.815 218.017 542.915 222.417C544.015 226.717 541.415 231.217 537.015 232.317L427.715 260.217C423.315 261.317 418.915 258.617 417.815 254.317Z" fill="#CAC7C6" stroke="#0C1424" stroke-width="3.0006" stroke-linecap="round" stroke-linejoin="round"/>
<path d="M429.115 265.816C428.315 262.716 430.215 259.516 433.315 258.716L530.315 233.916C533.415 233.116 536.615 235.016 537.415 238.116C538.215 241.216 536.315 244.416 533.215 245.216L436.115 270.016C433.115 270.916 429.915 269.016 429.115 265.816Z" fill="#CAC7C6" stroke="#0C1424" stroke-width="3.0006" stroke-linecap="round" stroke-linejoin="round"/>
<path d="M424.815 170.616C430.815 169.116 434.515 162.916 432.915 156.916C431.415 150.916 425.215 147.216 419.215 148.816C413.215 150.316 409.515 156.516 411.115 162.516C412.715 168.416 418.815 172.116 424.815 170.616Z" fill="#F9FFFF" stroke="#0C1424" stroke-width="3.0006" stroke-miterlimit="10" stroke-linecap="round" stroke-linejoin="round"/>
<path d="M503.515 150.516C509.515 149.016 513.215 142.816 511.615 136.816C510.115 130.816 503.915 127.116 497.915 128.716C491.915 130.216 488.215 136.416 489.815 142.416C491.315 148.416 497.515 152.016 503.515 150.516Z" fill="#F9FFFF" stroke="#0C1424" stroke-width="3.0006" stroke-miterlimit="10" stroke-linecap="round" stroke-linejoin="round"/>
<path d="M478.815 177.316C480.115 180.016 478.715 183.316 475.815 184.716C472.915 186.116 469.515 185.016 468.215 182.316C466.915 179.616 468.315 176.316 471.215 174.916C474.115 173.516 477.515 174.616 478.815 177.316Z" fill="#0C1424"/>
<path fill-rule="evenodd" clip-rule="evenodd" d="M475.215 169.716C471.615 168.816 467.015 169.316 461.815 172.616C461.015 173.116 459.815 172.916 459.315 172.016C458.815 171.216 459.015 170.016 459.915 169.516C465.815 165.816 471.415 165.016 476.215 166.216C480.915 167.416 484.615 170.616 486.515 174.616C488.415 178.616 488.715 183.316 486.615 187.616C484.515 191.916 480.015 195.616 473.115 197.616C472.115 197.916 471.115 197.316 470.915 196.416C470.615 195.416 471.215 194.416 472.115 194.216C478.315 192.416 481.815 189.316 483.415 186.116C485.015 182.916 484.815 179.316 483.315 176.316C481.715 173.116 478.915 170.616 475.215 169.716Z" fill="#0C1424"/>
<path d="M443.315 274.517C442.515 271.417 444.415 268.217 447.515 267.417L522.515 248.617C525.615 247.817 528.815 249.717 529.615 252.817C530.415 255.917 528.515 259.117 525.415 259.917L450.515 278.717C447.315 279.517 444.115 277.617 443.315 274.517Z" fill="#CAC7C6" stroke="#0C1424" stroke-width="3.0006" stroke-linecap="round" stroke-linejoin="round"/>
<path fill-rule="evenodd" clip-rule="evenodd" d="M628.715 349.916C626.915 350.516 626.015 352.616 627.115 354.216C636.515 368.616 654.815 375.416 671.815 369.616C688.815 363.816 699.115 347.216 697.815 330.116C697.615 328.216 695.715 327.016 693.915 327.716L628.715 349.916Z" fill="#0C1424" stroke="#0C1424" stroke-width="3" stroke-linecap="round" stroke-linejoin="round"/>
<path d="M693.815 327.716L628.715 349.916C626.915 350.516 626.015 352.616 627.115 354.216C627.715 355.116 628.315 356.016 629.015 356.916C629.815 357.916 631.115 358.216 632.315 357.816L695.815 336.116C697.015 335.716 697.815 334.616 697.915 333.316C697.915 332.216 697.915 331.116 697.815 330.016C697.615 328.216 695.615 327.016 693.815 327.716Z" fill="#F9FFFF" stroke="#0C1424" stroke-width="2.5063"/>
<path d="M672.173 369.013C681.969 365.574 688.784 359.576 687.394 355.616C686.004 351.656 676.935 351.233 667.139 354.672C657.343 358.111 650.528 364.109 651.918 368.069C653.308 372.029 662.377 372.452 672.173 369.013Z" fill="#E62336" stroke="#0C1424" stroke-width="2.5063"/>
<path d="M308.015 993.615L132.715 909.115C143.415 882.815 152.615 865.915 175.315 847.715C184.515 865.815 205.615 877.415 238.515 892.915L247.415 887.115C255.415 883.015 260.815 879.915 267.215 887.415C271.615 892.615 270.815 898.415 269.815 906.015L267.915 918.515L308.915 967.915C313.315 973.015 314.315 980.315 311.315 986.415L308.015 993.615Z" fill="#CE947B" stroke="#0C1424" stroke-width="3" stroke-miterlimit="10" stroke-linecap="round" stroke-linejoin="round"/>
<path d="M977.515 1000.71L920.515 888.815C917.215 882.515 907.815 877.315 895.415 875.115L889.715 874.115L870.915 867.215L832.815 862.515L771.015 873.215L770.615 874.515L766.415 875.315C754.015 877.515 744.515 882.615 741.315 889.015L684.315 1000.91C682.515 1004.41 687.215 1007.81 694.515 1008.21L747.915 1021.91C754.515 1022.21 760.615 1019.91 761.515 1016.61L768.315 973.515L894.115 976.115L900.515 1016.61C901.415 1019.91 907.515 1022.31 914.115 1021.91L967.515 1008.21C974.615 1007.61 979.315 1004.11 977.515 1000.71Z" fill="#54BBAB" stroke="#0C1424" stroke-width="3.302" stroke-miterlimit="10" stroke-linecap="round" stroke-linejoin="round"/>
<path d="M721.715 834.315C737.615 830.715 746.515 810.115 741.615 788.215C736.715 766.315 719.815 751.515 703.915 755.115C688.015 758.715 679.115 779.315 684.015 801.215C688.915 823.115 705.815 837.915 721.715 834.315Z" fill="#EEB9A6" stroke="#0C1424" stroke-width="3.3013" stroke-miterlimit="10" stroke-linecap="round" stroke-linejoin="round"/>
<path d="M977.815 801.314C982.715 779.414 973.815 758.814 957.915 755.214C942.015 751.614 925.115 766.414 920.215 788.314C915.315 810.214 924.215 830.814 940.115 834.414C956.015 838.014 972.915 823.214 977.815 801.314Z" fill="#EEB9A6" stroke="#0C1424" stroke-width="3.3013" stroke-miterlimit="10" stroke-linecap="round" stroke-linejoin="round"/>
<path d="M833.015 891.614C898.915 891.614 952.415 838.114 952.415 772.114C952.415 706.114 898.915 652.614 833.015 652.614C767.115 652.614 713.615 706.114 713.615 772.114C713.615 838.114 767.015 891.614 833.015 891.614Z" fill="#EEB9A6" stroke="#0C1424" stroke-width="3.3013" stroke-miterlimit="10" stroke-linecap="round" stroke-linejoin="round"/>
<path d="M761.915 756.614C761.915 756.614 781.815 729.614 812.215 743.114" stroke="#0C1424" stroke-width="3.3013" stroke-miterlimit="10" stroke-linecap="round" stroke-linejoin="round"/>
<path d="M852.715 743.214C852.715 743.214 883.515 729.714 903.015 756.714" stroke="#0C1424" stroke-width="3.3013" stroke-miterlimit="10" stroke-linecap="round" stroke-linejoin="round"/>
<path d="M841.715 818.614H834.115C830.515 818.614 827.715 815.514 828.115 812.014L830.015 792.814" stroke="#0C1424" stroke-width="3.3013" stroke-miterlimit="10" stroke-linecap="round" stroke-linejoin="round"/>
<path d="M805.115 798.814C806.315 797.114 807.015 795.014 807.015 792.714C807.015 786.714 802.215 781.914 796.215 781.914C790.215 781.914 785.415 786.714 785.415 792.714C785.415 795.014 786.115 797.014 787.315 798.814H805.115Z" fill="#F9FFFF" stroke="#0C1424" stroke-width="3.3013" stroke-miterlimit="10" stroke-linecap="round" stroke-linejoin="round"/>
<path d="M882.915 798.814C884.115 797.114 884.815 795.014 884.815 792.714C884.815 786.714 880.015 781.914 874.015 781.914C868.015 781.914 863.215 786.714 863.215 792.714C863.215 795.014 863.915 797.014 865.115 798.814H882.915Z" fill="#F9FFFF" stroke="#0C1424" stroke-width="3.3013" stroke-miterlimit="10" stroke-linecap="round" stroke-linejoin="round"/>
<path d="M808.915 836.214C808.915 836.214 842.515 843.814 861.415 836.214" stroke="#0C1424" stroke-width="3.3013" stroke-miterlimit="10" stroke-linecap="round" stroke-linejoin="round"/>
<path d="M804.715 822.314C804.715 822.314 812.415 836.914 801.715 849.114" stroke="#0C1424" stroke-width="3.3013" stroke-miterlimit="10" stroke-linecap="round" stroke-linejoin="round"/>
<path d="M868.915 849.514C868.915 849.514 857.315 837.714 864.115 822.914" stroke="#0C1424" stroke-width="3.3013" stroke-miterlimit="10" stroke-linecap="round" stroke-linejoin="round"/>
<path d="M939.815 665.014C941.115 662.514 942.015 659.814 942.215 657.014C943.415 641.814 926.915 628.114 905.215 625.914C905.815 621.514 905.115 617.314 903.215 613.514C896.115 599.614 874.215 596.714 854.115 606.914C850.315 608.814 846.815 611.114 843.815 613.614C843.515 612.614 843.115 611.614 842.615 610.614C835.515 596.714 813.615 593.814 793.515 604.014C779.715 611.014 770.515 622.414 768.315 633.414C767.415 633.814 766.515 634.214 765.615 634.614C762.415 632.814 758.815 631.714 754.815 631.714C742.915 631.714 733.315 641.314 733.315 653.214C733.315 655.714 733.815 658.214 734.615 660.414C730.215 666.714 726.815 673.914 724.515 682.214C693.815 687.414 711.615 781.314 715.315 794.214C721.915 805.314 734.815 797.614 733.515 789.314C725.915 732.914 735.815 705.014 758.215 695.614C762.215 705.714 767.815 715.714 779.415 715.714C791.915 715.714 806.615 702.414 806.615 702.414C810.415 713.914 818.715 717.014 831.715 717.014C844.715 717.014 846.715 709.314 843.115 699.014C843.115 699.014 851.615 715.414 864.215 715.414C875.215 715.414 890.915 704.514 888.315 696.714C921.515 698.914 940.215 736.814 933.115 790.314C931.815 798.714 943.815 806.214 950.515 795.214C953.415 783.714 966.215 707.114 939.815 665.014Z" fill="#FFED00" stroke="#0C1424" stroke-width="3.3013" stroke-linecap="round" stroke-linejoin="round"/>
<g style="mix-blend-mode:multiply">
<path d="M497.015 386.115C497.015 386.115 502.015 389.815 497.015 397.515C512.615 404.615 634.515 415.215 634.515 415.215L634.815 439.715L484.715 421.715C484.715 421.715 462.315 421.115 460.115 419.915C463.915 416.915 475.015 402.315 475.415 399.215C480.515 396.915 497.015 386.615 497.015 386.115Z" fill="#C4C4C4"/>
</g>
<g style="mix-blend-mode:multiply">
<path d="M658.515 394.715C658.515 394.715 705.815 390.415 742.415 348.215C750.615 346.515 762.815 346.515 769.215 351.515C754.215 377.515 671.115 427.915 658.515 394.715Z" fill="#C4C4C4"/>
</g>
<g style="mix-blend-mode:multiply">
<path d="M198.115 774.415L198.015 786.215L294.615 752.915L293.415 734.915L316.815 734.615L327.115 743.215L408.515 699.515L382.115 679.215L198.115 774.415Z" fill="#C4C4C4"/>
</g>
</g>
<path d="M500.615 366.615C496.415 360.315 485.815 361.315 481.315 364.315L477.815 366.615C464.815 377.915 466.215 352.215 465.915 350.415L468.815 321.915C468.715 313.115 462.015 310.915 455.615 311.715C450.815 312.315 447.115 315.715 445.815 320.015L442.815 305.815C441.415 299.415 435.215 295.415 428.815 296.715C424.315 297.715 421.015 301.115 419.915 305.315C418.015 301.015 413.415 298.215 408.515 298.915C402.615 299.815 398.515 305.215 399.415 311.115L400.315 317.115C400.115 317.515 399.915 317.815 399.615 318.215C397.415 314.515 392.915 312.615 388.615 313.815C383.415 315.315 380.415 320.715 381.915 325.815L387.615 345.815C385.115 355.115 383.715 365.715 385.015 376.915L268.015 478.315C251.815 493.715 251.115 519.316 266.515 535.516L266.815 535.215C282.215 551.415 307.415 552.415 323.615 537.016L445.615 430.915C446.715 429.915 447.715 428.815 448.615 427.715C450.715 426.515 467.315 416.615 475.315 398.915L496.415 386.815C501.015 384.116 504.815 372.915 500.615 366.615Z" fill="#C48772" stroke="#0C1424" stroke-width="3" stroke-miterlimit="10" stroke-linecap="round" stroke-linejoin="round"/>
<path d="M445.915 320.115L444.015 359.915" stroke="#0C1424" stroke-width="3.0006" stroke-miterlimit="10" stroke-linecap="round" stroke-linejoin="round"/>
<path d="M420.015 305.415L423.715 352.215" stroke="#0C1424" stroke-width="3.0006" stroke-miterlimit="10" stroke-linecap="round" stroke-linejoin="round"/>
<path d="M400.215 316.716L405.215 347.316" stroke="#0C1424" stroke-width="3.0006" stroke-miterlimit="10" stroke-linecap="round" stroke-linejoin="round"/>
<path d="M377.915 383.016L268.115 478.616C251.915 494.016 251.215 519.616 266.615 535.816L266.915 535.516C282.315 551.716 274.915 577.116 323.715 537.316L445.715 431.216C407.215 425.916 379.115 412.716 377.915 383.016Z" fill="#E62336" stroke="#0C1424" stroke-width="3.0006" stroke-miterlimit="10" stroke-linecap="round" stroke-linejoin="round"/>
<path d="M161.915 501.616L171.815 753.116L369.215 679.716L286.315 499.916L161.915 501.616Z" fill="#E62336" stroke="#0C1424" stroke-width="3.0006" stroke-miterlimit="10" stroke-linecap="round" stroke-linejoin="round"/>
<path d="M457.215 513.715L555.715 527.515L508.915 615.315L108.915 819.015L57.2151 717.415L457.215 513.715Z" fill="#FFED00" stroke="#0C1424" stroke-width="3.0006" stroke-linecap="round" stroke-linejoin="round"/>
<path d="M555.715 527.515L457.415 513.615C455.815 522.515 456.915 541.615 474.415 547.115C475.115 568.615 485.015 614.215 509.115 615.315L555.715 527.515Z" fill="#F2B782" stroke="#0C1424" stroke-width="3.0006" stroke-linecap="round" stroke-linejoin="round"/>
<path d="M555.815 527.615L527.115 523.615C516.715 538.415 517.415 546.615 537.715 561.115L555.815 527.615Z" fill="#0C1424" stroke="#0C1424" stroke-width="3.0006" stroke-linecap="round" stroke-linejoin="round"/>
<path d="M77.415 720.616L118.215 800.816C121.215 806.716 118.915 813.916 113.015 816.916L60.215 843.816C54.315 846.816 47.115 844.516 44.115 838.616L3.31501 758.416C0.315014 752.516 2.61501 745.316 8.51501 742.316L61.315 715.416C67.215 712.316 74.415 714.716 77.415 720.616Z" fill="#E62336" stroke="#0C1424" stroke-width="3.0006" stroke-linecap="round" stroke-linejoin="round"/>
<path d="M93.715 699.615L144.815 799.915C146.915 804.015 145.315 808.915 141.215 811.015C137.115 813.115 132.215 811.515 130.115 807.415L79.015 707.115C76.915 703.015 78.515 698.115 82.615 696.015C86.615 694.015 91.615 695.615 93.715 699.615Z" fill="#CAC7C6" stroke="#0C1424" stroke-width="3.0006" stroke-linecap="round" stroke-linejoin="round"/>
<path d="M78.6149 706.515L130.315 808.115C132.215 811.815 130.715 816.315 127.015 818.215C123.315 820.115 118.815 818.615 116.915 814.915L65.3149 713.315C63.4149 709.615 64.9149 705.115 68.6149 703.215C72.2149 701.315 76.8149 702.815 78.6149 706.515Z" fill="#CAC7C6" stroke="#0C1424" stroke-width="3.0006" stroke-linecap="round" stroke-linejoin="round"/>
<g style="mix-blend-mode:multiply">
<path d="M501.115 599.915L239.115 733.415C239.415 730.815 238.615 728.115 236.815 725.915C236.815 725.915 229.915 717.515 224.915 711.415C238.015 727.115 242.815 730.915 249.615 725.615C254.915 721.515 254.515 715.615 250.915 711.215C250.915 711.215 241.115 699.115 236.115 692.915C240.615 698.415 249.115 708.715 249.115 708.715C252.415 712.715 258.215 713.215 262.115 710.015C266.015 706.715 266.515 700.915 263.315 696.915L260.415 693.915C263.415 696.115 267.815 696.115 270.915 693.515C274.615 690.415 275.115 685.115 272.215 681.515C272.215 681.515 238.015 626.815 190.815 647.215L153.215 629.515L180.215 601.515L156.915 527.615L85.115 619.615C83.915 620.815 82.915 622.115 81.915 623.515C81.715 623.715 81.615 624.015 81.415 624.215C81.115 624.715 80.815 625.115 80.515 625.615C79.715 626.915 78.0151 626.015 77.3151 627.415L78.215 629.715C70.115 647.215 77.615 668.015 95.015 676.315L118.415 686.015L114.315 687.915L161.415 710.315C163.515 711.315 165.615 712.115 167.815 712.615C176.615 721.515 190.515 730.015 210.115 725.215L221.315 738.915C222.115 739.815 223.015 740.615 224.015 741.215L137.715 785.215L145.515 800.615L509.015 615.515L555.815 527.715L501.115 599.915Z" fill="#C4C4C4"/>
</g>
<path d="M382.515 584.715C384.815 589.315 390.515 591.215 395.115 588.815C399.715 586.515 401.615 580.815 399.215 576.215C396.915 571.615 391.215 569.715 386.615 572.115C382.015 574.515 380.215 580.115 382.515 584.715Z" fill="#F9FFFF" stroke="#0C1424" stroke-width="3.0006" stroke-miterlimit="10" stroke-linecap="round" stroke-linejoin="round"/>
<path d="M413.115 644.915C415.515 649.515 421.115 651.415 425.715 649.015C430.315 646.715 432.215 641.015 429.815 636.415C427.515 631.815 421.815 629.915 417.215 632.315C412.615 634.615 410.815 640.315 413.115 644.915Z" fill="#F9FFFF" stroke="#0C1424" stroke-width="3.0006" stroke-miterlimit="10" stroke-linecap="round" stroke-linejoin="round"/>
<path fill-rule="evenodd" clip-rule="evenodd" d="M364.815 573.015C364.315 570.815 361.915 569.515 359.815 570.615C341.615 580.215 331.415 601.215 336.415 622.115C341.415 643.015 359.915 657.215 380.515 657.515C382.815 657.515 384.415 655.315 383.915 653.115L364.815 573.015Z" fill="#0C1424" stroke="#0C1424" stroke-width="3" stroke-miterlimit="10" stroke-linecap="round" stroke-linejoin="round"/>
<path d="M383.915 653.315L364.815 573.115C364.315 570.915 361.915 569.615 359.815 570.715C358.615 571.315 351.215 573.515 351.615 580.615C351.815 584.515 354.815 587.715 358.715 587.715C359.015 587.715 359.315 587.715 359.615 587.615L359.715 588.115C357.715 589.415 356.415 591.615 356.415 594.115C356.415 597.815 359.215 600.815 362.815 601.215L362.915 601.715C360.815 602.915 359.315 605.215 359.315 607.915C359.315 611.715 362.315 614.815 366.015 615.015L366.115 615.515C363.915 616.715 362.415 619.115 362.415 621.815C362.415 625.615 365.415 628.715 369.215 628.915C367.115 630.115 365.715 632.415 365.715 635.015C365.715 638.815 368.715 641.915 372.515 642.115V642.215C369.515 643.015 367.315 645.815 367.315 649.015C367.315 652.915 370.515 656.115 374.415 656.115C375.015 656.115 379.115 657.615 380.515 657.615C382.815 657.815 384.415 655.615 383.915 653.315Z" fill="#F9FFFF" stroke="#0C1424" stroke-width="3.0006" stroke-linecap="round" stroke-linejoin="round"/>
<path d="M165.515 516.815L82.2151 601.215C81.0151 602.415 80.0151 603.715 79.0151 605.115C78.8151 605.315 78.7151 605.615 78.5151 605.815C78.2151 606.315 77.9151 606.715 77.6151 607.215C76.8151 608.515 76.0151 609.915 75.3151 611.415C67.2151 628.915 74.7151 649.715 92.1151 658.015L170.715 695.415C172.815 696.415 174.915 697.215 177.115 697.715C186.015 706.715 200.115 715.215 219.915 710.115C229.215 709.415 239.715 685.615 251.315 668.515L254.915 663.315L268.315 677.415C271.215 681.015 276.615 681.415 280.315 678.415C284.015 675.315 284.515 670.015 281.615 666.415C281.615 666.415 247.415 611.715 200.215 632.115L165.615 615.615L192.615 587.615" fill="#C48772"/>
<path d="M165.515 516.815L82.2151 601.215C81.0151 602.415 80.0151 603.715 79.0151 605.115C78.8151 605.315 78.7151 605.615 78.5151 605.815C78.2151 606.315 77.9151 606.715 77.6151 607.215C76.8151 608.515 76.0151 609.915 75.3151 611.415C67.2151 628.915 74.7151 649.715 92.1151 658.015L170.715 695.415C172.815 696.415 174.915 697.215 177.115 697.715C186.015 706.715 200.115 715.215 219.915 710.115C229.215 709.415 239.715 685.615 251.315 668.515L254.915 663.315L268.315 677.415C271.215 681.015 276.615 681.415 280.315 678.415C284.015 675.315 284.515 670.015 281.615 666.415C281.615 666.415 247.415 611.715 200.215 632.115L165.615 615.615L192.615 587.615" stroke="#0C1424" stroke-width="3" stroke-miterlimit="10" stroke-linecap="round" stroke-linejoin="round"/>
<path d="M166.115 512.615L82.2151 601.215C81.0151 602.415 80.0151 603.715 79.0151 605.115C78.8151 605.315 78.7151 605.615 78.5151 605.815C78.2151 606.315 77.9151 606.715 77.6151 607.215C76.8151 608.515 76.0151 609.915 75.3151 611.415C67.2151 628.915 74.7151 649.715 92.1151 658.015L170.715 695.415C172.815 696.415 174.915 697.215 177.115 697.715C168.915 669.315 179.015 643.815 200.115 632.115L165.515 615.615L192.515 587.615" fill="#E62336"/>
<path d="M166.115 512.615L82.2151 601.215C81.0151 602.415 80.0151 603.715 79.0151 605.115C78.8151 605.315 78.7151 605.615 78.5151 605.815C78.2151 606.315 77.9151 606.715 77.6151 607.215C76.8151 608.515 76.0151 609.915 75.3151 611.415C67.2151 628.915 74.7151 649.715 92.1151 658.015L170.715 695.415C172.815 696.415 174.915 697.215 177.115 697.715C168.915 669.315 179.015 643.815 200.115 632.115L165.515 615.615L192.515 587.615" stroke="#0C1424" stroke-width="3.0006" stroke-miterlimit="10" stroke-linecap="round" stroke-linejoin="round"/>
<path d="M121.315 594.615L199.915 632.015" stroke="#0C1424" stroke-width="3" stroke-miterlimit="10" stroke-linecap="round" stroke-linejoin="round"/>
<path d="M253.315 661.516L272.515 681.716C275.815 685.716 275.215 691.516 271.315 694.816C267.415 698.116 261.615 697.516 258.315 693.516C258.315 693.516 245.215 677.616 242.915 674.716C245.715 678.116 260.115 696.016 260.115 696.016C263.715 700.316 264.115 706.216 258.815 710.416C251.215 716.416 246.015 710.816 228.815 689.816C229.415 690.616 245.915 710.716 245.915 710.716C249.515 715.016 248.915 721.516 244.615 725.116C240.315 728.716 233.915 728.116 230.415 723.716L215.015 705.016" fill="#C48772"/>
<path d="M253.315 661.516L272.515 681.716C275.815 685.716 275.215 691.516 271.315 694.816C267.415 698.116 261.615 697.516 258.315 693.516C258.315 693.516 245.215 677.616 242.915 674.716C245.715 678.116 260.115 696.016 260.115 696.016C263.715 700.316 264.115 706.216 258.815 710.416C251.215 716.416 246.015 710.816 228.815 689.816C229.415 690.616 245.915 710.716 245.915 710.716C249.515 715.016 248.915 721.516 244.615 725.116C240.315 728.716 233.915 728.116 230.415 723.716L215.015 705.016" stroke="#0C1424" stroke-width="3" stroke-miterlimit="10" stroke-linecap="round" stroke-linejoin="round"/>
<path d="M317.815 424.916C315.615 405.516 302.315 391.116 288.215 392.816C274.115 394.416 264.515 411.516 266.715 430.816C268.915 450.216 282.215 464.616 296.315 462.916C310.515 461.316 320.115 444.316 317.815 424.916Z" fill="#C48772" stroke="#0C1424" stroke-width="3" stroke-miterlimit="10" stroke-linecap="round" stroke-linejoin="round"/>
<path d="M260.015 533.916C314.115 514.916 319.415 461.016 300.415 406.816C281.415 352.616 277.315 316.616 168.015 343.016C113.915 362.016 85.4149 421.316 104.415 475.516C123.415 529.716 205.915 552.916 260.015 533.916Z" fill="#C48772" stroke="#0C1424" stroke-width="3" stroke-miterlimit="10" stroke-linecap="round" stroke-linejoin="round"/>
<path d="M205.515 453.415C210.415 451.715 213.015 446.315 211.215 441.415C209.515 436.515 204.115 433.915 199.215 435.715C194.315 437.415 191.715 442.815 193.515 447.715C195.215 452.515 200.615 455.115 205.515 453.415Z" fill="#F9FFFF" stroke="#0C1424" stroke-width="3.0006" stroke-miterlimit="10" stroke-linecap="round" stroke-linejoin="round"/>
<path d="M269.215 431.115C274.115 429.415 276.715 424.015 274.915 419.115C273.215 414.215 267.815 411.615 262.915 413.415C258.015 415.215 255.415 420.515 257.215 425.415C259.015 430.215 264.315 432.815 269.215 431.115Z" fill="#F9FFFF" stroke="#0C1424" stroke-width="3.0006" stroke-miterlimit="10" stroke-linecap="round" stroke-linejoin="round"/>
<path d="M171.515 437.016C171.515 437.016 180.115 409.116 208.915 411.516" stroke="#0C1424" stroke-width="3.0006" stroke-miterlimit="10" stroke-linecap="round" stroke-linejoin="round"/>
<path d="M239.015 401.515C239.015 401.515 260.415 381.615 284.215 398.115" stroke="#0C1424" stroke-width="3.0006" stroke-miterlimit="10" stroke-linecap="round" stroke-linejoin="round"/>
<path d="M254.215 313.516C214.115 298.916 82.815 323.216 87.515 398.516C63.715 411.616 105.415 483.616 112.215 493.116C116.515 496.716 136.415 482.616 145.915 477.916C155.415 473.216 157.215 465.516 155.415 462.316C133.015 418.216 130.415 405.016 146.115 390.816C152.315 397.916 182.715 394.016 192.115 390.716C202.315 387.116 200.115 385.416 186.815 379.016L187.915 378.616C207.515 382.416 219.015 383.616 229.715 379.916C240.415 376.216 222.815 372.816 216.915 365.316L217.815 365.016C233.915 367.716 255.415 371.616 265.715 368.016C274.715 364.816 267.015 357.716 262.715 352.116C281.515 347.916 290.015 375.116 301.315 414.316C302.615 421.516 306.215 423.216 308.515 412.216C307.615 400.516 301.415 328.016 254.215 313.516Z" fill="#242424" stroke="#0C1424" stroke-width="3.0006" stroke-miterlimit="10" stroke-linecap="round" stroke-linejoin="round"/>
<path d="M143.515 520.816C155.515 513.316 156.915 493.816 146.615 477.216C136.315 460.716 118.115 453.416 106.115 460.916C94.1149 468.416 92.7149 487.916 103.015 504.516C113.315 521.016 131.515 528.316 143.515 520.816Z" fill="#C48772"/>
<path d="M146.615 477.216C136.315 460.716 118.115 453.416 106.115 460.916C94.1149 468.416 92.7149 487.916 103.015 504.516C113.315 521.016 133.915 527.816 145.915 520.316" stroke="#0C1424" stroke-width="3.0006" stroke-miterlimit="10" stroke-linecap="round" stroke-linejoin="round"/>
<path d="M245.315 438.315L252.415 453.515C253.715 456.315 252.315 459.715 249.415 460.715L243.215 462.915" stroke="#0C1424" stroke-width="3.0006" stroke-miterlimit="10" stroke-linecap="round" stroke-linejoin="round"/>
<path fill-rule="evenodd" clip-rule="evenodd" d="M196.815 479.616C194.515 479.816 193.015 482.116 193.715 484.216C200.815 503.516 220.215 516.416 241.615 514.316C263.015 512.216 279.515 495.716 282.615 475.316C282.915 473.016 281.015 471.216 278.715 471.416L196.815 479.616Z" fill="#0C1424" stroke="#0C1424" stroke-width="3" stroke-linecap="round" stroke-linejoin="round"/>
<path d="M278.815 471.415L196.815 479.615C194.515 479.815 193.015 482.115 193.715 484.215C194.215 485.415 194.715 486.615 195.215 487.815C195.815 489.215 197.315 489.915 198.815 489.815L278.715 481.815C280.215 481.615 281.515 480.615 281.915 479.115C282.215 477.815 282.515 476.515 282.715 475.215C283.015 473.015 281.115 471.115 278.815 471.415Z" fill="#F9FFFF" stroke="#0C1424" stroke-width="3.0006"/>
<path d="M242.386 513.76C254.739 512.415 264.312 507.273 263.768 502.277C263.223 497.281 252.768 494.322 240.415 495.668C228.062 497.014 218.489 502.155 219.033 507.151C219.577 512.147 230.033 515.106 242.386 513.76Z" fill="#E62336" stroke="#0C1424" stroke-width="3.0006"/>
<path d="M457.015 951.315L294.815 877.615C290.715 875.715 288.915 870.915 290.715 866.715L295.215 856.815L472.315 937.315L467.815 947.215C466.015 951.315 461.115 953.215 457.015 951.315Z" fill="#5C5C5C" stroke="#0C1424" stroke-width="3.0006" stroke-linecap="round" stroke-linejoin="round"/>
<path d="M472.415 937.316L295.315 856.816C305.415 830.316 314.215 813.216 336.515 794.516C346.115 812.416 367.415 823.516 400.715 838.216L409.515 832.216C417.415 827.916 422.715 824.716 429.315 832.016C433.815 837.116 433.215 842.916 432.315 850.516L430.715 863.116L472.815 911.616C477.315 916.716 478.415 923.916 475.615 930.116L472.415 937.316Z" fill="#CE947B" stroke="#0C1424" stroke-width="3" stroke-miterlimit="10" stroke-linecap="round" stroke-linejoin="round"/>
<path d="M435.915 870.615L420.715 876.815" stroke="#0C1424" stroke-width="3.0006" stroke-linecap="round" stroke-linejoin="round"/>
<path d="M444.015 879.716L428.815 885.916" stroke="#0C1424" stroke-width="3.0006" stroke-linecap="round" stroke-linejoin="round"/>
<path d="M453.015 888.615L437.815 894.915" stroke="#0C1424" stroke-width="3.0006" stroke-linecap="round" stroke-linejoin="round"/>
<g style="mix-blend-mode:multiply">
<path d="M298.215 527.315L471.115 407.615C471.115 407.615 459.115 423.515 448.815 428.015C439.115 438.315 310.115 548.815 310.115 548.815L298.215 527.315Z" fill="#C4C4C4"/>
</g>
<g style="mix-blend-mode:multiply">
<path d="M153.415 526.715C153.415 526.715 200.015 547.215 245.415 538.015C234.115 549.315 179.715 555.915 157.815 547.715C152.715 554.915 137.815 551.115 135.315 547.515C139.415 541.415 153.415 526.715 153.415 526.715Z" fill="#C4C4C4"/>
</g>
<g style="mix-blend-mode:multiply">
<path d="M191.515 589.516C191.515 589.516 181.115 608.116 193.215 628.616C178.515 621.616 165.315 615.516 165.315 615.516L191.515 589.516Z" fill="#C4C4C4"/>
</g>
<defs>
<clipPath id="clip0">
<rect width="900" height="900" fill="white" transform="translate(68)"/>
</clipPath>
</defs>
</svg>
