<svg width="295" height="308" viewBox="0 0 295 308" fill="none" xmlns="http://www.w3.org/2000/svg">
<g clip-path="url(#clip0)">
<path d="M224.546 142.697C224.546 142.697 259.827 185.15 244.88 263.664C220.708 243.615 212.965 168.398 224.546 142.697Z" fill="#54BBAB" stroke="#54BBAB" stroke-width="3" stroke-miterlimit="10" stroke-linecap="round" stroke-linejoin="round"/>
<path d="M45.5152 169.945C45.5152 169.945 28.0093 254.918 45.7845 290.441C49.0837 274.765 63.7617 207.554 45.5152 169.945Z" fill="#54BBAB" stroke="#54BBAB" stroke-width="3" stroke-miterlimit="10" stroke-linecap="round" stroke-linejoin="round"/>
<path d="M233.703 158.911C233.703 158.911 160.246 176.336 146.107 188.177C131.698 200.018 63.5598 227.804 64.8391 242.673C66.1183 257.541 101.669 278.734 117.357 281.761C120.656 288.085 135.536 302.954 157.485 288.287C173.106 281.223 216.332 255.254 223.132 254.514C229.933 253.774 247.641 247.718 247.641 247.718C247.641 247.718 255.182 201.027 233.703 158.911Z" fill="#F4F6F7" stroke="#54BBAB" stroke-width="3" stroke-miterlimit="10" stroke-linecap="round" stroke-linejoin="round"/>
<path d="M41.6101 196.722C41.6101 196.722 100.659 183.334 123.416 181.854C129.947 181.854 153.984 183.334 179.435 214.887C180.445 217.376 172.635 228.747 158.226 222.422C143.817 216.098 126.648 203.786 104.429 220.404C92.8484 227.737 68.3402 231.774 74.8713 251.688C77.3625 257.743 86.9907 265.817 99.5815 265.279C101.332 272.612 108.94 280.147 117.222 281.695C99.3122 278.196 90.9632 280.214 75.3426 274.63C64.2331 276.38 42.0141 276.918 42.0141 276.918C37.1664 281.425 36.3584 216.906 41.6101 196.722Z" fill="#F4F6F7" stroke="#54BBAB" stroke-width="3" stroke-miterlimit="10" stroke-linecap="round" stroke-linejoin="round"/>
<path d="M99.7161 265.346C99.7161 265.346 135.805 248.728 151.964 234.062L99.7161 265.346Z" fill="#F4F6F7"/>
<path d="M99.7161 265.346C99.7161 265.346 135.805 248.728 151.964 234.062" stroke="#54BBAB" stroke-width="3" stroke-miterlimit="10" stroke-linecap="round" stroke-linejoin="round"/>
<path d="M117.357 281.694C117.357 281.694 132.506 284.453 167.585 258.483L117.357 281.694Z" fill="#F4F6F7"/>
<path d="M117.357 281.694C117.357 281.694 132.506 284.453 167.585 258.483" stroke="#54BBAB" stroke-width="3" stroke-miterlimit="10" stroke-linecap="round" stroke-linejoin="round"/>
<path d="M206.031 259.627C206.031 259.627 202.395 250.275 212.494 243.547C221.314 237.694 235.723 247.584 236.935 248.795C238.147 250.006 238.888 254.984 225.826 264.202C213.706 271.669 207.31 262.654 206.031 259.627Z" fill="#F4F6F7" stroke="#54BBAB" stroke-width="3" stroke-miterlimit="10" stroke-linecap="round" stroke-linejoin="round"/>
<path d="M182.667 272.813C182.667 272.813 178.829 265.614 188.255 258.887C192.632 255.792 198.489 251.082 210.34 258.617C215.12 261.376 215.793 271.198 209.06 277.792C206.636 280.146 200.779 283.914 192.228 283.174C183.61 282.367 182.667 272.813 182.667 272.813Z" fill="#F4F6F7" stroke="#54BBAB" stroke-width="3" stroke-miterlimit="10" stroke-linecap="round" stroke-linejoin="round"/>
<path d="M163.949 291.987C163.949 291.987 156.206 274.966 170.48 269.449C176.338 267.162 179.839 267.296 191.42 280.55C196.806 288.556 169.537 302.752 163.949 291.987Z" fill="#F4F6F7" stroke="#54BBAB" stroke-width="3" stroke-miterlimit="10" stroke-linecap="round" stroke-linejoin="round"/>
<path d="M227.778 183.468L208.118 226.257C205.896 231.168 200.038 233.321 195.123 231.101C190.208 228.881 188.053 223.028 190.275 218.116L209.936 175.327C212.157 170.416 218.015 168.263 222.93 170.483C227.845 172.771 230 178.557 227.778 183.468Z" fill="#F4F6F7" stroke="#54BBAB" stroke-width="3" stroke-miterlimit="10" stroke-linecap="round" stroke-linejoin="round"/>
<path d="M221.651 223.028L184.485 194.098C180.243 190.802 179.435 184.612 182.802 180.373C186.101 176.135 192.295 175.328 196.537 178.691L233.703 207.621C237.945 210.918 238.753 217.107 235.386 221.346C232.02 225.584 225.893 226.324 221.651 223.028Z" fill="#F4F6F7" stroke="#54BBAB" stroke-width="3" stroke-miterlimit="10" stroke-linecap="round" stroke-linejoin="round"/>
<path d="M223.315 199.517L206.421 186.372L194.383 201.819L211.277 214.964L223.315 199.517Z" fill="#F4F6F7" stroke="#54BBAB" stroke-width="3" stroke-miterlimit="10" stroke-linecap="round" stroke-linejoin="round"/>
<path d="M171.505 155.568L166.185 159.336C164.233 160.682 161.54 160.211 160.126 158.26L111.783 89.4339C110.436 87.4828 110.907 84.7917 112.86 83.3789L118.179 79.6113C120.132 78.2657 122.825 78.7367 124.239 80.6877L172.582 149.513C173.928 151.464 173.457 154.156 171.505 155.568Z" fill="#F4F6F7" stroke="#54BBAB" stroke-width="3" stroke-miterlimit="10" stroke-linecap="round" stroke-linejoin="round"/>
<path d="M139.119 70.9327C139.051 70.9999 98.7205 99.2568 98.7205 99.2568L117.506 126.034C117.506 126.034 157.836 97.7767 157.904 97.7094C159.722 96.4311 157.028 89.3669 151.844 81.9663C146.66 74.633 141.004 69.6544 139.119 70.9327Z" fill="#F4F6F7" stroke="#54BBAB" stroke-width="3" stroke-miterlimit="10" stroke-linecap="round" stroke-linejoin="round"/>
<path d="M117.198 126.284C119.055 124.982 116.352 117.936 111.162 110.546C105.972 103.155 100.259 98.2197 98.4025 99.5216C96.5459 100.823 99.2484 107.87 104.439 115.26C109.629 122.651 115.342 127.586 117.198 126.284Z" fill="#F4F6F7" stroke="#54BBAB" stroke-width="3" stroke-miterlimit="10" stroke-linecap="round" stroke-linejoin="round"/>
<path d="M124.441 85.8007L116.496 91.3848C115.284 92.2594 113.533 91.9231 112.725 90.712L110.907 88.0882C109.561 86.1371 110.032 83.446 111.985 82.0332L117.304 78.2656C119.256 76.92 121.949 77.391 123.363 79.342L125.181 81.9659C125.989 83.2442 125.72 84.9261 124.441 85.8007Z" fill="#F4F6F7" stroke="#54BBAB" stroke-width="3" stroke-miterlimit="10" stroke-linecap="round" stroke-linejoin="round"/>
<path d="M207.714 197.932C208.792 197.932 209.666 197.059 209.666 195.981C209.666 194.904 208.792 194.03 207.714 194.03C206.635 194.03 205.761 194.904 205.761 195.981C205.761 197.059 206.635 197.932 207.714 197.932Z" fill="#54BBAB"/>
<path d="M214.177 202.777C215.256 202.777 216.13 201.904 216.13 200.826C216.13 199.749 215.256 198.875 214.177 198.875C213.099 198.875 212.225 199.749 212.225 200.826C212.225 201.904 213.099 202.777 214.177 202.777Z" fill="#54BBAB"/>
<path d="M203.472 203.315C204.55 203.315 205.425 202.442 205.425 201.364C205.425 200.287 204.55 199.413 203.472 199.413C202.394 199.413 201.519 200.287 201.519 201.364C201.519 202.442 202.394 203.315 203.472 203.315Z" fill="#54BBAB"/>
<path d="M210.205 207.957C211.283 207.957 212.158 207.083 212.158 206.006C212.158 204.928 211.283 204.055 210.205 204.055C209.127 204.055 208.252 204.928 208.252 206.006C208.252 207.083 209.127 207.957 210.205 207.957Z" fill="#54BBAB"/>
<path d="M31.4432 274.36L57.9713 261.981C64.7717 276.513 58.3753 294.14 43.832 300.935C29.2886 307.73 11.6481 301.339 4.84777 286.807C-1.95258 272.275 4.44379 254.715 18.9871 247.853L31.4432 274.36Z" fill="#F4F6F7" stroke="#54BBAB" stroke-width="3" stroke-miterlimit="10" stroke-linecap="round" stroke-linejoin="round"/>
<path d="M35.1765 263.876L22.3838 237.502C22.5184 237.435 22.6531 237.368 22.7878 237.301C37.3311 230.506 54.9716 236.897 61.772 251.429C61.772 251.496 61.8393 251.496 61.8393 251.564L35.1765 263.876Z" fill="#F4F6F7" stroke="#54BBAB" stroke-width="3" stroke-miterlimit="10" stroke-linecap="round" stroke-linejoin="round"/>
<path d="M192.834 298.716L203.809 304.3" stroke="#54BBAB" stroke-width="3" stroke-miterlimit="10" stroke-linecap="round" stroke-linejoin="round"/>
<path d="M201.115 295.957L195.527 306.991" stroke="#54BBAB" stroke-width="3" stroke-miterlimit="10" stroke-linecap="round" stroke-linejoin="round"/>
<path d="M284.47 184.41L286.49 196.52" stroke="#54BBAB" stroke-width="3" stroke-miterlimit="10" stroke-linecap="round" stroke-linejoin="round"/>
<path d="M291.54 189.456L279.353 191.474" stroke="#54BBAB" stroke-width="3" stroke-miterlimit="10" stroke-linecap="round" stroke-linejoin="round"/>
<path d="M74.6019 46.1533L71.9087 58.1961" stroke="#54BBAB" stroke-width="3" stroke-miterlimit="10" stroke-linecap="round" stroke-linejoin="round"/>
<path d="M79.315 53.487L67.2629 50.7959" stroke="#54BBAB" stroke-width="3" stroke-miterlimit="10" stroke-linecap="round" stroke-linejoin="round"/>
<path d="M204.605 43.0025C208.324 43.0025 211.338 39.9904 211.338 36.2747C211.338 32.559 208.324 29.5469 204.605 29.5469C200.887 29.5469 197.872 32.559 197.872 36.2747C197.872 39.9904 200.887 43.0025 204.605 43.0025Z" fill="#F4F6F7" stroke="#54BBAB" stroke-width="3" stroke-miterlimit="10" stroke-linecap="round" stroke-linejoin="round"/>
<path d="M7.74303 215.223C11.4616 215.223 14.4761 212.211 14.4761 208.495C14.4761 204.78 11.4616 201.768 7.74303 201.768C4.02449 201.768 1.01001 204.78 1.01001 208.495C1.01001 212.211 4.02449 215.223 7.74303 215.223Z" fill="#F4F6F7" stroke="#54BBAB" stroke-width="3" stroke-miterlimit="10" stroke-linecap="round" stroke-linejoin="round"/>
<path d="M172.345 79.6595C175.06 79.6595 177.26 77.4607 177.26 74.7482C177.26 72.0358 175.06 69.8369 172.345 69.8369C169.631 69.8369 167.43 72.0358 167.43 74.7482C167.43 77.4607 169.631 79.6595 172.345 79.6595Z" fill="#F4F6F7" stroke="#54BBAB" stroke-width="3" stroke-miterlimit="10" stroke-linecap="round" stroke-linejoin="round"/>
<path d="M137.427 168.299C140.141 168.299 142.342 166.1 142.342 163.388C142.342 160.675 140.141 158.477 137.427 158.477C134.712 158.477 132.512 160.675 132.512 163.388C132.512 166.1 134.712 168.299 137.427 168.299Z" fill="#F4F6F7" stroke="#54BBAB" stroke-width="3" stroke-miterlimit="10" stroke-linecap="round" stroke-linejoin="round"/>
<path d="M253.229 162.814C256.948 162.814 259.962 159.802 259.962 156.086C259.962 152.371 256.948 149.358 253.229 149.358C249.51 149.358 246.496 152.371 246.496 156.086C246.496 159.802 249.51 162.814 253.229 162.814Z" fill="#F4F6F7" stroke="#54BBAB" stroke-width="3" stroke-miterlimit="10" stroke-linecap="round" stroke-linejoin="round"/>
<path d="M276.121 168.936C279.84 168.936 282.854 165.924 282.854 162.208C282.854 158.493 279.84 155.48 276.121 155.48C272.403 155.48 269.388 158.493 269.388 162.208C269.388 165.924 272.403 168.936 276.121 168.936Z" fill="#F4F6F7" stroke="#54BBAB" stroke-width="3" stroke-miterlimit="10" stroke-linecap="round" stroke-linejoin="round"/>
<path d="M259.962 156.086L269.523 127.762L293.56 132.068L282.854 162.208" stroke="#54BBAB" stroke-width="3" stroke-miterlimit="10" stroke-linecap="round" stroke-linejoin="round"/>
<path d="M267.368 134.557L291.069 139.132" stroke="#54BBAB" stroke-width="3" stroke-miterlimit="10" stroke-linecap="round" stroke-linejoin="round"/>
<path d="M156.375 42.6855C155.298 48.8751 165.667 57.2177 169.505 50.0189C172.804 42.1473 160.28 41.34 159.001 49.6825C157.52 59.7742 170.716 58.6305 174.016 51.8354" stroke="#54BBAB" stroke-width="3" stroke-miterlimit="10" stroke-linecap="round" stroke-linejoin="round"/>
<path d="M104.733 7.16309L116.516 12.4108C116.516 12.4108 114.092 18.8695 116.987 20.1478C119.815 21.4261 144.39 32.3252 144.39 32.3252C144.39 32.3252 148.699 33.4689 151.662 27.9521C157.924 30.7105 163.108 33.0652 163.108 33.0652C163.108 33.0652 157.318 50.0194 139.475 42.1478C121.633 34.2762 111.87 29.7686 111.87 29.7686C111.87 29.7686 98.2018 25.5301 104.733 7.16309Z" fill="#F4F6F7" stroke="#54BBAB" stroke-width="3" stroke-miterlimit="10" stroke-linecap="round" stroke-linejoin="round"/>
<path d="M100.471 190.15C98.7206 190.486 97.0374 189.343 96.7007 187.661L92.6609 167.275L98.9899 165.997L103.03 186.382C103.366 188.132 102.222 189.814 100.471 190.15Z" fill="#F4F6F7" stroke="#54BBAB" stroke-width="3" stroke-miterlimit="10" stroke-linecap="round" stroke-linejoin="round"/>
<path d="M96.3722 169.408C104.76 167.739 111.224 164.702 110.81 162.625C110.396 160.548 103.261 160.217 94.8731 161.886C86.4855 163.555 80.0216 166.592 80.4356 168.669C80.8495 170.746 87.9846 171.077 96.3722 169.408Z" fill="#F4F6F7" stroke="#54BBAB" stroke-width="3" stroke-miterlimit="10" stroke-linecap="round" stroke-linejoin="round"/>
<path d="M59.1279 136.541L41.5548 141.452C40.2082 141.855 38.7269 141.048 38.3902 139.635C37.9863 138.29 38.7942 136.81 40.2082 136.473L57.7813 131.562C59.1279 131.158 60.6092 131.966 60.9459 133.378C61.2825 134.791 60.4746 136.204 59.1279 136.541Z" fill="#F4F6F7" stroke="#54BBAB" stroke-width="3" stroke-miterlimit="10" stroke-linecap="round" stroke-linejoin="round"/>
<path d="M60.0706 131.629L38.1883 137.751C36.505 138.222 34.6871 137.213 34.2158 135.531C33.7445 133.849 34.7545 132.032 36.4377 131.561L58.32 125.439C60.0033 124.968 61.8212 125.977 62.2925 127.659C62.7638 129.409 61.7539 131.158 60.0706 131.629Z" fill="#F4F6F7" stroke="#54BBAB" stroke-width="3" stroke-miterlimit="10" stroke-linecap="round" stroke-linejoin="round"/>
<path d="M61.2825 125.776L34.0811 133.378C31.9266 133.984 29.772 132.705 29.166 130.62C28.5601 128.467 29.8393 126.314 31.9266 125.708L59.128 118.106C61.2825 117.5 63.4371 118.779 64.0431 120.864C64.6491 123.017 63.3698 125.17 61.2825 125.776Z" fill="#F4F6F7" stroke="#54BBAB" stroke-width="3" stroke-miterlimit="10" stroke-linecap="round" stroke-linejoin="round"/>
<path d="M61.7538 81.6414C57.7813 67.4457 42.7666 59.305 28.56 64.0145C15.9019 68.1857 8.42823 81.4396 11.3908 94.357C12.9394 101.152 16.9792 106.602 22.2983 110.167C28.0213 114.002 32.2631 119.586 34.0811 126.18V126.247C34.3504 127.189 35.3603 127.794 36.3029 127.525L57.108 121.739C58.0506 121.47 58.6566 120.461 58.3873 119.519V119.452C56.5694 112.926 57.1753 105.929 60.1378 99.8065C62.7637 94.2897 63.5044 87.8983 61.7538 81.6414Z" fill="#F4F6F7" stroke="#54BBAB" stroke-width="3" stroke-miterlimit="10" stroke-linecap="round" stroke-linejoin="round"/>
<path d="M42.3627 125.641L28.156 95.2987L33.9464 95.0296L37.3129 92.1366L43.1033 92.4057L46.2005 90.1855" fill="#F4F6F7"/>
<path d="M42.3627 125.641L28.156 95.2987L33.9464 95.0296L37.3129 92.1366L43.1033 92.4057L46.2005 90.1855" stroke="#54BBAB" stroke-width="3" stroke-miterlimit="10" stroke-linecap="round" stroke-linejoin="round"/>
<path d="M50.1057 123.488L46.5372 90.1182" stroke="#54BBAB" stroke-width="3" stroke-miterlimit="10" stroke-linecap="round" stroke-linejoin="round"/>
<path d="M225.152 303.29C223.94 302.685 223.536 301.205 224.142 299.994L227.307 294.141L231.616 296.428L228.452 302.281C227.846 303.492 226.364 303.963 225.152 303.29Z" fill="#54BBAB" stroke="#54BBAB" stroke-width="3" stroke-miterlimit="10" stroke-linecap="round" stroke-linejoin="round"/>
<path d="M231.01 299.993L224.681 296.629L264.204 218.788C265.55 216.232 268.782 215.29 271.341 216.635L271.947 216.972C274.505 218.317 275.448 221.547 274.101 224.103L231.01 299.993Z" fill="#F4F6F7" stroke="#54BBAB" stroke-width="3" stroke-miterlimit="10" stroke-linecap="round" stroke-linejoin="round"/>
<path d="M248.112 269.651L240.638 265.614L264.271 218.856C265.618 216.299 268.85 215.357 271.408 216.703L272.014 217.039C274.573 218.385 275.515 221.614 274.169 224.171L248.112 269.651Z" fill="#F4F6F7" stroke="#54BBAB" stroke-width="3" stroke-miterlimit="10" stroke-linecap="round" stroke-linejoin="round"/>
<path d="M273.024 226.593C276.458 228.477 277.805 232.782 275.919 236.214L261.78 262.519" stroke="#54BBAB" stroke-width="3" stroke-miterlimit="10" stroke-linecap="round" stroke-linejoin="round"/>
<path d="M276.688 212.677L272.299 210.32L268.251 217.847L272.64 220.204L276.688 212.677Z" fill="#54BBAB" stroke="#54BBAB" stroke-width="3" stroke-miterlimit="10" stroke-linecap="round" stroke-linejoin="round"/>
<path d="M267.916 65.3841C270.11 65.3841 271.888 63.607 271.888 61.4147C271.888 59.2225 270.11 57.4453 267.916 57.4453C265.722 57.4453 263.943 59.2225 263.943 61.4147C263.943 63.607 265.722 65.3841 267.916 65.3841Z" fill="#F4F6F7" stroke="#54BBAB" stroke-width="3" stroke-miterlimit="10" stroke-linecap="round" stroke-linejoin="round"/>
<path d="M231.692 69.1517C233.886 69.1517 235.664 67.3746 235.664 65.1823C235.664 62.9901 233.886 61.2129 231.692 61.2129C229.498 61.2129 227.719 62.9901 227.719 65.1823C227.719 67.3746 229.498 69.1517 231.692 69.1517Z" fill="#F4F6F7" stroke="#54BBAB" stroke-width="3" stroke-miterlimit="10" stroke-linecap="round" stroke-linejoin="round"/>
<path d="M198.767 126.876L247.38 95.4575L214.725 71.2373L198.767 126.876Z" fill="#F4F6F7" stroke="#54BBAB" stroke-width="3" stroke-miterlimit="10" stroke-linecap="round" stroke-linejoin="round"/>
<path d="M247.884 94.7296C249.655 92.3408 243.775 84.99 234.75 78.3111C225.726 71.6321 216.975 68.1542 215.204 70.543C213.433 72.9317 219.314 80.2825 228.338 86.9615C237.363 93.6404 246.114 97.1183 247.884 94.7296Z" fill="#F4F6F7" stroke="#54BBAB" stroke-width="3" stroke-miterlimit="10" stroke-linecap="round" stroke-linejoin="round"/>
<path d="M212.638 79.7148C212.638 79.7148 214.455 95.458 229.47 106.357C221.929 111.201 215.735 115.44 215.735 115.44C215.735 115.44 203.683 107.433 207.116 96.669C210.55 85.9045 212.638 79.7148 212.638 79.7148Z" fill="#54BBAB"/>
<path d="M249.804 81.1276C249.804 81.1276 254.988 77.2927 258.355 77.4273" stroke="#54BBAB" stroke-width="3" stroke-miterlimit="10" stroke-linecap="round" stroke-linejoin="round"/>
<path d="M246.841 53.5437C246.841 53.5437 250.41 48.1614 253.574 47.085" stroke="#54BBAB" stroke-width="3" stroke-miterlimit="10" stroke-linecap="round" stroke-linejoin="round"/>
<path d="M229.605 43.7881C229.605 43.7881 231.827 49.4395 230.211 51.9288" stroke="#54BBAB" stroke-width="3" stroke-miterlimit="10" stroke-linecap="round" stroke-linejoin="round"/>
<path d="M243.138 41.9041C240.849 39.6167 240.782 35.9164 243.071 33.6289C244.889 31.8124 247.851 31.7451 249.669 33.5616C251.15 35.0418 251.15 37.3965 249.737 38.8766C248.592 40.0876 246.707 40.0876 245.495 38.9439" stroke="#54BBAB" stroke-width="3" stroke-miterlimit="10" stroke-linecap="round" stroke-linejoin="round"/>
<path d="M250.14 61.4824C252.834 63.2317 253.642 66.8647 251.891 69.5558C250.477 71.7087 247.582 72.3815 245.427 70.9687C243.677 69.8249 243.205 67.5375 244.283 65.7882C245.158 64.3754 247.043 63.9717 248.39 64.8463" stroke="#54BBAB" stroke-width="3" stroke-miterlimit="10" stroke-linecap="round" stroke-linejoin="round"/>
</g>
<defs>
<clipPath id="clip0">
<rect width="294.57" height="308" fill="white"/>
</clipPath>
</defs>
</svg>
