<svg width="34" height="34" viewBox="0 0 34 34" fill="none" xmlns="http://www.w3.org/2000/svg">
<path d="M17 24.9333C15.9021 24.9333 14.875 24.7267 13.9187 24.3135C12.9625 23.9003 12.1243 23.3337 11.4042 22.6135C10.684 21.8934 10.1174 21.0552 9.70417 20.099C9.29097 19.1427 9.07848 18.1097 9.06667 17C9.06667 15.9021 9.27327 14.875 9.68646 13.9187C10.0997 12.9625 10.6663 12.1243 11.3865 11.4042C12.1066 10.684 12.9448 10.1174 13.901 9.70416C14.8573 9.29097 15.8903 9.07847 17 9.06667C18.0979 9.06667 19.125 9.27326 20.0813 9.68646C21.0375 10.0997 21.8757 10.6663 22.5958 11.3865C23.316 12.1066 23.8826 12.9448 24.2958 13.901C24.709 14.8573 24.9215 15.8903 24.9333 17C24.9333 18.0979 24.7267 19.125 24.3135 20.0812C23.9003 21.0375 23.3337 21.8757 22.6135 22.5958C21.8934 23.316 21.0552 23.8826 20.099 24.2958C19.1427 24.709 18.1097 24.9215 17 24.9333ZM17 11.3333C16.2208 11.3333 15.4889 11.4809 14.8042 11.776C14.1194 12.0712 13.5233 12.4785 13.0156 12.9979C12.508 13.5174 12.1007 14.1194 11.7938 14.8042C11.4868 15.4889 11.3333 16.2208 11.3333 17C11.3333 17.7792 11.4809 18.5111 11.776 19.1958C12.0712 19.8806 12.4785 20.4767 12.9979 20.9844C13.5174 21.492 14.1194 21.8993 14.8042 22.2062C15.4889 22.5132 16.2208 22.6667 17 22.6667C17.4132 22.6667 17.791 22.6253 18.1333 22.5427L18.1333 11.4573C17.791 11.3747 17.4132 11.3333 17 11.3333ZM15.8667 27.2L18.1333 27.2L18.1333 34L15.8667 34L15.8667 27.2ZM18.1333 6.8L15.8667 6.8L15.8667 -1.58527e-06L18.1333 -1.38711e-06L18.1333 6.8ZM1.38711e-06 18.1333L1.58527e-06 15.8667L6.8 15.8667L6.8 18.1333L1.38711e-06 18.1333ZM27.2 15.8667L34 15.8667L34 18.1333L27.2 18.1333L27.2 15.8667ZM25.0219 23.4104L29.8208 28.2271L28.2271 29.8208L23.4104 25.0219L25.0219 23.4104ZM8.97813 10.5896L4.17917 5.77291L5.77292 4.17916L10.5896 8.97812L8.97813 10.5896ZM8.97813 23.4104L10.5896 25.0219L5.77292 29.8208L4.17917 28.2271L8.97813 23.4104ZM25.0219 10.5896L23.4104 8.97812L28.2271 4.17917L29.8208 5.77292L25.0219 10.5896Z" fill="#0C1424"/>
</svg>
