<svg width="60" height="60" viewBox="0 0 60 60" fill="none" xmlns="http://www.w3.org/2000/svg">
<circle cx="30" cy="30" r="30" fill="#54BBAB"/>
<path d="M16 40.1429V42.4286H25.3333C25.3333 43.0595 25.4549 43.6488 25.6979 44.1964C25.941 44.744 26.2752 45.2321 26.7005 45.6607C27.1259 46.0893 27.6181 46.4167 28.1771 46.6429C28.7361 46.869 29.3438 46.9881 30 47C30.6441 47 31.2457 46.881 31.8047 46.6429C32.3637 46.4048 32.862 46.0774 33.2995 45.6607C33.737 45.244 34.0712 44.7619 34.3021 44.2143C34.533 43.6667 34.6545 43.0714 34.6667 42.4286H44V40.1429H41.6667V26.4286C41.6667 25.381 41.5269 24.369 41.2474 23.3929C40.9679 22.4167 40.579 21.506 40.0807 20.6607C39.5825 19.8155 38.9748 19.0476 38.2578 18.3571C37.5408 17.6667 36.7509 17.0714 35.888 16.5714C35.0252 16.0714 34.0955 15.6845 33.099 15.4107C32.1024 15.1369 31.0694 15 30 15C28.9306 15 27.8976 15.1369 26.901 15.4107C25.9045 15.6845 24.9748 16.0655 24.112 16.5536C23.2491 17.0417 22.4653 17.6369 21.7604 18.3393C21.0556 19.0417 20.4479 19.8155 19.9375 20.6607C19.4271 21.506 19.0321 22.4167 18.7526 23.3929C18.4731 24.369 18.3333 25.381 18.3333 26.4286V40.1429H16ZM20.6667 40.1429V26.4286C20.6667 25.1667 20.9097 23.9821 21.3958 22.875C21.8819 21.7679 22.5503 20.8036 23.401 19.9821C24.2517 19.1607 25.2422 18.506 26.3724 18.0179C27.5026 17.5298 28.7118 17.2857 30 17.2857C31.2882 17.2857 32.4974 17.5238 33.6276 18C34.7578 18.4762 35.7422 19.131 36.5807 19.9643C37.4193 20.7976 38.0877 21.7679 38.5859 22.875C39.0842 23.9821 39.3333 25.1667 39.3333 26.4286V40.1429H20.6667ZM30 44.7143C29.6719 44.7143 29.3681 44.6548 29.0885 44.5357C28.809 44.4167 28.566 44.256 28.3594 44.0536C28.1528 43.8512 27.9826 43.6071 27.849 43.3214C27.7153 43.0357 27.6545 42.7381 27.6667 42.4286H32.3333C32.3333 42.75 32.2726 43.0476 32.151 43.3214C32.0295 43.5952 31.8655 43.8333 31.6589 44.0357C31.4523 44.2381 31.2031 44.4048 30.9115 44.5357C30.6198 44.6667 30.316 44.7262 30 44.7143Z" fill="#0C1424"/>
</svg>
