<svg width="121" height="171" viewBox="0 0 121 171" fill="none" xmlns="http://www.w3.org/2000/svg">
<path d="M33.1435 56.3028C33.1435 57.3082 33.1435 60.3245 28.9975 60.3245H25.6806V36.999H29.0941C32.6846 36.999 33.1193 39.1626 33.1193 41.0206L33.1435 56.3028ZM30.4788 34.3206H21.0918V63.3407H30.4788C35.7438 63.3407 37.7887 61.5551 37.7887 56.9543V40.5461C37.7887 35.9533 35.8807 34.3206 30.4788 34.3206Z" fill="#54BBAB"/>
<path d="M85.1504 34.3206V98.6587H91.615V52.6994H98.4177V46.6911H91.615V40.2082H99.738V34.3206H85.1504Z" fill="#E62336"/>
<path d="M52.7065 148.036C52.7065 149.943 51.9498 150.337 50.8227 150.337C49.9613 150.337 48.9791 150.071 48.9791 148.036V14.7834H42.3535V148.117C42.3535 153.417 45.1229 156.216 50.4041 156.216H51.3138C56.5869 156.216 59.3644 153.417 59.3644 148.117V53.8899H52.7065V148.036Z" fill="#E62336"/>
<path d="M31.7675 123.609C32.0331 125.829 31.3327 126.352 30.0205 126.513L28.6358 126.682L22.0021 72.6871L23.4673 72.5021C24.8118 72.3412 25.5041 72.663 25.7779 74.9151L31.7675 123.609ZM23.9423 66.9362L14.7969 68.0622L22.8474 133.213L31.9929 132.095C37.1292 131.459 39.1257 128.805 38.4333 123.472L32.3069 73.604C31.6548 68.3196 29.1591 66.3651 23.9504 66.9764" fill="#E62336"/>
<path d="M82.2207 149.919L86.3345 150.425L90.4001 117.343L97.9435 118.268L98.3379 115.043L90.7946 114.118L91.9216 104.949L102.291 106.219L102.677 103.115L88.1862 101.337L82.2207 149.919Z" fill="#54BBAB"/>
<path d="M68.0596 36.7818H71.457C74.6772 36.7818 75.128 38.7685 75.128 40.4978V43.136C75.128 45.7018 73.8963 47.0048 71.457 47.0048H68.0596V36.7818ZM68.0596 49.7234H71.457C75.128 49.7234 75.128 52.611 75.128 53.5601V63.212H79.2499V52.6592C79.2499 49.6832 77.6398 48.7824 76.4403 48.3561L73.9365 47.4552L76.4805 46.7957C77.511 46.5142 79.2258 45.6133 79.2258 42.6373V39.2993C79.2258 35.7603 77.6156 34.3125 73.5904 34.3125H63.9297V63.2683H68.0596V49.7234Z" fill="#54BBAB"/>
<path d="M72.1574 79.5158H70.4345V72.0436H72.1574C73.5179 72.0436 74.1217 72.3814 74.1217 74.3842V77.0224C74.1217 79.0975 73.373 79.5158 72.1574 79.5158ZM74.1217 87.4545V131.105H80.6265V86.5456C80.6265 84.197 79.8215 82.524 78.2597 81.5025C79.3626 80.8268 80.6265 79.4193 80.6265 76.5237V73.1938C80.6265 68.9148 78.5092 66.8315 74.1378 66.8315H63.9297V131.105H70.4345V84.9852H72.1574C73.4293 84.9852 74.1217 85.3793 74.1217 87.4545Z" fill="#E62336"/>
<path d="M104.658 88.1944V90.3419C104.271 90.3419 103.764 90.173 102.452 88.9746C102.001 88.5644 101.574 88.1703 101.075 87.7761C100.694 87.3913 100.238 87.0874 99.7357 86.8829C99.2335 86.6783 98.6951 86.5772 98.1529 86.5857H97.9838C96.5106 86.5857 95.625 87.2533 95.625 89.1194V89.4009C95.625 91.1624 96.6394 91.6852 97.855 91.6852H99.3685V89.9237H98.0241C97.4203 89.9237 97.1466 89.7387 97.1466 89.2159C97.1466 88.6931 97.4203 88.492 98.0241 88.492H98.2173C98.9476 88.4922 99.6481 88.7814 100.166 89.2963L101.647 90.4224C103.257 91.6691 104.134 92.031 105.439 92.031H106.244V86.4651H102.798V88.2427L104.658 88.1944Z" fill="#54BBAB"/>
<path d="M103.571 81.0923C104.287 81.0923 104.674 81.3497 104.674 81.8966C104.674 82.4436 104.287 82.701 103.571 82.701H98.3217C97.5166 82.701 97.2026 82.4195 97.2026 81.8966C97.2026 81.3738 97.5327 81.0521 98.3217 81.0521L103.571 81.0923ZM95.5684 81.768V82.1058C95.5684 83.8753 96.5103 84.6635 98.3056 84.6635H103.571C105.422 84.6635 106.324 83.8592 106.324 82.0816V81.7599C106.324 80.0467 105.406 79.2021 103.571 79.2021H98.3056C96.5103 79.2021 95.5684 79.9582 95.5684 81.768Z" fill="#54BBAB"/>
<path d="M100.398 73.2662C100.239 72.9621 99.9896 72.7147 99.6841 72.5578C99.3786 72.4008 99.032 72.3421 98.6917 72.3895H97.8142C96.3168 72.3895 95.5762 72.9767 95.5762 74.8025V74.9714C95.5762 76.8213 96.502 77.2718 97.8142 77.2718H98.8447V75.6068H97.943C97.3875 75.6068 97.138 75.4379 97.138 74.9312C97.138 74.4244 97.4198 74.2395 97.943 74.2395H99.0218C99.5692 74.2395 99.7303 74.3923 99.7303 74.899V75.9285H101.34V74.8025C101.34 74.2958 101.517 74.151 102.025 74.151H103.852C104.424 74.151 104.73 74.3681 104.73 74.8749C104.73 75.3816 104.424 75.639 103.852 75.639H102.411V77.3763H104.021C105.374 77.3763 106.364 76.8696 106.364 74.9633V74.6738C106.409 74.3442 106.378 74.0086 106.274 73.6927C106.169 73.3768 105.993 73.0891 105.76 72.8515C105.527 72.6139 105.243 72.4328 104.929 72.3221C104.615 72.2113 104.279 72.1739 103.949 72.2125H101.904C101.571 72.1776 101.237 72.2643 100.963 72.4565C100.689 72.6487 100.494 72.9335 100.415 73.2582" fill="#54BBAB"/>
<path d="M103.571 66.7591C104.287 66.7591 104.674 67.0164 104.674 67.5634C104.674 68.1103 104.287 68.3677 103.571 68.3677H98.3217C97.5166 68.3677 97.2026 68.0862 97.2026 67.5634C97.2026 67.0406 97.5327 66.7108 98.3217 66.7108L103.571 66.7591ZM95.5684 67.4427V67.7806C95.5684 69.542 96.5103 70.3383 98.3056 70.3383H103.571C105.422 70.3383 106.324 69.534 106.324 67.7484V67.4267C106.324 65.7215 105.406 64.8689 103.571 64.8689H98.3056C96.5103 64.8689 95.5684 65.6732 95.5684 67.4427Z" fill="#54BBAB"/>
</svg>
