<svg width="40" height="40" viewBox="0 0 40 40" fill="none" xmlns="http://www.w3.org/2000/svg">
<path d="M40 0V40H0V0H40ZM36.9231 3.07692H27.6923V12.3077H36.9231V3.07692ZM24.6154 24.6154V15.3846H15.3846V24.6154H24.6154ZM15.3846 27.6923V36.9231H24.6154V27.6923H15.3846ZM12.3077 15.3846H3.07692V24.6154H12.3077V15.3846ZM24.6154 12.3077V3.07692H15.3846V12.3077H24.6154ZM27.6923 24.6154H36.9231V15.3846H27.6923V24.6154ZM3.07692 3.07692V12.3077H12.3077V3.07692H3.07692ZM3.07692 36.9231H12.3077V27.6923H3.07692V36.9231ZM36.9231 36.9231V27.6923H27.6923V36.9231H36.9231Z" fill="white"/>
</svg>
