<svg fill="none" height="426" viewBox="0 0 268 426" width="268" xmlns="http://www.w3.org/2000/svg"><path d="m134.285 0h-.608c-73.563 0-133.408995 59.826-133.408995 133.361 0 48.202 21.951995 111.817 65.245995 189.081 32.098 57.281 64.646 101.152 64.972 101.588.906 1.217 2.334 1.934 3.847 1.934.043 0 .087 0 .13-.002 1.561-.043 3.002-.842 3.868-2.143.321-.486 32.637-49.287 64.517-108.976 43.03-80.563 64.848-141.624 64.848-181.482-.003-73.536-59.85-133.361-133.411-133.361zm61.58 136.62c0 34.124-27.761 61.884-61.885 61.884-34.123 0-61.884-27.761-61.884-61.884s27.761-61.884 61.884-61.884c34.124 0 61.885 27.761 61.885 61.884z" fill="#e62336"/><circle cx="137" cy="137" fill="#e62336" r="72"/><g fill="#f9ffff"><path d="m117.302 247.477c.853 7.138-1.397 8.819-5.611 9.337l-4.446.543-21.3032-173.6247 4.7052-.5949c4.3175-.5172 6.5409.5173 7.4199 7.7592zm-25.1296-182.2374-29.3691 3.621 25.8531 209.4974 29.3686-3.595c16.495-2.043 22.906-10.578 20.683-27.726l-19.674-160.3562c-2.094-16.9926-10.109-23.2775-26.8358-21.3119"/><path d="m198.135 207.201 1.997 12.02c-2.157.359-5.146-.116-13.587-5.606-2.899-1.878-5.648-3.688-8.801-5.431-2.489-1.799-5.316-3.077-8.31-3.756s-6.094-.745-9.114-.195l-.944.157c-8.225 1.367-12.549 5.925-10.813 16.369l.262 1.576c1.638 9.859 7.788 11.844 14.575 10.716l8.45-1.404-1.638-9.859-7.506 1.247c-3.372.56-5.072-.221-5.558-3.147s.855-4.306 4.226-4.866l1.079-.179c4.078-.677 8.258.292 11.625 2.694l9.318 4.928c10.15 5.484 15.386 6.695 22.668 5.485l4.494-.747-5.176-31.152-19.239 3.197 1.654 9.949z"/><path d="m185.46 168.46c4-.665 6.397.417 6.906 3.478s-1.409 4.86-5.41 5.525l-29.307 4.87c-4.494.747-6.509-.537-6.996-3.463-.486-2.926 1.058-5.033 5.463-5.765zm-44.051 11.206.314 1.891c1.646 9.903 7.638 13.441 17.662 11.775l29.396-4.885c10.339-1.718 14.625-7.056 12.972-17.005l-.3-1.801c-1.593-9.588-7.503-13.464-17.751-11.761l-29.397 4.886c-10.023 1.665-14.579 6.771-12.896 16.9"/><path d="m160.473 127.601c-1.173-1.554-2.796-2.707-4.648-3.302s-3.842-.602-5.697-.021l-4.899.814c-8.361 1.389-11.95 5.363-10.252 15.582l.157.945c1.721 10.354 7.309 12.016 14.636 10.799l5.753-.957-1.549-9.318-5.034.836c-3.101.516-4.652-.198-5.123-3.034s.93-4.133 3.851-4.619l6.024-1c3.056-.508 4.097.198 4.568 3.034l.958 5.762 8.99-1.494-1.048-6.302c-.471-2.837.383-3.811 3.215-4.282l10.203-1.695c3.192-.531 5.102.401 5.573 3.237s-.997 4.56-4.189 5.091l-8.045 1.337 1.615 9.724 8.99-1.494c7.552-1.255 12.609-5.01 10.836-15.679l-.269-1.621c-.054-1.887-.539-3.736-1.416-5.407-.878-1.671-2.126-3.118-3.649-4.232-1.523-1.113-3.279-1.863-5.136-2.191-1.856-.329-3.762-.228-5.573.296l-11.417 1.897c-1.891.113-3.676.908-5.026 2.238s-2.173 3.105-2.317 4.996"/><path d="m172.129 88.2384c4-.6648 6.397.4172 6.906 3.4784s-1.409 4.8603-5.41 5.5251l-29.307 4.8701c-4.494.747-6.509-.537-6.996-3.4634-.486-2.9261 1.05-5.0781 5.455-5.8101zm-44.043 11.2513.314 1.8903c1.638 9.859 7.638 13.442 17.661 11.776l29.397-4.885c10.338-1.718 14.624-7.056 12.964-17.0501l-.3-1.8007c-1.586-9.5437-7.503-13.464-17.751-11.7609l-29.397 4.8851c-10.023 1.6658-14.534 7.0414-12.888 16.9453"/></g></svg>