<svg width="20" height="18" viewBox="0 0 20 18" fill="none" xmlns="http://www.w3.org/2000/svg">
<path d="M18.1245 6.24982C18.3784 6.24982 18.6193 6.29865 18.8471 6.3963C19.075 6.49395 19.2735 6.62741 19.4428 6.79668C19.6121 6.96595 19.7488 7.16451 19.8529 7.39237C19.9571 7.62022 20.0059 7.86436 19.9994 8.12477C19.9994 8.33309 19.9669 8.53166 19.9018 8.72045L17.4018 16.2202C17.3367 16.409 17.2456 16.5816 17.1284 16.7378C17.0112 16.894 16.8745 17.0308 16.7183 17.1479C16.562 17.2651 16.3928 17.3498 16.2105 17.4018C16.0282 17.4539 15.8329 17.4865 15.6246 17.4995H10.6247C9.45936 17.4995 8.33635 17.2749 7.25565 16.8257C6.78691 16.6369 6.31818 16.4937 5.84944 16.396C5.3807 16.2984 4.88918 16.2495 4.37487 16.2495H0V7.49978H4.07215C4.49531 7.49978 4.89244 7.42166 5.26352 7.26542C5.6346 7.10917 5.97314 6.88131 6.27912 6.58184L12.3532 0.517563C12.5159 0.354808 12.6787 0.227858 12.8414 0.136715C13.0042 0.0455716 13.2027 0 13.4371 0C13.652 0 13.8538 0.0390614 14.0426 0.117184C14.2314 0.195307 14.3974 0.309236 14.5406 0.458971C14.6838 0.608706 14.7945 0.774717 14.8726 0.957004C14.9507 1.13929 14.9931 1.34111 14.9996 1.56246C14.9996 2.08978 14.941 2.59107 14.8238 3.06632C14.7066 3.54157 14.5341 4.01681 14.3062 4.49206C14.176 4.772 14.0654 5.05519 13.9742 5.34164C13.8831 5.62809 13.8212 5.93082 13.7887 6.24982H18.1245ZM15.6246 16.2495C15.7548 16.2495 15.8752 16.2105 15.9859 16.1323C16.0965 16.0542 16.1747 15.9501 16.2202 15.8199C16.2528 15.7287 16.3114 15.5529 16.396 15.2925C16.4806 15.0321 16.5881 14.7196 16.7183 14.3551C16.8485 13.9905 16.9852 13.5868 17.1284 13.1442C17.2716 12.7015 17.4214 12.2555 17.5776 11.8063C17.7339 11.3571 17.8771 10.9209 18.0073 10.4977C18.1375 10.0746 18.2644 9.69048 18.3881 9.34543C18.5118 9.00039 18.5997 8.72045 18.6518 8.50562C18.7039 8.29078 18.7364 8.16383 18.7495 8.12477C18.7495 7.9555 18.6876 7.80902 18.5639 7.68533C18.4402 7.56163 18.2937 7.49978 18.1245 7.49978H12.4996C12.4996 7.15474 12.5062 6.83574 12.5192 6.54278C12.5322 6.24982 12.5647 5.96012 12.6168 5.67367C12.6689 5.38722 12.7405 5.10728 12.8317 4.83385C12.9228 4.56042 13.0432 4.2642 13.193 3.9452C13.3753 3.56761 13.512 3.1835 13.6031 2.79289C13.6943 2.40227 13.7431 1.99213 13.7496 1.56246C13.7496 1.47131 13.7203 1.39644 13.6617 1.33785C13.6031 1.27926 13.5283 1.24996 13.4371 1.24996C13.3981 1.24996 13.3655 1.26298 13.3395 1.28903C13.3134 1.31507 13.2841 1.34436 13.2516 1.37691L7.16776 7.47049C6.95944 7.67882 6.73809 7.8611 6.50372 8.01735C6.26935 8.17359 6.01545 8.30705 5.74202 8.41773C5.2212 8.63907 4.66458 8.74975 4.07215 8.74975H1.24996V14.9996H4.37487C5.5337 14.9996 6.65671 15.2242 7.74392 15.6734C8.68139 16.0575 9.64165 16.2495 10.6247 16.2495H15.6246Z" fill="#0C1424"/>
</svg>
