<svg width="22" height="20" viewBox="0 0 22 20" fill="none" xmlns="http://www.w3.org/2000/svg">
<path d="M15.6129 17.1429L17.0323 15.7143V20H0V5.71429H1.41935V18.5714H15.6129V17.1429ZM14.1935 11.4286C13.2473 11.4286 12.3233 11.5216 11.4214 11.7076C10.5195 11.8936 9.64348 12.1726 8.79335 12.5446C7.94321 12.9167 7.14113 13.3668 6.3871 13.8951C5.63306 14.4234 4.92339 15.0298 4.25806 15.7143V14.2857C4.25806 13.3631 4.37634 12.4777 4.6129 11.6295C4.84946 10.7812 5.18212 9.98512 5.61089 9.24107C6.03965 8.49702 6.55712 7.82366 7.16331 7.22098C7.76949 6.6183 8.43851 6.09747 9.17036 5.65848C9.90222 5.21949 10.6932 4.88095 11.5433 4.64286C12.3935 4.40476 13.2769 4.28571 14.1935 4.28571V0L22 7.85714L14.1935 15.7143V11.4286ZM15.3135 5.71429C14.8995 5.71429 14.5114 5.71801 14.1492 5.72545C13.787 5.73289 13.4284 5.75521 13.0736 5.79241C12.7188 5.82961 12.3639 5.89658 12.0091 5.9933C11.6542 6.09003 11.2772 6.22024 10.878 6.38393C10.2349 6.65179 9.63978 6.99405 9.09274 7.41071C8.5457 7.82738 8.0541 8.29985 7.61794 8.82812C7.18179 9.3564 6.81586 9.93304 6.52016 10.558C6.22446 11.183 6.00269 11.8378 5.85484 12.5223C7.09677 11.689 8.42372 11.0603 9.83568 10.6362C11.2476 10.2121 12.7003 10 14.1935 10H15.6129V12.2656L19.9929 7.85714L15.6129 3.44866V5.71429H15.3135Z" fill="black"/>
</svg>
