<svg width="18" height="19" viewBox="0 0 18 19" fill="none" xmlns="http://www.w3.org/2000/svg">
<path d="M14.7266 6.76758C15.1497 6.98242 15.5306 7.24609 15.8691 7.55859C16.2077 7.87109 16.5007 8.22266 16.748 8.61328C16.9954 9.00391 17.181 9.42057 17.3047 9.86328C17.4284 10.306 17.4935 10.7682 17.5 11.25H16.25C16.25 10.7357 16.1523 10.2507 15.957 9.79492C15.7617 9.33919 15.4915 8.94206 15.1465 8.60352C14.8014 8.26497 14.4043 7.99805 13.9551 7.80273C13.5059 7.60742 13.0208 7.50651 12.5 7.5C11.9857 7.5 11.5007 7.59766 11.0449 7.79297C10.5892 7.98828 10.1921 8.25846 9.85352 8.60352C9.51497 8.94857 9.24805 9.3457 9.05273 9.79492C8.85742 10.2441 8.75651 10.7292 8.75 11.25C8.75 11.8424 8.61654 12.4056 8.34961 12.9395C8.08268 13.4733 7.70833 13.916 7.22656 14.2676C7.64974 14.4824 8.0306 14.7461 8.36914 15.0586C8.70768 15.3711 9.00065 15.7227 9.24805 16.1133C9.49544 16.5039 9.68099 16.9206 9.80469 17.3633C9.92839 17.806 9.99349 18.2682 10 18.75H8.75C8.75 18.2357 8.65234 17.7507 8.45703 17.2949C8.26172 16.8392 7.99154 16.4421 7.64648 16.1035C7.30143 15.765 6.9043 15.498 6.45508 15.3027C6.00586 15.1074 5.52083 15.0065 5 15C4.48568 15 4.00065 15.0977 3.54492 15.293C3.08919 15.4883 2.69206 15.7585 2.35352 16.1035C2.01497 16.4486 1.74805 16.8457 1.55273 17.2949C1.35742 17.7441 1.25651 18.2292 1.25 18.75H0C0 18.2747 0.0651042 17.8158 0.195312 17.373C0.325521 16.9303 0.511068 16.5137 0.751953 16.123C0.992839 15.7324 1.28255 15.3809 1.62109 15.0684C1.95964 14.7559 2.34375 14.4889 2.77344 14.2676C2.29818 13.916 1.92708 13.4733 1.66016 12.9395C1.39323 12.4056 1.25651 11.8424 1.25 11.25C1.25 10.7357 1.34766 10.2507 1.54297 9.79492C1.73828 9.33919 2.00846 8.94206 2.35352 8.60352C2.69857 8.26497 3.0957 7.99805 3.54492 7.80273C3.99414 7.60742 4.47917 7.50651 5 7.5C5.59245 7.5 6.1556 7.63346 6.68945 7.90039C7.22331 8.16732 7.66602 8.54167 8.01758 9.02344C8.26497 8.53516 8.58073 8.09896 8.96484 7.71484C9.34896 7.33073 9.78516 7.01497 10.2734 6.76758C9.79818 6.41602 9.42708 5.97331 9.16016 5.43945C8.89323 4.9056 8.75651 4.34245 8.75 3.75C8.75 3.23568 8.84766 2.75065 9.04297 2.29492C9.23828 1.83919 9.50846 1.44206 9.85352 1.10352C10.1986 0.764974 10.5957 0.498047 11.0449 0.302734C11.4941 0.107422 11.9792 0.00651042 12.5 0C13.0143 0 13.4993 0.0976562 13.9551 0.292969C14.4108 0.488281 14.8079 0.758464 15.1465 1.10352C15.485 1.44857 15.752 1.8457 15.9473 2.29492C16.1426 2.74414 16.2435 3.22917 16.25 3.75C16.25 4.34245 16.1165 4.9056 15.8496 5.43945C15.5827 5.97331 15.2083 6.41602 14.7266 6.76758ZM5 13.75C5.33854 13.75 5.66081 13.6849 5.9668 13.5547C6.27279 13.4245 6.53646 13.2454 6.75781 13.0176C6.97917 12.7897 7.1582 12.526 7.29492 12.2266C7.43164 11.9271 7.5 11.6016 7.5 11.25C7.5 10.9115 7.4349 10.5892 7.30469 10.2832C7.17448 9.97721 6.99544 9.71354 6.76758 9.49219C6.53971 9.27083 6.27279 9.0918 5.9668 8.95508C5.66081 8.81836 5.33854 8.75 5 8.75C4.65495 8.75 4.33268 8.8151 4.0332 8.94531C3.73372 9.07552 3.47005 9.25456 3.24219 9.48242C3.01432 9.71029 2.83529 9.97721 2.70508 10.2832C2.57487 10.5892 2.50651 10.9115 2.5 11.25C2.5 11.5951 2.5651 11.9173 2.69531 12.2168C2.82552 12.5163 3.00456 12.7799 3.23242 13.0078C3.46029 13.2357 3.72396 13.4147 4.02344 13.5449C4.32292 13.6751 4.64844 13.7435 5 13.75ZM10 3.75C10 4.09505 10.0651 4.41732 10.1953 4.7168C10.3255 5.01628 10.5046 5.27995 10.7324 5.50781C10.9603 5.73568 11.224 5.91471 11.5234 6.04492C11.8229 6.17513 12.1484 6.24349 12.5 6.25C12.8385 6.25 13.1608 6.1849 13.4668 6.05469C13.7728 5.92448 14.0365 5.74544 14.2578 5.51758C14.4792 5.28971 14.6582 5.02604 14.7949 4.72656C14.9316 4.42708 15 4.10156 15 3.75C15 3.41146 14.9349 3.08919 14.8047 2.7832C14.6745 2.47721 14.4954 2.21354 14.2676 1.99219C14.0397 1.77083 13.7728 1.5918 13.4668 1.45508C13.1608 1.31836 12.8385 1.25 12.5 1.25C12.1549 1.25 11.8327 1.3151 11.5332 1.44531C11.2337 1.57552 10.9701 1.75456 10.7422 1.98242C10.5143 2.21029 10.3353 2.47721 10.2051 2.7832C10.0749 3.08919 10.0065 3.41146 10 3.75Z" fill="#0C1424"/>
</svg>
