<svg width="31" height="30" viewBox="0 0 31 30" fill="none" xmlns="http://www.w3.org/2000/svg">
<path d="M15.5771 30C14.1917 30 12.8636 29.8229 11.5928 29.4688C10.3219 29.1146 9.12402 28.6146 7.99902 27.9688C6.87402 27.3229 5.86361 26.5417 4.96777 25.625C4.07194 24.7083 3.29069 23.6927 2.62402 22.5781C1.95736 21.4635 1.45215 20.2708 1.1084 19C0.764648 17.7292 0.587565 16.3958 0.577148 15C0.577148 13.6146 0.754232 12.2865 1.1084 11.0156C1.46257 9.74479 1.96257 8.54688 2.6084 7.42188C3.25423 6.29688 4.03548 5.28646 4.95215 4.39062C5.86882 3.49479 6.88444 2.71354 7.99902 2.04688C9.11361 1.38021 10.3063 0.875 11.5771 0.53125C12.848 0.1875 14.1813 0.0104167 15.5771 0C16.9626 0 18.2907 0.177083 19.5615 0.53125C20.8324 0.885417 22.0303 1.38542 23.1553 2.03125C24.2803 2.67708 25.2907 3.45833 26.1865 4.375C27.0824 5.29167 27.8636 6.30729 28.5303 7.42188C29.1969 8.53646 29.7021 9.72917 30.0459 11C30.3896 12.2708 30.5667 13.6042 30.5771 15C30.5771 16.3854 30.4001 17.7135 30.0459 18.9844C29.6917 20.2552 29.1917 21.4531 28.5459 22.5781C27.9001 23.7031 27.1188 24.7135 26.2021 25.6094C25.2855 26.5052 24.2699 27.2865 23.1553 27.9531C22.0407 28.6198 20.848 29.125 19.5771 29.4688C18.3063 29.8125 16.973 29.9896 15.5771 30ZM15.5771 2C14.3792 2 13.2282 2.15625 12.124 2.46875C11.0199 2.78125 9.98861 3.21875 9.03027 3.78125C8.07194 4.34375 7.19173 5.02083 6.38965 5.8125C5.58757 6.60417 4.91048 7.47917 4.3584 8.4375C3.80632 9.39583 3.36882 10.4323 3.0459 11.5469C2.72298 12.6615 2.56673 13.8125 2.57715 15C2.57715 16.1875 2.7334 17.3333 3.0459 18.4375C3.3584 19.5417 3.7959 20.5781 4.3584 21.5469C4.9209 22.5156 5.59798 23.3958 6.38965 24.1875C7.18132 24.9792 8.05632 25.6562 9.01465 26.2188C9.97298 26.7812 11.0094 27.2188 12.124 27.5312C13.2386 27.8438 14.3896 28 15.5771 28C16.7646 28 17.9105 27.8438 19.0146 27.5312C20.1188 27.2188 21.1553 26.7812 22.124 26.2188C23.0928 25.6562 23.973 24.9792 24.7646 24.1875C25.5563 23.3958 26.2334 22.5208 26.7959 21.5625C27.3584 20.6042 27.7959 19.5677 28.1084 18.4531C28.4209 17.3385 28.5771 16.1875 28.5771 15C28.5771 13.8125 28.4209 12.6667 28.1084 11.5625C27.7959 10.4583 27.3584 9.42188 26.7959 8.45312C26.2334 7.48438 25.5563 6.60417 24.7646 5.8125C23.973 5.02083 23.098 4.34375 22.1396 3.78125C21.1813 3.21875 20.1449 2.78125 19.0303 2.46875C17.9157 2.15625 16.7646 2 15.5771 2ZM14.5771 12H16.5771V22H14.5771V12ZM14.5771 8H16.5771V10H14.5771V8Z" fill="#54BBAB"/>
</svg>
