<svg width="32" height="30" viewBox="0 0 32 30" fill="none" xmlns="http://www.w3.org/2000/svg">
<path d="M31.9467 6.00104V15.235C31.7388 14.6205 31.4684 14.0424 31.1356 13.5007C30.8029 12.9591 30.4077 12.4539 29.9502 11.9852V6.00104H18.9689C18.3866 6.00104 17.9186 6.04791 17.5651 6.14166C17.2115 6.23541 16.9099 6.3604 16.6604 6.51664C16.4108 6.67289 16.1976 6.83434 16.0208 7.001C15.844 7.16766 15.6517 7.32911 15.4437 7.48535C15.2357 7.6416 14.9757 7.76138 14.6638 7.84471C14.3518 7.92804 13.9566 7.98012 13.4783 8.00095H1.99789V22.0003H15.974V24.0003H1.99789C1.71712 24.0003 1.45715 23.9482 1.21797 23.844C0.978797 23.7399 0.770819 23.5992 0.594038 23.4222C0.417256 23.2451 0.271672 23.0316 0.157283 22.7816C0.0428955 22.5316 -0.00909905 22.2712 0.00129986 22.0003V2.00121C0.00129986 1.71998 0.0532944 1.45957 0.157283 1.22C0.261273 0.980426 0.401658 0.772102 0.578439 0.595026C0.755221 0.417951 0.968399 0.272124 1.21797 0.157545C1.46755 0.0429669 1.72752 -0.00911419 1.99789 0.00130203H13.4783C13.863 0.00130203 14.2218 0.0690074 14.5546 0.204418C14.8873 0.339829 15.1889 0.527321 15.4593 0.766894C15.7297 1.00647 15.9792 1.27208 16.208 1.56373C16.4368 1.85539 16.6448 2.16267 16.8319 2.48557C16.9671 2.72514 17.0971 2.93867 17.2219 3.12617C17.3467 3.31366 17.4923 3.4699 17.6586 3.5949C17.825 3.71989 18.007 3.81884 18.2046 3.89176C18.4022 3.96467 18.6569 4.00113 18.9689 4.00113H29.9502C30.2309 4.00113 30.4909 4.05321 30.7301 4.15737C30.9693 4.26153 31.1772 4.40215 31.354 4.57923C31.5308 4.7563 31.6764 4.96984 31.7908 5.21983C31.9052 5.46981 31.9571 5.73022 31.9467 6.00104ZM13.4783 6.00104C13.7591 6.00104 13.993 5.95417 14.1802 5.86042C14.3674 5.76668 14.5494 5.6521 14.7262 5.51669C14.9029 5.38128 15.0797 5.23545 15.2565 5.07921C15.4333 4.92296 15.6361 4.77714 15.8648 4.64173C15.7089 4.46465 15.5477 4.23028 15.3813 3.93863C15.2149 3.64698 15.0277 3.35532 14.8197 3.06367C14.6118 2.77201 14.4038 2.52203 14.1958 2.3137C13.9878 2.10538 13.7487 2.00121 13.4783 2.00121H1.99789V6.00104H13.4783ZM27.5168 22.8284C28.1927 23.1722 28.8011 23.594 29.3418 24.094C29.8826 24.594 30.3505 25.1565 30.7457 25.7814C31.1408 26.4064 31.4372 27.073 31.6348 27.7813C31.8324 28.4896 31.9363 29.2292 31.9467 30H29.9502C29.9502 29.1771 29.7942 28.4011 29.4822 27.672C29.1702 26.9428 28.7439 26.3075 28.2031 25.7658C27.6624 25.2242 27.0229 24.7919 26.2845 24.469C25.5462 24.1461 24.7715 23.9898 23.9604 24.0003C23.1285 24.0003 22.3538 24.1565 21.6362 24.469C20.9187 24.7815 20.2844 25.2085 19.7332 25.7502C19.1821 26.2918 18.7505 26.9324 18.4386 27.672C18.1266 28.4115 17.9706 29.1875 17.9706 30H15.974C15.974 29.2396 16.078 28.5053 16.286 27.797C16.494 27.0887 16.7903 26.422 17.1751 25.7971C17.5599 25.1721 18.0226 24.6096 18.5634 24.1096C19.1041 23.6097 19.7176 23.1826 20.404 22.8284C19.6344 22.2555 19.0365 21.5472 18.6101 20.7035C18.1838 19.8598 17.9706 18.9588 17.9706 18.0005C17.9706 17.1776 18.1266 16.4016 18.4386 15.6725C18.7505 14.9434 19.1769 14.308 19.7176 13.7663C20.2584 13.2247 20.8927 12.7924 21.6206 12.4695C22.3486 12.1466 23.1285 11.9904 23.9604 12.0008C24.7819 12.0008 25.5566 12.157 26.2845 12.4695C27.0125 12.782 27.6468 13.2091 28.1875 13.7507C28.7283 14.2923 29.1598 14.9329 29.4822 15.6725C29.8046 16.412 29.9606 17.1881 29.9502 18.0005C29.9502 18.9588 29.737 19.8598 29.3106 20.7035C28.8843 21.5472 28.2863 22.2555 27.5168 22.8284ZM19.9672 18.0005C19.9672 18.5526 20.0712 19.0682 20.2792 19.5473C20.4872 20.0265 20.7731 20.4535 21.1371 20.8285C21.501 21.2035 21.9222 21.49 22.4006 21.6879C22.8789 21.8858 23.3988 21.9899 23.9604 22.0003C24.5115 22.0003 25.0263 21.8962 25.5046 21.6879C25.983 21.4795 26.4093 21.1931 26.7837 20.8285C27.1581 20.464 27.444 20.0421 27.6416 19.563C27.8392 19.0838 27.9432 18.563 27.9536 18.0005C27.9536 17.4485 27.8496 16.9329 27.6416 16.4537C27.4336 15.9746 27.1477 15.5475 26.7837 15.1725C26.4197 14.7975 25.9986 14.5111 25.5202 14.3132C25.0419 14.1153 24.5219 14.0111 23.9604 14.0007C23.4092 14.0007 22.8945 14.1049 22.4161 14.3132C21.9378 14.5215 21.5114 14.808 21.1371 15.1725C20.7627 15.5371 20.4768 15.9589 20.2792 16.4381C20.0816 16.9172 19.9776 17.438 19.9672 18.0005Z" fill="#54BBAB"/>
</svg>
