<svg width="20" height="20" viewBox="0 0 20 20" fill="none" xmlns="http://www.w3.org/2000/svg">
<path d="M19.9995 3.27148C19.9995 3.70117 19.9181 4.11784 19.7554 4.52148C19.5926 4.92513 19.355 5.2832 19.0425 5.5957L6.18115 18.457L-0.000488281 20L1.54248 13.8184L14.4038 0.957031C14.7163 0.644531 15.0744 0.406901 15.478 0.244141C15.8817 0.0813802 16.2983 0 16.728 0C17.1772 0 17.6004 0.0846354 17.9976 0.253906C18.3947 0.423177 18.7397 0.657552 19.0327 0.957031C19.3257 1.25651 19.5601 1.60482 19.7358 2.00195C19.9116 2.39909 19.9995 2.82227 19.9995 3.27148ZM3.18311 13.9453C3.87321 14.1732 4.46566 14.5345 4.96045 15.0293C5.45524 15.5241 5.81982 16.1198 6.0542 16.8164L16.6108 6.25L13.7495 3.38867L3.18311 13.9453ZM1.71826 18.2812L4.93115 17.4805C4.86605 17.181 4.76188 16.8978 4.61865 16.6309C4.47542 16.3639 4.29639 16.1263 4.08154 15.918C3.8667 15.7096 3.62907 15.5339 3.36865 15.3906C3.10824 15.2474 2.82503 15.14 2.51904 15.0684L1.71826 18.2812ZM17.4995 5.36133C17.6623 5.19857 17.8185 5.04557 17.9683 4.90234C18.118 4.75911 18.2515 4.60938 18.3687 4.45312C18.4858 4.29688 18.577 4.12435 18.6421 3.93555C18.7072 3.74674 18.743 3.52865 18.7495 3.28125C18.7495 3.0013 18.6974 2.74089 18.5933 2.5C18.4891 2.25911 18.3426 2.04427 18.1538 1.85547C17.965 1.66667 17.7502 1.52018 17.5093 1.41602C17.2684 1.31185 17.0047 1.25651 16.7183 1.25C16.4709 1.25 16.256 1.28255 16.0737 1.34766C15.8914 1.41276 15.7189 1.50716 15.5562 1.63086C15.3934 1.75456 15.2404 1.88802 15.0972 2.03125C14.9539 2.17448 14.8009 2.33073 14.6382 2.5L17.4995 5.36133Z" fill="#54BBAB"/>
</svg>
