<svg width="25" height="30" viewBox="0 0 25 30" fill="none" xmlns="http://www.w3.org/2000/svg">
<path d="M24.374 5.62599H22.4991V27.1876C22.4991 27.5782 22.4258 27.9444 22.2794 28.2862C22.1329 28.628 21.9327 28.9258 21.6788 29.1797C21.4249 29.4336 21.1271 29.6338 20.7853 29.7803C20.4435 29.9268 20.0773 30 19.6867 30H4.68731C4.2967 30 3.9305 29.9268 3.58872 29.7803C3.24694 29.6338 2.9491 29.4336 2.6952 29.1797C2.44131 28.9258 2.24112 28.628 2.09464 28.2862C1.94816 27.9444 1.87492 27.5782 1.87492 27.1876V5.62599H0V3.75107H7.4997V1.87614C7.4997 1.61248 7.54852 1.36835 7.64617 1.14375C7.74383 0.919152 7.87566 0.723848 8.04167 0.557839C8.20767 0.39183 8.40786 0.255117 8.64223 0.147699C8.87659 0.0402816 9.12072 -0.00854457 9.37462 0.00122065H14.9994C15.2631 0.00122065 15.5072 0.0500468 15.7318 0.147699C15.9564 0.245351 16.1517 0.377182 16.3177 0.543191C16.4837 0.7092 16.6204 0.909387 16.7278 1.14375C16.8353 1.37812 16.8841 1.62225 16.8743 1.87614V3.75107H24.374V5.62599ZM9.37462 3.75107H14.9994V1.87614H9.37462V3.75107ZM20.6242 5.62599H3.74985V27.1876C3.74985 27.4415 3.84262 27.6612 4.02816 27.8468C4.2137 28.0323 4.43341 28.1251 4.68731 28.1251H19.6867C19.9406 28.1251 20.1603 28.0323 20.3459 27.8468C20.5314 27.6612 20.6242 27.4415 20.6242 27.1876V5.62599ZM9.37462 24.3752H7.4997V9.37584H9.37462V24.3752ZM13.1245 24.3752H11.2495V9.37584H13.1245V24.3752ZM16.8743 24.3752H14.9994V9.37584H16.8743V24.3752Z" fill="#0C1424"/>
</svg>
