<svg width="323" height="426" viewBox="0 0 323 426" fill="none" xmlns="http://www.w3.org/2000/svg">
<g clip-path="url(#clip0)">
<path d="M295.62 370.289L127.318 417.286C113.756 421.073 99.617 413.107 95.8301 399.545L8.57805 87.085C4.79115 73.5236 12.7576 59.3843 26.319 55.5974L194.621 8.60034C208.182 4.81343 222.322 12.7799 226.109 26.3413L313.361 338.802C317.17 352.441 309.26 366.48 295.62 370.289Z" fill="#BEBDBB" stroke="black" stroke-width="3.4675" stroke-miterlimit="10"/>
<path d="M284.054 326.45L114.576 373.776C108.384 375.505 101.887 371.911 100.136 365.64L25.3613 97.8613C23.6321 91.6686 27.2262 85.1723 33.4973 83.4211L202.897 36.1177C209.09 34.3884 215.586 37.9825 217.337 44.2536L292.112 312.032C293.863 318.303 290.247 324.721 284.054 326.45Z" fill="#CBCCE7" stroke="black" stroke-width="3.1896" stroke-miterlimit="10"/>
<path d="M207.503 383.064C214.398 381.731 218.797 375.094 217.464 368.199C216.13 361.304 209.493 356.904 202.598 358.238C195.704 359.572 191.304 366.209 192.638 373.104C193.949 379.92 200.608 384.398 207.503 383.064Z" stroke="black" stroke-width="3.1896" stroke-miterlimit="10"/>
<path d="M113.267 41.9643C114.783 41.5412 115.668 39.9698 115.245 38.4545C114.822 36.9393 113.25 36.0539 111.735 36.477C110.22 36.9002 109.334 38.4715 109.758 39.9868C110.181 41.5021 111.752 42.3874 113.267 41.9643Z" fill="black" stroke="black" stroke-width="3.1896" stroke-miterlimit="10"/>
<path d="M70.5122 64.9731C72.0275 64.5499 72.9129 62.9786 72.4897 61.4633C72.0666 59.948 70.4952 59.0627 68.98 59.4858C67.4647 59.9089 66.5793 61.4803 67.0025 62.9956C67.4256 64.5108 68.997 65.3962 70.5122 64.9731Z" fill="black" stroke="black" stroke-width="3.1896" stroke-miterlimit="10"/>
<path d="M84.9847 58.3965L145.893 41.3882" stroke="black" stroke-width="3.1896" stroke-miterlimit="10" stroke-linecap="round" stroke-linejoin="round"/>
<path d="M80.2062 296.083L90.4943 332.926L167.816 358.656L212.576 346.157L80.2062 296.083Z" fill="#FBFDFF" stroke="black" stroke-width="3.1896"/>
<path d="M71.2039 262.938L76.6325 282.378L229.577 341.072L251.84 334.855L71.2039 262.938Z" fill="#FBFDFF" stroke="black" stroke-width="3.1896"/>
<path d="M198.591 234.041L234.145 243.041" stroke="black" stroke-width="3" stroke-miterlimit="10" stroke-linecap="round" stroke-linejoin="round"/>
<path d="M188.968 237.404C192.737 222.155 196.429 206.928 200.198 191.679C200.198 191.679 202.522 186.383 208.026 187.634C213.508 188.808 213.793 193.46 213.793 193.46C210.244 207.38 206.773 221.278 203.224 235.198" stroke="black" stroke-width="3" stroke-miterlimit="10" stroke-linecap="round" stroke-linejoin="round"/>
<path d="M231.247 235.992L236 217.004C236 217.004 238.324 211.707 243.828 212.959C249.31 214.132 249.595 218.785 249.595 218.785C245.418 234.993 241.262 251.279 237.162 267.465C237.162 267.465 225.598 298.073 196.338 291.033C167.078 283.993 171.55 250.38 171.55 250.38L180.438 215.027C180.438 215.027 182.761 209.731 188.265 210.983C193.748 212.156 194.033 216.808 194.033 216.808C191.511 227.146 188.99 237.483 186.39 247.842C186.39 247.842 204.784 254.705 199.94 273.972" stroke="black" stroke-width="3" stroke-miterlimit="10" stroke-linecap="round" stroke-linejoin="round"/>
<path d="M210.998 204.634L215.752 185.645C215.752 185.645 218.075 180.349 223.579 181.601C229.062 182.774 229.347 187.426 229.347 187.426L224.182 207.966" stroke="black" stroke-width="3" stroke-miterlimit="10" stroke-linecap="round" stroke-linejoin="round"/>
<path d="M216.564 238.486C219.931 225.124 223.276 211.684 226.565 198.344C226.565 198.344 228.888 193.047 234.392 194.299C239.875 195.472 240.16 200.125 240.16 200.125C236.689 214.023 233.218 227.921 229.769 241.897" stroke="black" stroke-width="3" stroke-miterlimit="10" stroke-linecap="round" stroke-linejoin="round"/>
<path d="M143.87 78.6279C143.87 78.6279 164.562 64.0618 182.974 80.9753" stroke="black" stroke-width="3.1896" stroke-miterlimit="10" stroke-linecap="round" stroke-linejoin="round"/>
<path d="M73.9372 107.197C73.9372 107.197 84.5276 84.2978 109.023 89.7102" stroke="black" stroke-width="3.1896" stroke-miterlimit="10" stroke-linecap="round" stroke-linejoin="round"/>
<path d="M109.642 137.62C113.953 136.416 116.417 131.925 115.213 127.613C114.01 123.302 109.519 120.838 105.207 122.042C100.896 123.246 98.4319 127.737 99.6359 132.048C100.84 136.359 105.352 138.902 109.642 137.62Z" fill="white" stroke="black" stroke-width="3.1896" stroke-miterlimit="10" stroke-linecap="round" stroke-linejoin="round"/>
<path d="M165.816 121.51C170.127 120.306 172.592 115.816 171.388 111.504C170.184 107.193 165.693 104.729 161.382 105.933C157.07 107.136 154.606 111.627 155.81 115.939C157.014 120.25 161.505 122.714 165.816 121.51Z" fill="white" stroke="black" stroke-width="3.1896" stroke-miterlimit="10" stroke-linecap="round" stroke-linejoin="round"/>
<path fill-rule="evenodd" clip-rule="evenodd" d="M105.875 148.642C104.242 148.845 103.26 150.471 103.754 151.938C108.961 165.441 122.883 174.144 137.942 172.39C153.057 170.535 164.364 158.674 166.204 144.386C166.337 142.744 165.059 141.495 163.347 141.72L105.875 148.642Z" fill="white" stroke="black" stroke-width="3.1896" stroke-miterlimit="10" stroke-linecap="round" stroke-linejoin="round"/>
<path d="M116.369 147.486L119.57 169.239" stroke="black" stroke-width="3.1896" stroke-miterlimit="10" stroke-linecap="round" stroke-linejoin="round"/>
<path d="M135.33 145.487L139.579 171.595" stroke="black" stroke-width="3.1896" stroke-miterlimit="10" stroke-linecap="round" stroke-linejoin="round"/>
<path d="M153.712 143.227L156.614 162.697" stroke="black" stroke-width="3.1896" stroke-miterlimit="10" stroke-linecap="round" stroke-linejoin="round"/>
</g>
<defs>
<clipPath id="clip0">
<rect width="228.701" height="378.374" fill="white" transform="translate(0 61.5098) rotate(-15.602)"/>
</clipPath>
</defs>
</svg>
