<svg width="320" height="411" viewBox="0 0 320 411" fill="none" xmlns="http://www.w3.org/2000/svg">
<g clip-path="url(#clip0)">
<path d="M187.146 166.927H134.772C111.362 166.927 92.4487 147.938 92.4487 124.583V113.733C92.4487 90.3111 111.428 71.3887 134.772 71.3887H187.146C210.556 71.3887 229.469 90.3772 229.469 113.733V124.583C229.469 147.938 210.49 166.927 187.146 166.927Z" fill="#FFED00" stroke="#0C1424" stroke-width="3.0144" stroke-linecap="round" stroke-linejoin="round"/>
<g style="mix-blend-mode:multiply">
<path d="M187.146 166.927H134.772C111.362 166.927 92.4487 147.938 92.4487 124.583V113.733C92.4487 90.3111 111.428 71.3887 134.772 71.3887H187.146C210.556 71.3887 229.469 90.3772 229.469 113.733V124.583C229.469 147.938 210.49 166.927 187.146 166.927Z" fill="#C4C4C4"/>
</g>
<path d="M101.575 268.619L98.0038 319.167L97.2764 368.987L143.302 366.076L143.765 329.29L157.388 300.708L176.103 324.262L176.169 372.825L229.601 371.965L230.99 320.49L215.45 271.133L101.575 268.619Z" fill="#54BBAB" stroke="#0C1424" stroke-width="3" stroke-miterlimit="10" stroke-linecap="round" stroke-linejoin="round"/>
<path d="M210.093 192.333L234.891 199.28C234.891 199.28 295.466 173.94 285.017 166.662C284.092 166.067 283.166 165.538 282.306 165.008C281.975 164.81 281.645 164.678 281.314 164.479C281.116 164.413 280.984 164.281 280.785 164.214C279.727 163.751 278.735 163.354 277.677 163.09L201.893 142.91" fill="#EEB9A6"/>
<path d="M210.093 192.333L234.891 199.28C234.891 199.28 295.466 173.94 285.017 166.662C284.092 166.067 283.166 165.538 282.306 165.008C281.975 164.81 281.645 164.678 281.314 164.479C281.116 164.413 280.984 164.281 280.785 164.214C279.727 163.751 278.735 163.354 277.677 163.09L201.893 142.91" stroke="#0C1424" stroke-width="2.7512" stroke-miterlimit="10" stroke-linecap="round" stroke-linejoin="round"/>
<path d="M7.07587 43.0713C8.66297 42.6743 11.1759 42.6081 12.5646 43.0713L10.8452 33.6101C10.1839 29.3095 12.4323 25.6044 16.7969 24.9428C19.5082 24.4797 22.0872 25.5383 23.8066 27.3908L23.1453 23.3549C22.4179 18.7235 24.6001 16.0109 29.0308 15.0185C32.9324 14.1583 36.3712 16.2755 37.2309 20.1129L41.3309 49.489L37.826 24.1488C37.4954 20.5099 40.6696 17.2018 44.2406 16.9372C47.8777 16.6063 51.5809 19.6498 51.8454 23.2887L52.3745 32.5515C52.5067 35.8596 55.0197 53.2602 55.9455 53.7895L61.4342 46.3794C64.3439 43.4682 67.1213 40.4248 71.3536 43.1374C75.652 45.8501 72.6101 51.4077 70.6923 54.4512L66.5262 63.4492C67.0552 65.2356 65.3358 78.4019 64.7407 80.4529L121.48 166.067C131.399 177.314 148.593 188.694 137.417 198.619C126.175 208.543 119.628 205.036 109.709 193.789L24.4679 108.043C23.8066 107.249 23.2114 106.521 22.6824 105.793C20.6985 104.404 11.242 98.4491 7.20813 73.969C6.41457 73.0428 5.88554 71.9842 5.62102 70.7932L1.19035 52.5986C0.198413 48.3642 2.84359 44.1298 7.07587 43.0713Z" fill="#EEB8A5" stroke="#0C1424" stroke-width="3" stroke-miterlimit="10" stroke-linecap="round" stroke-linejoin="round"/>
<path d="M212.87 187.107L305.121 218.534L292.093 186.908L284.356 163.95C282.108 162.825 202.224 132.986 199.182 132.457L193.164 141.455L182.781 137.617L161.752 134.971L127.696 140.859L130.473 142.116L127.233 137.948C126.505 138.08 95.1601 119.158 94.4988 119.29L65.0051 79.9238C60.9051 88.9219 39.2808 105.065 23.0129 107.315L52.9695 157.598C55.6808 161.899 59.318 165.604 63.6164 168.317C77.3051 176.852 106.402 193.921 108.518 195.112L99.3262 272.059C148.394 267.163 194.486 303.685 219.285 274.772L212.87 187.107Z" fill="#E62336" stroke="#0C1424" stroke-width="3.0144" stroke-linecap="round" stroke-linejoin="round"/>
<g style="mix-blend-mode:multiply">
<path d="M99.5247 128.951C99.5247 128.951 101.575 145.028 105.476 154.225C108.783 161.966 119.231 160.245 118.702 153.365C117.578 147.608 118.107 144.036 117.181 138.213C118.834 150.85 169.622 181.417 202.951 135.501C190.651 135.501 109.841 121.938 109.841 121.938L99.5247 128.951Z" fill="#C4C4C4"/>
</g>
<path d="M107.196 111.418C115.991 109.433 112.089 106.191 109.378 94.0833C106.667 82.0418 104.683 72.4483 95.8877 74.4331C87.0925 76.418 82.3312 81.1817 85.0425 93.2894C87.8199 105.331 98.4667 113.403 107.196 111.418Z" fill="#EEB9A6" stroke="#0C1424" stroke-width="2.7512" stroke-miterlimit="10" stroke-linecap="round" stroke-linejoin="round"/>
<path d="M241.703 101.361C244.414 89.3191 239.521 77.9392 230.725 75.9544C221.93 73.9695 212.606 82.1736 209.895 94.2151C207.183 106.257 212.077 117.637 220.872 119.621C229.667 121.606 238.992 113.468 241.703 101.361Z" fill="#EEB9A6" stroke="#0C1424" stroke-width="2.7512" stroke-miterlimit="10" stroke-linecap="round" stroke-linejoin="round"/>
<path d="M162.017 152.835C189.13 153.298 223.517 124.65 223.517 88.2607C223.517 51.8714 198.19 19.3857 161.819 19.3857C125.448 19.3857 96.02 48.8941 96.02 85.2834C96.0861 121.673 130.87 152.306 162.017 152.835Z" fill="#EEB9A6" stroke="#0C1424" stroke-width="2.7512" stroke-miterlimit="10" stroke-linecap="round" stroke-linejoin="round"/>
<path d="M125.778 73.7054C125.778 73.7054 140.525 63.7149 149.452 71.9852" stroke="#0C1424" stroke-width="2.7512" stroke-miterlimit="10" stroke-linecap="round" stroke-linejoin="round"/>
<path d="M173.854 72.5803C173.854 72.5803 190.849 61.7296 200.703 79.4611" stroke="#0C1424" stroke-width="2.7512" stroke-miterlimit="10" stroke-linecap="round" stroke-linejoin="round"/>
<path d="M164.133 109.367H159.967C157.983 109.367 156.462 107.647 156.66 105.728L160.231 98.7148" stroke="#0C1424" stroke-width="2.7512" stroke-miterlimit="10" stroke-linecap="round" stroke-linejoin="round"/>
<g style="mix-blend-mode:multiply">
<path d="M119.628 50.2179C119.628 50.2179 207.382 79.197 218.227 104.074C224.443 81.248 178.483 45.6527 119.628 50.2179Z" fill="#C4C4C4"/>
</g>
<path d="M115.33 149.659C110.767 99.1114 108.386 54.7166 120.686 49.5559C122.868 55.1135 218.624 69.4046 216.971 101.758C216.64 108.573 216.177 148.998 216.574 149.858C217.103 151.049 224.708 144.168 225.898 144.697C227.948 145.557 222.856 137.353 224.642 134.376C226.361 128.157 235.288 56.0398 220.74 32.8169C193.296 -16.0771 108.188 -2.97693 98.0038 34.6032C88.878 68.1475 95.2264 118.695 105.543 149.196C107.526 158.194 115.925 156.739 115.33 149.659Z" fill="#FFED00" stroke="#0C1424" stroke-width="3.0144" stroke-linecap="round" stroke-linejoin="round"/>
<path d="M181.856 95.8694C178.417 95.8032 175.706 92.9582 175.772 89.5178C175.838 86.0774 178.682 83.3647 182.12 83.4309C185.559 83.497 188.27 86.342 188.204 89.7825C188.138 93.2229 185.295 95.9355 181.856 95.8694Z" fill="white" stroke="#0C1424" stroke-width="3" stroke-miterlimit="10" stroke-linecap="round" stroke-linejoin="round"/>
<path d="M188.733 87.2027L193.892 85.4824" stroke="#0C1424" stroke-width="3" stroke-linecap="round"/>
<path d="M187.94 91.3706L193.098 89.6504" stroke="#0C1424" stroke-width="3" stroke-linecap="round"/>
<path d="M140.459 95.5383C137.02 95.4722 134.309 92.6272 134.375 89.1868C134.441 85.7463 137.285 83.0337 140.723 83.0998C144.162 83.166 146.873 86.011 146.807 89.4514C146.741 92.8918 143.898 95.6045 140.459 95.5383Z" fill="white" stroke="#0C1424" stroke-width="3" stroke-miterlimit="10" stroke-linecap="round" stroke-linejoin="round"/>
<path d="M129.019 89.8486L134.375 91.0396" stroke="#0C1424" stroke-width="3" stroke-linecap="round"/>
<path d="M128.423 86.4082L133.78 87.5991" stroke="#0C1424" stroke-width="3" stroke-linecap="round"/>
<path d="M183.84 116.115C183.84 116.115 184.766 129.017 154.478 126.834" stroke="#0C1424" stroke-width="2.5708" stroke-miterlimit="10" stroke-linecap="round" stroke-linejoin="round"/>
<path d="M23.8066 27.3906L27.7744 53.3262" stroke="#0C1424" stroke-width="3" stroke-miterlimit="10" stroke-linecap="round" stroke-linejoin="round"/>
<path d="M12.4985 43.0713L15.8711 58.5533" stroke="#0C1424" stroke-width="3" stroke-miterlimit="10" stroke-linecap="round" stroke-linejoin="round"/>
<path d="M83.9843 84.9521C81.7359 83.7612 80.8762 80.9162 82.0666 78.6667C83.2569 76.4172 86.1005 75.5571 88.3489 76.748C90.5973 77.9389 91.4569 80.7839 90.2666 83.0334" stroke="#0C1424" stroke-width="3" stroke-miterlimit="10" stroke-linecap="round" stroke-linejoin="round"/>
<path d="M52.5727 404.318L52.4404 400.348L152.23 397.04L152.362 401.01C152.428 402.664 150.576 404.053 148.262 404.119L56.8711 407.163C54.5566 407.295 52.6388 405.972 52.5727 404.318Z" fill="#5C5C5C" stroke="#0C1424" stroke-width="1.966" stroke-linecap="round" stroke-linejoin="round"/>
<path d="M52.3082 396.312C52.176 392.805 54.1599 389.63 57.2679 388.108L86.7616 373.42L94.8955 362.569C98.7311 363.959 105.873 367.465 105.873 367.465C124.522 367.068 136.888 365.944 144.955 359.394C151.833 372.692 152.693 382.484 152.23 397.106L52.4405 400.414L52.3082 396.312Z" fill="#CE947B" stroke="#0C1424" stroke-width="3" stroke-miterlimit="10" stroke-linecap="round" stroke-linejoin="round"/>
<path d="M266.7 404.318L266.832 400.348L167.043 397.04L166.91 401.01C166.844 402.664 168.696 404.053 171.01 404.119L262.401 407.163C264.716 407.295 266.633 405.972 266.7 404.318Z" fill="#5C5C5C" stroke="#0C1424" stroke-width="1.966" stroke-linecap="round" stroke-linejoin="round"/>
<path d="M266.964 396.312C267.096 392.805 265.113 389.63 262.005 388.108L232.511 373.42L224.377 362.569C220.541 363.959 213.399 367.465 213.399 367.465C194.751 367.068 182.385 365.944 174.317 359.394C167.44 372.692 166.58 382.484 167.043 397.106L266.832 400.414L266.964 396.312Z" fill="#CE947B" stroke="#0C1424" stroke-width="3" stroke-miterlimit="10" stroke-linecap="round" stroke-linejoin="round"/>
<path d="M236.082 62.1925L287.398 20.6426L309.023 83.0336L227.353 369.252L154.346 348.41L236.082 62.1925Z" fill="#FFED00" stroke="#0C1424" stroke-width="3.0144" stroke-linecap="round" stroke-linejoin="round"/>
<path d="M287.464 20.5762L236.148 61.9937C239.719 66.8236 249.572 74.8954 260.153 68.8746C270.932 78.2697 297.714 94.0824 309.089 82.8349L287.464 20.5762Z" fill="#F2B782" stroke="#0C1424" stroke-width="3.0144" stroke-linecap="round" stroke-linejoin="round"/>
<path d="M287.53 20.6426L272.585 32.7503C275.098 44.461 279.397 47.9014 295.664 44.5933L287.53 20.6426Z" fill="#0C1424" stroke="#0C1424" stroke-width="3.0144" stroke-linecap="round" stroke-linejoin="round"/>
<path d="M165.059 340.14L222.658 356.548C226.89 357.739 229.337 362.172 228.146 366.407L217.367 404.185C216.177 408.42 211.746 410.868 207.514 409.677L149.915 393.268C145.683 392.077 143.236 387.645 144.427 383.41L155.206 345.632C156.396 341.331 160.827 338.883 165.059 340.14Z" fill="#E62336" stroke="#0C1424" stroke-width="3.0144" stroke-linecap="round" stroke-linejoin="round"/>
<path d="M162.215 322.74L234.23 343.25C237.14 344.11 238.859 347.087 238 349.998C237.14 352.91 234.164 354.564 231.188 353.77L159.173 333.259C156.264 332.399 154.544 329.422 155.404 326.511C156.264 323.6 159.306 321.946 162.215 322.74Z" fill="#CAC7C6" stroke="#0C1424" stroke-width="3.0144" stroke-linecap="round" stroke-linejoin="round"/>
<path d="M158.711 333.127L231.717 353.968C234.363 354.696 235.884 357.475 235.156 360.121C234.429 362.768 231.651 364.289 229.006 363.562L155.999 342.721C153.354 341.993 151.833 339.214 152.56 336.567C153.354 333.921 156.065 332.399 158.711 333.127Z" fill="#CAC7C6" stroke="#0C1424" stroke-width="3.0144" stroke-linecap="round" stroke-linejoin="round"/>
<path d="M230.262 128.619C233.569 129.546 237.008 127.627 238 124.319C238.925 121.011 237.008 117.57 233.701 116.644C230.395 115.718 226.956 117.636 225.964 120.945C225.038 124.187 226.956 127.627 230.262 128.619Z" fill="white" stroke="#0C1424" stroke-width="3.0144" stroke-miterlimit="10" stroke-linecap="round" stroke-linejoin="round"/>
<path d="M273.511 140.925C276.818 141.851 280.256 139.933 281.248 136.625C282.174 133.316 280.256 129.876 276.95 128.95C273.643 128.023 270.205 129.942 269.213 133.25C268.287 136.558 270.205 139.999 273.511 140.925Z" fill="white" stroke="#0C1424" stroke-width="3.0144" stroke-miterlimit="10" stroke-linecap="round" stroke-linejoin="round"/>
<path fill-rule="evenodd" clip-rule="evenodd" d="M227.022 136.36C225.766 136.029 224.575 136.89 224.509 138.147C224.311 149.527 231.85 159.98 243.29 163.156C254.796 166.266 266.567 161.039 272.122 151.181C272.718 150.056 272.122 148.733 270.866 148.402L227.022 136.36Z" fill="#0C1424" stroke="#0C1424" stroke-width="3" stroke-linecap="round" stroke-linejoin="round"/>
<path d="M270.998 148.336L227.088 136.36C225.832 136.029 224.642 136.89 224.575 138.147C224.575 138.874 224.575 139.602 224.642 140.33C224.708 141.19 225.303 141.852 226.096 142.05L268.882 153.695C269.676 153.893 270.535 153.629 271.064 152.967C271.461 152.372 271.858 151.776 272.189 151.114C272.85 149.99 272.189 148.666 270.998 148.336Z" fill="white" stroke="#0C1424" stroke-width="2.5063"/>
<g style="mix-blend-mode:multiply">
<path d="M267.89 202.721L252.945 206.69C221.666 193.326 199.248 229.649 199.248 229.649C197.33 232.031 197.661 235.537 200.174 237.588C202.29 239.308 205.199 239.308 207.183 237.787L205.332 239.772C203.149 242.418 203.546 246.255 206.191 248.439C208.77 250.622 212.606 250.225 214.788 247.513C214.788 247.513 219.285 242.021 222.327 238.184C218.888 242.484 213.598 249.167 213.598 249.167C211.217 252.012 211.019 255.915 214.524 258.694C219.021 262.201 222.195 259.62 230.792 249.299C227.485 253.401 223.054 258.826 223.054 258.826C220.674 261.671 221.137 265.972 223.98 268.354C226.824 270.736 231.056 270.272 233.371 267.361L240.645 258.429C248.25 260.282 254.598 259.025 259.69 256.511" fill="#C4C4C4"/>
</g>
<path d="M278.471 193.524L252.945 200.273C221.666 186.908 199.248 223.231 199.248 223.231C197.33 225.613 197.661 229.12 200.174 231.171C202.62 233.155 206.191 232.891 208.109 230.443L216.904 221.048L219.285 224.488C227.022 235.736 234.032 251.482 240.182 251.879C253.276 255.188 262.6 249.498 268.419 243.543C269.874 243.212 271.263 242.683 272.651 242.021L303.269 223.099C314.776 217.541 324.497 198.486 315.569 184.063C308.427 169.97 286.869 164.347 286.869 164.347" fill="#EEB9A6"/>
<path d="M278.471 193.524L252.945 200.273C221.666 186.908 199.248 223.231 199.248 223.231C197.33 225.613 197.661 229.12 200.174 231.171C202.62 233.155 206.191 232.891 208.109 230.443L216.904 221.048L219.285 224.488C227.022 235.736 234.032 251.482 240.182 251.879C253.276 255.187 262.6 249.498 268.419 243.543C269.874 243.212 271.263 242.683 272.651 242.021L303.269 223.099C314.776 217.541 324.497 198.486 315.569 184.063C308.427 169.97 286.869 164.347 286.869 164.347" stroke="#0C1424" stroke-width="2.7512" stroke-miterlimit="10" stroke-linecap="round" stroke-linejoin="round"/>
<path d="M278.471 193.524L255.524 199.677C270.734 219.989 271.263 242.683 272.651 242.021L303.269 223.099C314.776 217.541 324.497 198.486 315.569 184.063C308.427 169.97 286.869 164.347 286.869 164.347" fill="#E62336"/>
<path d="M278.471 193.524L255.524 199.677C270.734 219.989 271.263 242.683 272.651 242.021L303.269 223.099C314.776 217.541 324.497 198.486 315.569 184.063C308.427 169.97 286.869 164.347 286.869 164.347" stroke="#0C1424" stroke-width="3.0144" stroke-linecap="round" stroke-linejoin="round"/>
<path d="M243.356 248.571L233.238 261.01C230.924 263.921 226.691 264.384 223.848 262.002C221.004 259.62 220.541 255.32 222.922 252.475C222.922 252.475 233.767 239.11 234.164 238.581C222.856 252.541 219.417 256.246 214.391 252.343C210.887 249.564 211.085 245.66 213.466 242.815C213.466 242.815 222.922 230.906 224.774 228.657C223.253 230.575 214.656 241.161 214.656 241.161C212.474 243.808 208.638 244.205 206.059 242.087C203.48 239.904 203.083 236.067 205.199 233.42L217.83 219.989" fill="#EEB9A6"/>
<path d="M243.356 248.571L233.238 261.01C230.924 263.921 226.691 264.384 223.848 262.002C221.004 259.62 220.541 255.32 222.922 252.475C222.922 252.475 233.767 239.11 234.164 238.581C222.856 252.541 219.417 256.246 214.391 252.343C210.887 249.564 211.085 245.66 213.466 242.815C213.466 242.815 222.922 230.906 224.774 228.657C223.253 230.575 214.656 241.161 214.656 241.161C212.474 243.808 208.638 244.205 206.059 242.087C203.48 239.904 203.083 236.067 205.199 233.42L217.83 219.989" stroke="#0C1424" stroke-width="2.7512" stroke-miterlimit="10" stroke-linecap="round" stroke-linejoin="round"/>
<g style="mix-blend-mode:multiply">
<path d="M101.707 271.861L100.583 281.124C100.583 281.124 137.417 281.984 169.622 294.025C173.325 282.711 172.598 283.241 172.598 283.241C172.598 283.241 121.414 269.347 101.707 271.861Z" fill="#C4C4C4"/>
</g>
<g style="mix-blend-mode:multiply">
<path d="M155.999 342.721L229.006 363.562L227.154 371.369L154.147 350.66L155.999 342.721Z" fill="#C4C4C4"/>
</g>
</g>
<defs>
<clipPath id="clip0">
<rect width="320" height="411" fill="white"/>
</clipPath>
</defs>
</svg>
