<svg width="40" height="38" viewBox="0 0 40 38" fill="none" xmlns="http://www.w3.org/2000/svg">
<path d="M39.9984 7.60132V19.2977C39.738 18.5192 39.3995 17.787 38.9828 17.1009C38.5662 16.4148 38.0714 15.7749 37.4986 15.1812V7.60132H23.7497C23.0206 7.60132 22.4347 7.66069 21.992 7.77944C21.5494 7.89818 21.1718 8.05651 20.8593 8.25442C20.5468 8.45232 20.2799 8.65683 20.0586 8.86793C19.8373 9.07903 19.5964 9.28354 19.336 9.48145C19.0756 9.67936 18.7501 9.83109 18.3595 9.93664C17.9689 10.0422 17.4742 10.1082 16.8753 10.1345H2.50142V27.8671H20V30.4003H2.50142C2.14989 30.4003 1.8244 30.3344 1.52494 30.2024C1.22549 30.0705 0.965091 29.8924 0.743755 29.6681C0.522418 29.4438 0.340142 29.1733 0.196924 28.8567C0.0537066 28.54 -0.0113923 28.2101 0.00162747 27.8671V2.53487C0.00162747 2.17864 0.0667263 1.84879 0.196924 1.54533C0.327122 1.24187 0.502889 0.977996 0.724225 0.7537C0.945561 0.529404 1.21247 0.34469 1.52494 0.199557C1.83742 0.0544247 2.16291 -0.0115446 2.50142 0.00164923H16.8753C17.357 0.00164923 17.8062 0.0874094 18.2228 0.25893C18.6394 0.43045 19.017 0.66794 19.3555 0.971399C19.694 1.27486 20.0065 1.6113 20.2929 1.98073C20.5794 2.35016 20.8398 2.73938 21.0741 3.14839C21.2434 3.45185 21.4061 3.72232 21.5624 3.95981C21.7186 4.1973 21.9009 4.39521 22.1092 4.55354C22.3175 4.71186 22.5454 4.8372 22.7927 4.92956C23.0401 5.02192 23.3591 5.0681 23.7497 5.0681H37.4986C37.8501 5.0681 38.1756 5.13407 38.4751 5.266C38.7745 5.39794 39.0349 5.57606 39.2562 5.80036C39.4776 6.02465 39.6599 6.29513 39.8031 6.61178C39.9463 6.92843 40.0114 7.25828 39.9984 7.60132ZM16.8753 7.60132C17.2268 7.60132 17.5197 7.54195 17.7541 7.4232C17.9884 7.30446 18.2163 7.15933 18.4376 6.98781C18.659 6.81628 18.8803 6.63157 19.1016 6.43366C19.323 6.23575 19.5769 6.05104 19.8633 5.87952C19.668 5.65522 19.4662 5.35836 19.2579 4.98893C19.0496 4.6195 18.8152 4.25008 18.5548 3.88065C18.2944 3.51122 18.034 3.19457 17.7736 2.93069C17.5132 2.66681 17.2138 2.53487 16.8753 2.53487H2.50142V7.60132H16.8753ZM34.4519 28.916C35.2982 29.3514 36.0599 29.8858 36.7369 30.5191C37.4139 31.1524 37.9998 31.8649 38.4946 32.6565C38.9893 33.4481 39.3604 34.2925 39.6078 35.1897C39.8552 36.0869 39.9853 37.0237 39.9984 38H37.4986C37.4986 36.9577 37.3033 35.9747 36.9127 35.0512C36.5221 34.1276 35.9883 33.3228 35.3113 32.6367C34.6342 31.9506 33.8335 31.4031 32.9091 30.9941C31.9847 30.585 31.0147 30.3871 29.9992 30.4003C28.9576 30.4003 27.9876 30.5982 27.0893 30.9941C26.1909 31.3899 25.3967 31.9308 24.7066 32.6169C24.0166 33.303 23.4763 34.1144 23.0857 35.0512C22.6951 35.9879 22.4998 36.9709 22.4998 38H20C20 37.0368 20.1302 36.1067 20.3906 35.2095C20.651 34.3123 21.0221 33.4679 21.5038 32.6763C21.9855 31.8846 22.5649 31.1722 23.2419 30.5389C23.919 29.9056 24.6871 29.3646 25.5464 28.916C24.583 28.1904 23.8343 27.2932 23.3005 26.2245C22.7667 25.1558 22.4998 24.0145 22.4998 22.8007C22.4998 21.7583 22.6951 20.7754 23.0857 19.8518C23.4763 18.9283 24.0101 18.1234 24.6871 17.4374C25.3641 16.7513 26.1584 16.2037 27.0697 15.7947C27.9811 15.3857 28.9576 15.1878 29.9992 15.201C31.0277 15.201 31.9977 15.3989 32.9091 15.7947C33.8205 16.1905 34.6147 16.7315 35.2917 17.4176C35.9688 18.1036 36.5091 18.9151 36.9127 19.8518C37.3163 20.7886 37.5116 21.7715 37.4986 22.8007C37.4986 24.0145 37.2317 25.1558 36.6979 26.2245C36.164 27.2932 35.4154 28.1904 34.4519 28.916ZM24.9996 22.8007C24.9996 23.4999 25.1298 24.153 25.3902 24.76C25.6506 25.3669 26.0086 25.9078 26.4643 26.3828C26.92 26.8578 27.4473 27.2206 28.0462 27.4713C28.6451 27.722 29.2961 27.8539 29.9992 27.8671C30.6892 27.8671 31.3337 27.7352 31.9326 27.4713C32.5315 27.2074 33.0653 26.8446 33.5341 26.3828C34.0028 25.921 34.3608 25.3867 34.6082 24.7797C34.8556 24.1728 34.9858 23.5131 34.9988 22.8007C34.9988 22.1014 34.8686 21.4483 34.6082 20.8414C34.3478 20.2345 33.9897 19.6935 33.5341 19.2185C33.0784 18.7435 32.5511 18.3807 31.9522 18.13C31.3532 17.8793 30.7023 17.7474 29.9992 17.7342C29.3091 17.7342 28.6647 17.8662 28.0657 18.13C27.4668 18.3939 26.933 18.7567 26.4643 19.2185C25.9956 19.6803 25.6376 20.2147 25.3902 20.8216C25.1428 21.4285 25.0126 22.0882 24.9996 22.8007Z" fill="#0C1424"/>
</svg>
