<svg width="40" height="39" viewBox="0 0 40 39" fill="none" xmlns="http://www.w3.org/2000/svg">
<path d="M39.9984 7.63769V25.4551H37.4986V7.63769H23.7497C23.0206 7.63769 22.4347 7.69735 21.992 7.81666C21.5494 7.93597 21.1718 8.09506 20.8593 8.29391C20.5468 8.49277 20.2799 8.69825 20.0586 8.91036C19.8373 9.12247 19.5964 9.32796 19.336 9.52681C19.0756 9.72567 18.7501 9.87812 18.3595 9.98418C17.9689 10.0902 17.4742 10.1565 16.8753 10.183H2.50142V28.0004H20V30.5458H2.50142C2.14989 30.5458 1.8244 30.4795 1.52494 30.3469C1.22549 30.2144 0.965091 30.0354 0.743755 29.81C0.522418 29.5847 0.340142 29.3129 0.196924 28.9947C0.0537066 28.6765 -0.0113923 28.3451 0.00162747 28.0004V2.547C0.00162747 2.18906 0.0667263 1.85764 0.196924 1.55273C0.327122 1.24782 0.502889 0.982675 0.724225 0.757306C0.945561 0.531937 1.21247 0.346339 1.52494 0.200512C1.83742 0.0546851 2.16291 -0.0115999 2.50142 0.00165713H16.8753C17.357 0.00165713 17.8062 0.0878276 18.2228 0.260169C18.6394 0.43251 19.017 0.671136 19.3555 0.976047C19.694 1.28096 20.013 1.61901 20.3125 1.99021C20.6119 2.3614 20.8658 2.75248 21.0741 3.16345C21.2434 3.46836 21.4061 3.74013 21.5624 3.97876C21.7186 4.21738 21.9009 4.41624 22.1092 4.57532C22.3175 4.73441 22.5454 4.86035 22.7927 4.95315C23.0401 5.04595 23.3591 5.09235 23.7497 5.09235H37.4986C37.8501 5.09235 38.1756 5.15863 38.4751 5.2912C38.7745 5.42377 39.0349 5.60274 39.2562 5.82811C39.4776 6.05348 39.6599 6.32525 39.8031 6.64341C39.9463 6.96158 40.0114 7.29301 39.9984 7.63769ZM16.8753 7.63769C17.2268 7.63769 17.5197 7.57803 17.7541 7.45872C17.9884 7.33941 18.2163 7.19358 18.4376 7.02124C18.659 6.8489 18.8803 6.6633 19.1016 6.46445C19.323 6.26559 19.5769 6.07999 19.8633 5.90765C19.668 5.68228 19.4662 5.384 19.2579 5.0128C19.0496 4.64161 18.8152 4.27041 18.5548 3.89922C18.2944 3.52802 18.034 3.20985 17.7736 2.94471C17.5132 2.67957 17.2138 2.547 16.8753 2.547H2.50142V7.63769H16.8753ZM32.499 20.3644V28.0004H39.9984V30.5458H32.499V38.1818H29.9992V30.5458H22.4998V28.0004H29.9992V20.3644H32.499Z" fill="#0C1424"/>
</svg>
