<svg width="28" height="32" viewBox="0 0 28 32" fill="none" xmlns="http://www.w3.org/2000/svg">
<path d="M0 25.1429V27.4286H9.33333C9.33333 28.0595 9.45486 28.6488 9.69792 29.1964C9.94097 29.744 10.2752 30.2321 10.7005 30.6607C11.1259 31.0893 11.6181 31.4167 12.1771 31.6429C12.7361 31.869 13.3438 31.9881 14 32C14.6441 32 15.2457 31.881 15.8047 31.6429C16.3637 31.4048 16.862 31.0774 17.2995 30.6607C17.737 30.244 18.0712 29.7619 18.3021 29.2143C18.533 28.6667 18.6545 28.0714 18.6667 27.4286H28V25.1429H25.6667V11.4286C25.6667 10.381 25.5269 9.36905 25.2474 8.39286C24.9679 7.41667 24.579 6.50595 24.0807 5.66071C23.5825 4.81548 22.9748 4.04762 22.2578 3.35714C21.5408 2.66667 20.7509 2.07143 19.888 1.57143C19.0252 1.07143 18.0955 0.684524 17.099 0.410714C16.1024 0.136905 15.0694 0 14 0C12.9306 0 11.8976 0.136905 10.901 0.410714C9.90451 0.684524 8.97483 1.06548 8.11198 1.55357C7.24913 2.04167 6.46528 2.6369 5.76042 3.33929C5.05556 4.04167 4.44792 4.81548 3.9375 5.66071C3.42708 6.50595 3.03212 7.41667 2.75261 8.39286C2.47309 9.36905 2.33333 10.381 2.33333 11.4286V25.1429H0ZM4.66667 25.1429V11.4286C4.66667 10.1667 4.90972 8.98214 5.39583 7.875C5.88194 6.76786 6.55035 5.80357 7.40104 4.98214C8.25174 4.16071 9.24219 3.50595 10.3724 3.01786C11.5026 2.52976 12.7118 2.28571 14 2.28571C15.2882 2.28571 16.4974 2.52381 17.6276 3C18.7578 3.47619 19.7422 4.13095 20.5807 4.96429C21.4193 5.79762 22.0877 6.76786 22.5859 7.875C23.0842 8.98214 23.3333 10.1667 23.3333 11.4286V25.1429H4.66667ZM14 29.7143C13.6719 29.7143 13.3681 29.6548 13.0885 29.5357C12.809 29.4167 12.566 29.256 12.3594 29.0536C12.1528 28.8512 11.9826 28.6071 11.849 28.3214C11.7153 28.0357 11.6545 27.7381 11.6667 27.4286H16.3333C16.3333 27.75 16.2726 28.0476 16.151 28.3214C16.0295 28.5952 15.8655 28.8333 15.6589 29.0357C15.4523 29.2381 15.2031 29.4048 14.9115 29.5357C14.6198 29.6667 14.316 29.7262 14 29.7143Z" fill="#0C1424"/>
</svg>
