<svg width="40" height="40" viewBox="0 0 40 40" fill="none" xmlns="http://www.w3.org/2000/svg">
<path d="M40 6.54297C40 7.40234 39.8372 8.23568 39.5117 9.04297C39.1862 9.85026 38.7109 10.5664 38.0859 11.1914L12.3633 36.9141L0 40L3.08594 27.6367L28.8086 1.91406C29.4336 1.28906 30.1497 0.813802 30.957 0.488281C31.7643 0.16276 32.5977 0 33.457 0C34.3555 0 35.2018 0.169271 35.9961 0.507812C36.7904 0.846354 37.4805 1.3151 38.0664 1.91406C38.6523 2.51302 39.1211 3.20964 39.4727 4.00391C39.8242 4.79818 40 5.64453 40 6.54297ZM6.36719 27.8906C7.7474 28.3464 8.93229 29.069 9.92188 30.0586C10.9115 31.0482 11.6406 32.2396 12.1094 33.6328L33.2227 12.5L27.5 6.77734L6.36719 27.8906ZM3.4375 36.5625L9.86328 34.9609C9.73307 34.362 9.52474 33.7956 9.23828 33.2617C8.95182 32.7279 8.59375 32.2526 8.16406 31.8359C7.73438 31.4193 7.25911 31.0677 6.73828 30.7812C6.21745 30.4948 5.65104 30.2799 5.03906 30.1367L3.4375 36.5625ZM35 10.7227C35.3255 10.3971 35.638 10.0911 35.9375 9.80469C36.237 9.51823 36.5039 9.21875 36.7383 8.90625C36.9727 8.59375 37.1549 8.2487 37.2852 7.87109C37.4154 7.49349 37.487 7.05729 37.5 6.5625C37.5 6.0026 37.3958 5.48177 37.1875 5C36.9792 4.51823 36.6862 4.08854 36.3086 3.71094C35.931 3.33333 35.5013 3.04036 35.0195 2.83203C34.5378 2.6237 34.0104 2.51302 33.4375 2.5C32.9427 2.5 32.513 2.5651 32.1484 2.69531C31.7839 2.82552 31.4388 3.01432 31.1133 3.26172C30.7878 3.50911 30.4818 3.77604 30.1953 4.0625C29.9089 4.34896 29.6029 4.66146 29.2773 5L35 10.7227Z" fill="#0C1424"/>
</svg>
