<svg width="40" height="41" viewBox="0 0 40 41" fill="none" xmlns="http://www.w3.org/2000/svg">
<path d="M31.3872 23.873C31.9601 23.873 32.507 23.9772 33.0278 24.1855C33.5487 24.3939 34.0174 24.7064 34.4341 25.123L38.731 29.4199C39.1346 29.8236 39.4406 30.2858 39.6489 30.8066C39.8573 31.3275 39.9679 31.8809 39.981 32.4668C39.981 33.0397 39.8768 33.5866 39.6685 34.1074C39.4601 34.6283 39.1476 35.097 38.731 35.5137L38.4575 35.7871C37.7544 36.4902 37.1099 37.1152 36.5239 37.6621C35.938 38.209 35.326 38.6647 34.688 39.0293C34.05 39.3939 33.3403 39.6803 32.5591 39.8887C31.7778 40.097 30.8468 40.1947 29.7661 40.1816C28.1385 40.1816 26.4653 39.9277 24.7466 39.4199C23.0278 38.9121 21.3221 38.209 19.6294 37.3105C17.9367 36.4121 16.27 35.3444 14.6294 34.1074C12.9888 32.8704 11.4458 31.5228 10.0005 30.0645C8.55518 28.6061 7.21403 27.0566 5.97705 25.416C4.74007 23.7754 3.68538 22.1087 2.81299 20.416C1.94059 18.7233 1.25049 17.0241 0.742676 15.3184C0.234863 13.6126 -0.0125326 11.972 0.000488281 10.3965C0.000488281 9.31575 0.0916341 8.39128 0.273926 7.62305C0.456217 6.85482 0.736165 6.15169 1.11377 5.51367C1.49137 4.87565 1.9471 4.27018 2.48096 3.69727C3.01481 3.12435 3.63981 2.47982 4.35596 1.76367L4.66846 1.45117C5.0721 1.04753 5.53434 0.735026 6.05518 0.513672C6.57601 0.292318 7.12939 0.181641 7.71533 0.181641C8.28825 0.181641 8.83512 0.292318 9.35596 0.513672C9.87679 0.735026 10.3455 1.04753 10.7622 1.45117L15.0591 5.74805C15.4627 6.15169 15.7687 6.61393 15.9771 7.13477C16.1854 7.6556 16.2961 8.20898 16.3091 8.79492C16.3091 9.36784 16.2114 9.87565 16.0161 10.3184C15.8208 10.7611 15.5799 11.1712 15.2935 11.5488C15.007 11.9264 14.6945 12.2585 14.356 12.5449C14.0174 12.8314 13.6984 13.1243 13.3989 13.4238C13.0994 13.7233 12.8586 14.0098 12.6763 14.2832C12.494 14.5566 12.3963 14.8757 12.3833 15.2402C12.3833 15.735 12.5591 16.1582 12.9106 16.5098L23.6724 27.2715C24.0239 27.623 24.4471 27.7988 24.9419 27.7988C25.2804 27.7988 25.5929 27.7012 25.8794 27.5059C26.1659 27.3105 26.4588 27.0697 26.7583 26.7832C27.0578 26.4967 27.3507 26.1842 27.6372 25.8457C27.9237 25.5072 28.2557 25.1882 28.6333 24.8887C29.0109 24.5892 29.4146 24.3483 29.8442 24.166C30.2739 23.9837 30.7882 23.8861 31.3872 23.873ZM29.7661 37.6816C30.7036 37.6816 31.4849 37.597 32.1099 37.4277C32.7349 37.2585 33.3078 37.0046 33.8286 36.666C34.3494 36.3275 34.8442 35.9108 35.313 35.416C35.7817 34.9212 36.3351 34.3613 36.9731 33.7363C37.3247 33.3848 37.5005 32.9616 37.5005 32.4668C37.5005 32.2324 37.4093 31.959 37.2271 31.6465C37.0448 31.334 36.7974 30.9954 36.4849 30.6309C36.1724 30.2663 35.8403 29.9082 35.4888 29.5566C35.1372 29.2051 34.7726 28.8535 34.395 28.502C34.0174 28.1504 33.6854 27.8444 33.3989 27.584C33.1125 27.3236 32.8716 27.0957 32.6763 26.9004C32.3247 26.5488 31.895 26.373 31.3872 26.373C31.0487 26.373 30.7362 26.4707 30.4497 26.666C30.1632 26.8613 29.8768 27.1022 29.5903 27.3887C29.3039 27.6751 29.0109 27.9876 28.7114 28.3262C28.4119 28.6647 28.0734 28.9837 27.6958 29.2832C27.3182 29.5827 26.9146 29.8236 26.4849 30.0059C26.0552 30.1882 25.5409 30.2858 24.9419 30.2988C24.369 30.2988 23.8221 30.1947 23.3013 29.9863C22.7804 29.778 22.3117 29.4655 21.895 29.0488L11.1333 18.2871C10.7297 17.8835 10.4237 17.4212 10.2153 16.9004C10.007 16.3796 9.89632 15.8262 9.8833 15.2402C9.8833 14.6673 9.98096 14.1595 10.1763 13.7168C10.3716 13.2741 10.6125 12.8639 10.8989 12.4863C11.1854 12.1087 11.4979 11.7767 11.8364 11.4902C12.175 11.2038 12.494 10.9043 12.7935 10.5918C13.0929 10.2793 13.3338 9.99284 13.5161 9.73242C13.6984 9.472 13.7961 9.1595 13.8091 8.79492C13.8091 8.28711 13.6333 7.85742 13.2817 7.50586C13.1125 7.33659 12.8911 7.10221 12.6177 6.80273C12.3442 6.50326 12.0382 6.17122 11.6997 5.80664C11.3612 5.44206 11.0096 5.07747 10.645 4.71289C10.2804 4.34831 9.91585 4.00977 9.55127 3.69727C9.18669 3.38477 8.85466 3.14388 8.55518 2.97461C8.2557 2.80534 7.97575 2.70768 7.71533 2.68164C7.22054 2.68164 6.79736 2.85742 6.4458 3.20898L4.78564 4.86914C4.30387 5.35091 3.88721 5.8457 3.53564 6.35352C3.18408 6.86133 2.92367 7.42773 2.75439 8.05273C2.58512 8.67773 2.49398 9.45898 2.48096 10.3965C2.48096 11.8548 2.71533 13.3587 3.18408 14.9082C3.65283 16.4577 4.31038 18.0072 5.15674 19.5566C6.00309 21.1061 6.99919 22.6296 8.14502 24.127C9.29085 25.6243 10.5409 27.0501 11.895 28.4043C13.2492 29.7585 14.675 30.9954 16.1724 32.1152C17.6698 33.235 19.1932 34.2116 20.7427 35.0449C22.2922 35.8783 23.8286 36.5228 25.3521 36.9785C26.8755 37.4342 28.3468 37.6686 29.7661 37.6816Z" fill="#0C1424"/>
</svg>
