<svg width="40" height="20" viewBox="0 0 40 20" fill="none" xmlns="http://www.w3.org/2000/svg">
<path d="M20 0.000476361C21.9531 0.000476361 23.8542 0.254377 25.7031 0.762177C27.5521 1.26998 29.3229 1.96658 31.0156 2.85197C32.7083 3.73737 34.3099 4.79854 35.8203 6.03549C37.3307 7.27244 38.724 8.59402 40 10.0002C38.724 11.4325 37.3372 12.7541 35.8398 13.965C34.3424 15.1759 32.7409 16.2306 31.0352 17.129C29.3294 18.0274 27.5521 18.7305 25.7031 19.2383C23.8542 19.7461 21.9531 20 20 20C18.0469 20 16.1458 19.7461 14.2969 19.2383C12.4479 18.7305 10.6771 18.0339 8.98438 17.1485C7.29167 16.2631 5.68359 15.2084 4.16016 13.9845C2.63672 12.7606 1.25 11.4325 0 10.0002C1.26302 8.581 2.64974 7.25942 4.16016 6.03549C5.67057 4.81156 7.27214 3.7569 8.96484 2.8715C10.6576 1.98611 12.4349 1.283 14.2969 0.762177C16.1589 0.241356 18.0599 -0.0125442 20 0.000476361ZM20 17.1485C20.9896 17.1485 21.9141 16.9597 22.7734 16.5821C23.6328 16.2045 24.388 15.6967 25.0391 15.0587C25.6901 14.4207 26.2044 13.6655 26.582 12.7931C26.9596 11.9208 27.1484 10.9898 27.1484 10.0002C27.1484 9.01068 26.9596 8.08622 26.582 7.22687C26.2044 6.36751 25.6966 5.61232 25.0586 4.9613C24.4206 4.31027 23.6654 3.79596 22.793 3.41836C21.9206 3.04077 20.9896 2.85197 20 2.85197C19.0104 2.85197 18.0859 3.04077 17.2266 3.41836C16.3672 3.79596 15.612 4.30376 14.9609 4.94176C14.3099 5.57977 13.7956 6.33496 13.418 7.20734C13.0404 8.07971 12.8516 9.01068 12.8516 10.0002C12.8516 10.9898 13.0404 11.9143 13.418 12.7736C13.7956 13.633 14.3034 14.3882 14.9414 15.0392C15.5794 15.6902 16.3346 16.2045 17.207 16.5821C18.0794 16.9597 19.0104 17.1485 20 17.1485ZM12.6758 16.0938C11.9596 15.2345 11.4128 14.284 11.0352 13.2423C10.6576 12.2007 10.4688 11.12 10.4688 10.0002C10.4688 8.88047 10.6576 7.79977 11.0352 6.75813C11.4128 5.71649 11.9596 4.76599 12.6758 3.90663C10.931 4.59672 9.29688 5.45608 7.77344 6.4847C6.25 7.51332 4.8112 8.68517 3.45703 10.0002C4.79818 11.3023 6.23047 12.4676 7.75391 13.4962C9.27734 14.5249 10.918 15.3907 12.6758 16.0938ZM36.543 10.0002C35.2018 8.69819 33.7695 7.53285 32.2461 6.50423C30.7227 5.47561 29.082 4.60974 27.3242 3.90663C28.0404 4.76599 28.5872 5.71649 28.9648 6.75813C29.3424 7.79977 29.5312 8.88047 29.5312 10.0002C29.5312 11.12 29.3424 12.2007 28.9648 13.2423C28.5872 14.284 28.0404 15.2345 27.3242 16.0938C29.069 15.4038 30.7031 14.5444 32.2266 13.5158C33.75 12.4872 35.1888 11.3153 36.543 10.0002ZM20 6.66047C20.4557 6.66047 20.8854 6.74511 21.2891 6.91437C21.6927 7.08364 22.0443 7.32452 22.3438 7.63701C22.6432 7.94951 22.8841 8.30757 23.0664 8.71121C23.2487 9.11484 23.3398 9.54452 23.3398 10.0002C23.3398 10.456 23.2552 10.8856 23.0859 11.2893C22.9167 11.6929 22.6758 12.051 22.3633 12.3635C22.0508 12.676 21.6927 12.9103 21.2891 13.0666C20.8854 13.2228 20.4557 13.314 20 13.34C19.5443 13.34 19.1146 13.2554 18.7109 13.0861C18.3073 12.9168 17.9492 12.676 17.6367 12.3635C17.3242 12.051 17.0898 11.6994 16.9336 11.3088C16.7773 10.9182 16.6862 10.482 16.6602 10.0002C16.6602 9.54452 16.7448 9.11484 16.9141 8.71121C17.0833 8.30757 17.3242 7.95602 17.6367 7.65654C17.9492 7.35707 18.3008 7.11619 18.6914 6.9339C19.082 6.75162 19.5182 6.66047 20 6.66047Z" fill="#0C1424"/>
</svg>
