<svg width="40" height="35" viewBox="0 0 40 35" fill="none" xmlns="http://www.w3.org/2000/svg">
<path d="M36.249 12.4122C36.7568 12.4122 37.2385 12.5091 37.6942 12.7031C38.1499 12.897 38.5471 13.1621 38.8856 13.4982C39.2241 13.8344 39.4976 14.2288 39.7059 14.6813C39.9142 15.1338 40.0119 15.6187 39.9989 16.1358C39.9989 16.5496 39.9338 16.9439 39.8035 17.3189L34.8037 32.2135C34.6735 32.5884 34.4912 32.9311 34.2568 33.2414C34.0225 33.5517 33.749 33.8232 33.4365 34.0559C33.1241 34.2886 32.7855 34.4567 32.4209 34.5602C32.0564 34.6636 31.6658 34.7282 31.2491 34.7541H21.2494C18.9187 34.7541 16.6727 34.308 14.5113 33.4159C13.5738 33.041 12.6364 32.7565 11.6989 32.5626C10.7614 32.3686 9.77837 32.2717 8.74975 32.2717H0V14.8946H8.1443C8.99063 14.8946 9.78487 14.7395 10.527 14.4292C11.2692 14.1189 11.9463 13.6663 12.5582 13.0716L24.7063 1.02788C25.0318 0.70465 25.3573 0.452527 25.6829 0.271516C26.0084 0.0905055 26.4055 0 26.8742 0C27.3039 0 27.7075 0.0775761 28.0851 0.232728C28.4627 0.387881 28.7947 0.614144 29.0812 0.911519C29.3676 1.20889 29.589 1.53859 29.7452 1.90061C29.9015 2.26264 29.9861 2.66345 29.9991 3.10304C29.9991 4.15032 29.882 5.14588 29.6476 6.08973C29.4132 7.03357 29.0682 7.97741 28.6125 8.92125C28.3521 9.47722 28.1307 10.0396 27.9484 10.6085C27.7661 11.1774 27.6424 11.7786 27.5773 12.4122H36.249ZM31.2491 32.2717C31.5095 32.2717 31.7504 32.1941 31.9717 32.0389C32.1931 31.8838 32.3493 31.6769 32.4405 31.4183C32.5056 31.2373 32.6228 30.8882 32.792 30.371C32.9613 29.8539 33.1761 29.2333 33.4365 28.5092C33.6969 27.7852 33.9704 26.9836 34.2568 26.1044C34.5433 25.2252 34.8428 24.3395 35.1552 23.4474C35.4677 22.5553 35.7542 21.689 36.0146 20.8486C36.275 20.0082 36.5289 19.2453 36.7763 18.5601C37.0237 17.8748 37.1995 17.3189 37.3036 16.8922C37.4078 16.4655 37.4729 16.2134 37.4989 16.1358C37.4989 15.7997 37.3752 15.5088 37.1278 15.2631C36.8805 15.0174 36.5875 14.8946 36.249 14.8946H24.9993C24.9993 14.2094 25.0123 13.5758 25.0383 12.994C25.0644 12.4122 25.1295 11.8368 25.2337 11.2679C25.3378 10.699 25.481 10.1431 25.6633 9.60004C25.8456 9.05701 26.0865 8.46873 26.386 7.83519C26.7505 7.08529 27.024 6.32245 27.2063 5.54669C27.3885 4.77093 27.4862 3.95638 27.4992 3.10304C27.4992 2.92203 27.4406 2.77335 27.3234 2.65698C27.2063 2.54062 27.0565 2.48244 26.8742 2.48244C26.7961 2.48244 26.731 2.50829 26.6789 2.56001C26.6268 2.61173 26.5682 2.66991 26.5031 2.73456L14.3355 14.8364C13.9189 15.2502 13.4762 15.6122 13.0074 15.9225C12.5387 16.2328 12.0309 16.4979 11.484 16.7177C10.4424 17.1573 9.32916 17.3771 8.1443 17.3771H2.49993V29.7892H8.74975C11.0674 29.7892 13.3134 30.2353 15.4878 31.1274C17.3628 31.8902 19.2833 32.2717 21.2494 32.2717H31.2491Z" fill="#0C1424"/>
</svg>
