<svg width="40" height="29" viewBox="0 0 40 29" fill="none" xmlns="http://www.w3.org/2000/svg">
<path d="M39.9984 7.25079V26.582C39.9984 26.9218 39.9333 27.2365 39.8031 27.5259C39.6729 27.8154 39.4971 28.0671 39.2758 28.2811C39.0544 28.495 38.7875 28.6712 38.4751 28.8096C38.1626 28.9481 37.8371 29.011 37.4986 28.9984H2.50142C2.14989 28.9984 1.8244 28.9355 1.52494 28.8096C1.22549 28.6838 0.965091 28.5139 0.743755 28.2999C0.522418 28.086 0.340142 27.828 0.196924 27.5259C0.0537066 27.2239 -0.0113923 26.9092 0.00162747 26.582V2.41798C0.00162747 2.07817 0.0667263 1.76353 0.196924 1.47407C0.327122 1.1846 0.502889 0.932896 0.724225 0.718943C0.945561 0.504991 1.21247 0.328795 1.52494 0.190355C1.83742 0.0519149 2.16291 -0.0110123 2.50142 0.00157318H16.8753C17.357 0.00157318 17.8062 0.0833785 18.2228 0.246989C18.6394 0.4106 19.017 0.637138 19.3555 0.926603C19.694 1.21607 20.0065 1.537 20.2929 1.88939C20.5794 2.24178 20.8398 2.61305 21.0741 3.0032C21.2434 3.29267 21.4061 3.55067 21.5624 3.7772C21.7186 4.00374 21.9009 4.19252 22.1092 4.34355C22.3175 4.49458 22.5454 4.61414 22.7927 4.70223C23.0401 4.79033 23.3591 4.83438 23.7497 4.83438H37.4986C37.8501 4.83438 38.1756 4.89731 38.4751 5.02316C38.7745 5.14902 39.0349 5.31892 39.2562 5.53287C39.4776 5.74683 39.6599 6.00483 39.8031 6.30688C39.9463 6.60893 40.0114 6.92357 39.9984 7.25079ZM16.8753 2.41798H2.50142V7.25079H16.8753C17.2268 7.25079 17.5197 7.19415 17.7541 7.08088C17.9884 6.96761 18.2163 6.82917 18.4376 6.66556C18.659 6.50195 18.8803 6.32576 19.1016 6.13698C19.323 5.94819 19.5769 5.772 19.8633 5.60839C19.668 5.39443 19.4662 5.11126 19.2579 4.75887C19.0496 4.40648 18.8152 4.05408 18.5548 3.70169C18.2944 3.3493 18.034 3.04725 17.7736 2.79554C17.5132 2.54383 17.2138 2.41798 16.8753 2.41798ZM37.4986 26.582V7.25079H23.7497C23.0206 7.25079 22.4347 7.30742 21.992 7.42069C21.5494 7.53396 21.1718 7.68498 20.8593 7.87377C20.5468 8.06255 20.2799 8.25762 20.0586 8.45899C19.8373 8.66036 19.5964 8.85543 19.336 9.04421C19.0756 9.23299 18.7501 9.37773 18.3595 9.47841C17.9689 9.57909 17.4742 9.64202 16.8753 9.66719H2.50142V26.582H37.4986Z" fill="#0C1424"/>
</svg>
