<svg width="40" height="43" viewBox="0 0 40 43" fill="none" xmlns="http://www.w3.org/2000/svg">
<path d="M33.6607 15.4688C34.628 15.9598 35.4985 16.5625 36.2723 17.2768C37.0461 17.9911 37.7158 18.7946 38.2812 19.6875C38.8467 20.5804 39.2708 21.5327 39.5536 22.5446C39.8363 23.5565 39.9851 24.6131 40 25.7143H37.1429C37.1429 24.5387 36.9196 23.4301 36.4732 22.3884C36.0268 21.3467 35.4092 20.439 34.6205 19.6652C33.8318 18.8914 32.9241 18.2812 31.8973 17.8348C30.8705 17.3884 29.7619 17.1577 28.5714 17.1429C27.3958 17.1429 26.2872 17.3661 25.2455 17.8125C24.2039 18.2589 23.2961 18.8765 22.5223 19.6652C21.7485 20.4539 21.1384 21.3616 20.692 22.3884C20.2455 23.4152 20.0149 24.5238 20 25.7143C20 27.0685 19.6949 28.3557 19.0848 29.5759C18.4747 30.7961 17.619 31.808 16.5179 32.6116C17.4851 33.1027 18.3557 33.7054 19.1295 34.4196C19.9033 35.1339 20.5729 35.9375 21.1384 36.8304C21.7039 37.7232 22.128 38.6756 22.4107 39.6875C22.6935 40.6994 22.8423 41.756 22.8571 42.8571H20C20 41.6815 19.7768 40.5729 19.3304 39.5312C18.8839 38.4896 18.2664 37.5818 17.4777 36.808C16.689 36.0342 15.7813 35.4241 14.7545 34.9777C13.7277 34.5312 12.619 34.3006 11.4286 34.2857C10.253 34.2857 9.14435 34.5089 8.10268 34.9554C7.06101 35.4018 6.15327 36.0193 5.37946 36.808C4.60565 37.5967 3.99554 38.5045 3.54911 39.5312C3.10268 40.558 2.87202 41.6667 2.85714 42.8571H0C0 41.7708 0.14881 40.7217 0.446429 39.7098C0.744048 38.6979 1.16815 37.7455 1.71875 36.8527C2.26935 35.9598 2.93155 35.1562 3.70536 34.442C4.47917 33.7277 5.35714 33.1176 6.33929 32.6116C5.25298 31.808 4.40476 30.7961 3.79464 29.5759C3.18452 28.3557 2.87202 27.0685 2.85714 25.7143C2.85714 24.5387 3.08036 23.4301 3.52679 22.3884C3.97321 21.3467 4.59077 20.439 5.37946 19.6652C6.16816 18.8914 7.07589 18.2812 8.10268 17.8348C9.12947 17.3884 10.2381 17.1577 11.4286 17.1429C12.7827 17.1429 14.0699 17.4479 15.2902 18.058C16.5104 18.6682 17.5223 19.5238 18.3259 20.625C18.8914 19.5089 19.6131 18.5119 20.4911 17.6339C21.369 16.756 22.3661 16.0342 23.4821 15.4688C22.3958 14.6652 21.5476 13.6533 20.9375 12.433C20.3274 11.2128 20.0149 9.9256 20 8.57143C20 7.39583 20.2232 6.2872 20.6696 5.24554C21.1161 4.20387 21.7336 3.29613 22.5223 2.52232C23.311 1.74851 24.2188 1.13839 25.2455 0.691964C26.2723 0.245536 27.381 0.014881 28.5714 0C29.747 0 30.8557 0.223214 31.8973 0.669643C32.939 1.11607 33.8467 1.73363 34.6205 2.52232C35.3943 3.31101 36.0045 4.21875 36.4509 5.24554C36.8973 6.27232 37.128 7.38095 37.1429 8.57143C37.1429 9.9256 36.8378 11.2128 36.2277 12.433C35.6176 13.6533 34.7619 14.6652 33.6607 15.4688ZM11.4286 31.4286C12.2024 31.4286 12.939 31.2798 13.6384 30.9821C14.3378 30.6845 14.9405 30.2753 15.4464 29.7545C15.9524 29.2336 16.3616 28.631 16.6741 27.9464C16.9866 27.2619 17.1429 26.5179 17.1429 25.7143C17.1429 24.9405 16.994 24.2039 16.6964 23.5045C16.3988 22.8051 15.9896 22.2024 15.4688 21.6964C14.9479 21.1905 14.3378 20.7812 13.6384 20.4688C12.939 20.1562 12.2024 20 11.4286 20C10.6399 20 9.90327 20.1488 9.21875 20.4464C8.53423 20.744 7.93155 21.1533 7.41071 21.6741C6.88988 22.1949 6.48066 22.8051 6.18304 23.5045C5.88542 24.2039 5.72917 24.9405 5.71429 25.7143C5.71429 26.503 5.8631 27.2396 6.16071 27.9241C6.45833 28.6086 6.86756 29.2113 7.38839 29.7321C7.90923 30.253 8.5119 30.6622 9.19643 30.9598C9.88095 31.2574 10.625 31.4137 11.4286 31.4286ZM22.8571 8.57143C22.8571 9.36012 23.006 10.0967 23.3036 10.7813C23.6012 11.4658 24.0104 12.0685 24.5313 12.5893C25.0521 13.1101 25.6548 13.5193 26.3393 13.817C27.0238 14.1146 27.7679 14.2708 28.5714 14.2857C29.3452 14.2857 30.0818 14.1369 30.7813 13.8393C31.4807 13.5417 32.0833 13.1324 32.5893 12.6116C33.0952 12.0908 33.5045 11.4881 33.817 10.8036C34.1295 10.119 34.2857 9.375 34.2857 8.57143C34.2857 7.79762 34.1369 7.06101 33.8393 6.36161C33.5417 5.6622 33.1324 5.05952 32.6116 4.55357C32.0908 4.04762 31.4807 3.63839 30.7813 3.32589C30.0818 3.01339 29.3452 2.85714 28.5714 2.85714C27.7827 2.85714 27.0461 3.00595 26.3616 3.30357C25.6771 3.60119 25.0744 4.01042 24.5536 4.53125C24.0327 5.05208 23.6235 5.6622 23.3259 6.36161C23.0283 7.06101 22.872 7.79762 22.8571 8.57143Z" fill="#0C1424"/>
</svg>
