<svg width="34" height="34" viewBox="0 0 34 34" fill="none" xmlns="http://www.w3.org/2000/svg">
<path d="M17 9.06667C18.0979 9.06667 19.125 9.27326 20.0813 9.68646C21.0375 10.0997 21.8757 10.6663 22.5958 11.3865C23.316 12.1066 23.8826 12.9448 24.2958 13.901C24.709 14.8573 24.9215 15.8903 24.9333 17C24.9333 18.0979 24.7267 19.125 24.3135 20.0813C23.9003 21.0375 23.3337 21.8757 22.6135 22.5958C21.8934 23.316 21.0552 23.8826 20.099 24.2958C19.1427 24.709 18.1097 24.9215 17 24.9333C15.9021 24.9333 14.875 24.7267 13.9187 24.3135C12.9625 23.9003 12.1243 23.3337 11.4042 22.6135C10.684 21.8934 10.1174 21.0552 9.70417 20.099C9.29097 19.1427 9.07847 18.1097 9.06667 17C9.06667 15.9021 9.27326 14.875 9.68646 13.9187C10.0997 12.9625 10.6663 12.1243 11.3865 11.4042C12.1066 10.684 12.9448 10.1174 13.901 9.70417C14.8573 9.29097 15.8903 9.07847 17 9.06667ZM17 22.6667C17.7792 22.6667 18.5111 22.5191 19.1958 22.224C19.8806 21.9288 20.4767 21.5215 20.9844 21.0021C21.492 20.4826 21.8993 19.8806 22.2063 19.1958C22.5132 18.5111 22.6667 17.7792 22.6667 17C22.6667 16.2208 22.5191 15.4889 22.224 14.8042C21.9288 14.1194 21.5215 13.5233 21.0021 13.0156C20.4826 12.508 19.8806 12.1007 19.1958 11.7937C18.5111 11.4868 17.7792 11.3333 17 11.3333C16.5868 11.3333 16.209 11.3747 15.8667 11.4573V22.5427C16.209 22.6253 16.5868 22.6667 17 22.6667ZM18.1333 6.8H15.8667V0H18.1333V6.8ZM15.8667 27.2H18.1333V34H15.8667V27.2ZM34 15.8667V18.1333H27.2V15.8667H34ZM6.8 18.1333H0V15.8667H6.8V18.1333ZM8.97813 10.5896L4.17917 5.77292L5.77292 4.17917L10.5896 8.97813L8.97813 10.5896ZM25.0219 23.4104L29.8208 28.2271L28.2271 29.8208L23.4104 25.0219L25.0219 23.4104ZM25.0219 10.5896L23.4104 8.97813L28.2271 4.17917L29.8208 5.77292L25.0219 10.5896ZM8.97813 23.4104L10.5896 25.0219L5.77292 29.8208L4.17917 28.2271L8.97813 23.4104Z" fill="#0C1424"/>
</svg>
