<svg width="40" height="26" viewBox="0 0 40 26" fill="none" xmlns="http://www.w3.org/2000/svg">
<path d="M0 6.6543C0.182292 6.6543 0.429688 6.66081 0.742188 6.67383C1.05469 6.68685 1.36719 6.69336 1.67969 6.69336H2.07031C2.1875 6.69336 2.29167 6.68034 2.38281 6.6543L37.5 0.404297C37.5781 0.391276 37.6823 0.384766 37.8125 0.384766C37.9427 0.384766 38.0859 0.378255 38.2422 0.365234C38.5547 0.365234 38.8802 0.371745 39.2188 0.384766C39.5573 0.397786 39.8177 0.404297 40 0.404297V22.9043H39.2383C38.9128 22.9043 38.5938 22.9108 38.2812 22.9238H37.6953C37.526 22.9238 37.3893 22.9108 37.2852 22.8848L22.3828 20.2285C22.2526 20.9707 22.0052 21.6608 21.6406 22.2988C21.276 22.9368 20.8138 23.4837 20.2539 23.9395C19.694 24.3952 19.082 24.7533 18.418 25.0137C17.7539 25.2741 17.0312 25.4043 16.25 25.4043C15.3906 25.4043 14.5833 25.2415 13.8281 24.916C13.0729 24.5905 12.4089 24.1478 11.8359 23.5879C11.263 23.028 10.8138 22.3639 10.4883 21.5957C10.1628 20.8275 10 20.0137 10 19.1543C10 18.7897 10.0391 18.4186 10.1172 18.041L2.38281 16.6543C2.27865 16.6413 2.16797 16.6348 2.05078 16.6348C1.93359 16.6348 1.79688 16.6283 1.64062 16.6152C1.35417 16.6152 1.06771 16.6217 0.78125 16.6348C0.494792 16.6478 0.234375 16.6543 0 16.6543V6.6543ZM16.25 22.9043C16.7057 22.9043 17.1419 22.8262 17.5586 22.6699C17.9753 22.5137 18.3464 22.2988 18.6719 22.0254C18.9974 21.752 19.2708 21.4199 19.4922 21.0293C19.7135 20.6387 19.8633 20.222 19.9414 19.7793L12.5586 18.4707C12.5195 18.7051 12.5 18.9329 12.5 19.1543C12.5 19.6751 12.5977 20.1634 12.793 20.6191C12.9883 21.0749 13.2552 21.472 13.5938 21.8105C13.9323 22.1491 14.3294 22.416 14.7852 22.6113C15.2409 22.8066 15.7292 22.9043 16.25 22.9043ZM37.5 2.92383L2.5 9.1543V14.1543C2.59115 14.1543 2.66276 14.1608 2.71484 14.1738L37.5 20.3848V2.92383Z" fill="#0C1424"/>
</svg>
